<?xml version="1.0" encoding="UTF-8" standalone="no"?>
<!-- Generator: Adobe Illustrator 26.0.3, SVG Export Plug-In . SVG Version: 6.00 Build 0)  -->

<svg
   version="1.0"
   id="Layer_1"
   x="0px"
   y="0px"
   viewBox="0 0 600 200"
   xml:space="preserve"
   sodipodi:docname="logos_institutions.svg"
   width="600"
   height="200"
   inkscape:version="1.4.2 (ebf0e940, 2025-05-08)"
   xmlns:inkscape="http://www.inkscape.org/namespaces/inkscape"
   xmlns:sodipodi="http://sodipodi.sourceforge.net/DTD/sodipodi-0.dtd"
   xmlns="http://www.w3.org/2000/svg"
   xmlns:svg="http://www.w3.org/2000/svg"><defs
   id="defs1" /><sodipodi:namedview
   id="namedview1"
   pagecolor="#ffffff"
   bordercolor="#000000"
   borderopacity="0.25"
   inkscape:showpageshadow="2"
   inkscape:pageopacity="0.0"
   inkscape:pagecheckerboard="0"
   inkscape:deskcolor="#d1d1d1"
   inkscape:zoom="0.86030761"
   inkscape:cx="170.28793"
   inkscape:cy="-140.64737"
   inkscape:window-width="1728"
   inkscape:window-height="1051"
   inkscape:window-x="0"
   inkscape:window-y="38"
   inkscape:window-maximized="0"
   inkscape:current-layer="Layer_1" />
<style
   type="text/css"
   id="style1">
	.st0{fill:#DEDDDE;}
	.st1{fill:#B5142F;}
	.st2{fill:#254AA5;}
	.st3{fill:#9D1128;}
	.st4{fill:#A70625;}
</style>
<g
   id="layer1"
   transform="translate(295.24323,-20.922749)">
	<path
   id="path11406"
   class="st0"
   d="m 163.4,30.6 c 20.4,-1 40.4,6.4 55.1,20.6 12.7,12.3 22.6,29 24,51.9 0.6,11 -1.4,22.1 -5.8,32.2 -3.8,9.2 -8.5,17.1 -14.6,23.2 -12.7,13 -28.8,22.9 -52.4,24 -20.4,1.1 -40.4,-6.4 -55.1,-20.6 -6.6,-6.3 -12,-13.7 -16.1,-21.9 -4.9,-9.3 -7.6,-19.5 -7.9,-30 -0.7,-24.3 8.2,-42.4 20.2,-55.4 8.9,-9.9 20.9,-17.1 35.9,-21.6 5.4,-1.4 11.1,-2.2 16.7,-2.4 z m -52.3,25 c -6.1,6.8 -11.1,14.6 -14.7,23 -0.7,2.3 -1.3,4.7 -2,7.2 -0.9,2.4 -1.6,4.9 -2.1,7.5 -4.5,30.1 6.8,53.3 23.3,68.4 12.3,11.2 30.8,21.2 54.3,19.8 23.5,-1.4 39,-10.9 51.4,-23.6 3.2,-3.1 6.1,-6.6 8.6,-10.3 7.2,-11.6 12.3,-26 11.6,-44.4 -0.5,-10.4 -3.2,-20.5 -7.9,-29.7 -1.8,-4.2 -4.1,-8.3 -6.8,-12 -2.7,-3.5 -5.7,-6.8 -8.9,-9.9 -13,-11.7 -30.8,-21.3 -55.4,-19.9 -24.1,1.6 -39.5,10.9 -51.4,23.9" />
	<path
   id="path11410"
   class="st0"
   d="m 190.4,36.7 c -15.1,1.1 -30.8,0 -47.2,0 13.7,-5.1 33.6,-4.7 47.2,0" />
	<path
   id="path11414"
   class="st0"
   d="M 142.9,37.5 C 123.4,44 109.7,56.6 101.2,74 c 0,0.3 1,-0.3 1.3,0 0,1 0.3,2.1 -0.7,2.1 -0.7,0 0,-1.8 -1,-1.8 -2.4,3.8 -3.8,8.6 -5.2,13.8 1.3,1 3.4,1 5.2,1.3 0,-1.3 -1.1,-1.8 -1.4,-2.7 0.8,-0.6 1.6,-1.2 2.4,-1.7 2.2,1.1 4.7,1.6 7.2,1.3 -0.3,1.5 0.3,3.1 1.4,4.1 -1,0.8 -2.4,1.8 -3.4,2.4 -3.1,-1.1 -6.3,-1.6 -9.6,-1.7 C 97,90 96.7,89 95.7,89 c -1,1.3 -1,3.4 -1.3,5.2 -0.4,2 -0.8,4.1 -1.1,6.1 -1.7,26 8.6,44.1 20.9,57.5 1.5,-1 2.8,-2.3 3.8,-3.7 -0.3,-0.8 -2,0 -3.1,-0.4 v -2.3 c 2.4,-1.4 3.4,-2.8 5.2,-4.8 h 4 c 0,1.3 0.3,2.6 0.8,3.8 -2.8,2.4 -5.5,4.5 -7.2,8.2 -0.8,-0.5 -1.8,-0.7 -2.8,-0.7 0.9,1.7 2.2,3.1 3.8,4.1 9.9,8.9 23.5,15.1 39.7,17.5 -17.8,-1.8 -31.6,-9.6 -42.4,-19.2 -8.2,-7.5 -14.4,-17.4 -18.9,-28.4 -1.3,-4.1 -2.7,-8.8 -3.8,-13.7 -3.4,-20.5 3.5,-38.6 10.7,-50.9 6.8,-8.9 14.3,-18.5 25,-24.3 1.9,-1.1 3.8,-2 5.8,-2.8 2.6,-1.4 4.3,-2.7 8.1,-2.7 z m -42.1,50.2 c 0.3,3.1 6.5,3.8 7.8,1.4 -2,-1 -5.4,-2.1 -7.8,-1.4 z m 16.1,64.6 c 0,1 1,1 1.8,1 1.4,-1.1 2.7,-2.3 3.7,-3.8 0,-0.7 -0.1,-1.4 -0.4,-2.1 -1.9,1.5 -3.6,3.2 -5.1,4.9" />
	<path
   id="path11418"
   class="st0"
   d="m 146.7,37.5 c 13,0.7 29.8,-0.4 41,0.7 -0.7,1 -2.7,0.7 -3.7,0.7 -13.3,0 -22.6,0.3 -35.3,-0.3 -0.7,0 -2.3,0.3 -2.7,-0.7 0.3,-0.4 0.3,-0.4 0.7,-0.4" />
	<path
   id="path11422"
   class="st0"
   d="m 191.1,37.8 c 4.2,0.3 7.2,2 10.3,3.8 3.9,1.8 7.4,4.3 10.6,7.1 15.4,11.7 26.7,29.8 28.5,54 0.8,16.6 -4,33 -13.7,46.5 -4,5.8 -8.8,11 -14.4,15.4 -2,1.4 -4,2.6 -6.2,3.7 -4.7,3.2 -9.7,5.9 -15.1,7.9 -5.8,2.2 -11.9,3.4 -18.1,3.7 1.4,-1.1 3.5,-0.7 5.2,-1.1 4.9,-1 9.7,-2.3 14.4,-4.1 -0.3,-1 -0.7,-2.1 -1,-3.1 -0.8,0 -1.1,0 -1.1,0.3 -0.7,0 -1,0.3 -1,0 -0.3,-1.3 1,-1 1,-2 -1,-2.8 -1,-6.2 -3.4,-7.2 0,-1 0.3,-1.3 0.3,-2 0.8,0.5 1.8,0.7 2.8,0.7 0.4,3.4 1.5,6.7 3.4,9.6 -0.3,1.3 -1,2.1 -0.7,3.4 7.2,-2.6 13.9,-6.2 19.9,-10.9 7,-5.9 13,-12.8 17.7,-20.6 5.5,-9.9 10,-24.3 9.2,-38.9 -0.6,-19.4 -9,-37.8 -23.2,-50.9 -0.3,0.3 0.3,1.3 -0.3,1.3 h -0.8 c -0.7,0 -1,0 -1,-0.3 -0.3,-1 0,-1 0.7,-1 0.4,0.1 0.8,-0.1 1.1,-0.4 -6.9,-6.1 -14.8,-11.8 -25.1,-14.9" />
	<path
   id="path14937"
   class="st1"
   d="m 223.3,152.3 v 5.8 h 22.2 v -5.8 z" />
	<path
   id="path11426"
   class="st0"
   d="m 148.3,39.1 h 0.3 c 0.5,4.2 0.7,8.4 0.4,12.7 -1.4,-0.3 -1.1,-2.1 -1.1,-3.1 v -8.9 c 0.1,-0.3 0.4,-0.3 0.4,-0.7" />
	<path
   id="path11430"
   class="st0"
   d="m 199,42.6 c -1,0.7 -2.1,1 -2.7,2.4 0.3,1 1.4,2.1 1.7,3.1 0.7,4.4 -3.1,4.4 -5.5,5.8 -1,-0.3 -1,-1.7 -1.8,-2.1 -0.7,-0.7 -0.7,0.7 -1.3,0.7 -1.5,-0.3 -2.5,-1.7 -2.2,-3.3 0,-0.2 0.1,-0.3 0.1,-0.5 1.3,-0.6 2.8,-0.4 3.8,0.7 0,-0.3 0,-0.3 0.4,-0.3 -0.8,-2 -4.2,-3.4 -2.4,-6.2 1.2,1.5 2.4,2.9 3.7,4.2 1.3,-2.1 -4.8,-3.5 -2.4,-7.2 3.8,-2.1 6.5,1 8.6,2.7 z m -7.5,-2.5 c 0.3,1.8 4.1,5.5 5.1,3.4 -0.6,-2.2 -2.8,-3.6 -5.1,-3.4 z m 4.4,11.7 c 0.7,-2.4 -1,-5.8 -2.4,-4.1 1.1,0.6 1.5,1.9 1,3 -0.1,0.2 -0.2,0.3 -0.3,0.4 -1,-0.3 -1,-1.8 -2.3,-2.1 0,0.3 0,0.3 -0.3,0.7 0.6,1.1 1.4,2.2 2.3,3.1 0.7,-0.3 1.4,-0.6 2,-1 z M 188,49.7 c -1,0.8 0,2.1 1.1,2.4 0.2,-0.5 0.6,-1 1,-1.3 -0.7,-0.3 -1.3,-1.1 -2.1,-1.1" />
	<path
   id="path11434"
   class="st0"
   d="m 160,39.5 c 0.7,4.1 0.7,8.2 0,12.3 -1,-0.3 -0.7,-2.1 -0.7,-2.7 v -9.6 h 0.7" />
	<path
   id="path11438"
   class="st0"
   d="m 167.6,39.5 c -0.3,2.4 4.4,1.4 4.4,4.1 -0.4,0.8 -1.3,1.1 -2.1,0.8 0.4,-1.1 1.1,-0.8 1.4,-0.8 -1.8,-1.3 -6.8,-1.3 -8.6,0 0,0.4 0.7,-0.3 0.7,0.4 -0.3,0.7 -1,-0.4 -1.7,0 0.3,-2.1 2.7,-2.4 4.4,-3.1 0,-0.8 -0.3,-0.8 -0.3,-1.4 0.3,-0.4 1,0 1.8,0" />
	<path
   id="path11442"
   class="st0"
   d="m 174.1,39.5 c 0.9,4.2 1.1,8.5 0.3,12.6 -1,-1 -0.7,-3.1 -0.7,-4.4 v -8.2 h 0.4" />
	<path
   id="path11446"
   class="st0"
   d="m 172.6,39.5 c 0.3,3.7 1.1,9.2 0.3,12.3 0.1,-4.4 0.1,-8.2 -0.3,-12.3" />
	<path
   id="path11450"
   class="st0"
   d="m 175.1,39.5 c 0.7,2.7 0.3,8.2 0.3,12 -0.7,-3.1 0,-7.9 -0.3,-12" />
	<path
   id="path11454"
   class="st0"
   d="m 185,39.5 h 0.4 c 0.5,4.2 0.6,8.4 0.3,12.6 -1.4,-0.7 -0.8,-3.4 -0.8,-5.1 -0.3,-2.3 -0.4,-4.6 -0.3,-6.9 0.1,-0.3 0.4,-0.3 0.4,-0.6" />
	<path
   id="path11458"
   class="st0"
   d="m 158.3,39.8 c 1,3.4 0.3,7.2 0.3,11.7 -0.6,-3.1 0.1,-8 -0.3,-11.7" />
	<path
   id="path11462"
   class="st0"
   d="m 160.7,39.8 h 0.4 c 0,4.5 0.3,7.2 -0.4,11.3 0.4,-3.7 0,-7.6 0,-11.3" />
	<path
   id="path11466"
   class="st0"
   d="m 184,39.8 c 0.3,2.8 0.3,8.2 0.3,12 -1,-3.4 -0.3,-8.2 -0.3,-12" />
	<path
   id="path11470"
   class="st0"
   d="m 186.4,39.8 c 0.3,3.4 0.3,8.9 0.3,12 -0.7,-3.4 -0.3,-7.1 -0.3,-12" />
	<path
   id="path11474"
   class="st0"
   d="m 137.1,40.9 c 0,0.7 -0.8,2 -1.7,1.3 0.3,-0.6 0.6,-2.1 1.7,-1.3" />
	<path
   id="path11478"
   class="st0"
   d="m 146.3,42.6 c -0.7,0.9 -1.3,2 -1.8,3.1 0,-1 0,-1.7 0.7,-2.1 -0.7,-0.6 -1.5,-1.1 -2.3,-1.3 0.1,2.5 0.8,4.9 2,7.2 0.3,0 0.7,0.3 1.1,0.3 0,0.8 -0.8,1.1 -0.8,2.1 -0.6,-0.6 -1.5,-1 -2.3,-1 0.3,-2.8 -1.1,-4.8 -1.8,-6.8 0.7,-1.1 1.3,-2.3 1.8,-3.5 1.7,0.3 2.4,1.3 3.4,2" />
	<path
   id="path11482"
   class="st0"
   d="m 157.6,43.5 c -0.3,0.4 -0.3,-0.7 -1,-0.7 -1.7,0 -3.4,-0.3 -4.8,0.3 -0.7,0 -1,1.1 -1.3,0.8 0.6,-3 6.7,-4.1 7.1,-0.4" />
	<path
   id="path11486"
   class="st0"
   d="m 151.4,44 c 0.3,-0.4 0.3,0.3 0.3,0.7 -0.6,0 -0.6,-0.7 -0.3,-0.7" />
	<path
   id="path11490"
   class="st0"
   d="m 135.4,45.6 c 1,3.1 5.2,5.8 2.4,9.9 -1,0 -2.1,-0.3 -3.4,-0.3 -1.4,-1.7 -2.4,-3.8 -3.8,-5.1 0,-1.4 0.3,-2.4 0.3,-3.5 0,-0.7 -1.1,-0.7 -2.1,-0.7 0,-1 0.3,-1.3 0.3,-2 2.2,0.7 4.2,1.1 6.3,1.7 z m -3.5,1.4 c 0.9,2.6 2.4,4.9 4.4,6.8 0.5,-2.3 -1.9,-7.2 -4.4,-6.8" />
	<path
   id="path11494"
   class="st0"
   d="m 203.4,44.3 v 1 c -0.7,0.2 -1.3,0.3 -2,0.3 v -1 c 0.6,-0.4 1.3,-0.5 2,-0.3" />
	<path
   id="path11498"
   class="st0"
   d="m 144.6,45.6 c 0.3,0.3 0,1.4 0.7,2.1 0.8,0 0.3,-0.7 1.1,-0.3 -0.3,0.3 -0.3,0.3 -0.3,0.7 -1.2,-0.1 -1.8,-1.5 -1.5,-2.5" />
	<path
   id="path11502"
   class="st0"
   d="m 166.1,51.1 c -1.3,-1 -1.3,-3.1 -3.4,-3.8 1.8,-2 3.8,2.1 3.4,3.8" />
	<path
   id="path11506"
   class="st0"
   d="m 171.3,47 c -0.3,0.7 -1.4,0.7 -1.4,1.7 0.4,0.7 0.8,-0.7 1.4,-0.7 1,0.7 1,2.8 0.7,4.1 h -2.4 c 0.2,-0.6 0.6,-1.2 1.1,-1.7 -0.8,-1.1 -1.1,1 -1.4,1.7 -1.7,0 -1.3,-2.8 0.3,-2.8 -0.7,-0.3 -1.7,0.3 -2,1.1 -0.8,0 -0.8,-0.8 -1.1,-1.4 2.4,0 2.4,-3.4 4.8,-2" />
	<path
   id="path11510"
   class="st0"
   d="m 202.1,47 c 2.1,4.4 -3.7,5.1 -3.1,9.6 -0.7,0 -1,0.3 -2.1,0 0,-0.8 -0.2,-1.7 -0.7,-2.4 2.1,-1.4 4.8,-3.8 3.7,-6.5 0.5,-0.7 1.5,-0.7 2.2,-0.7" />
	<path
   id="path11514"
   class="st0"
   d="m 183.3,47.4 c -0.3,1.7 -2.7,1.3 -2.7,3.1 -1,0.3 -1.8,1.3 -2.8,1.7 -0.3,-1 0.7,-0.7 0.7,-1.3 -0.3,-1.4 -2,-1.4 -2.4,-2.8 1.4,-0.7 2.1,1.3 2.8,2.4 2,-0.4 1.3,-4.2 4.4,-3.1" />
	<path
   id="path11518"
   class="st0"
   d="m 150.8,47.7 c 1.8,0.3 2.8,1.7 3.1,3.7 -1,-1 -1.3,-2.4 -3.1,-2.8 0,-0.2 -0.4,-0.9 0,-0.9" />
	<path
   id="path11522"
   class="st0"
   d="m 157.6,48 c -0.3,1.3 -2,1.7 -2.3,3.1 -0.3,-1.3 0.5,-2.7 1.8,-3 0.1,0 0.3,0 0.5,-0.1" />
	<path
   id="path11526"
   class="st0"
   d="m 165.5,51.8 h -1.3 c -0.4,-0.3 -0.4,-1 -1.1,-1.3 0,0.7 0.7,1 0,1.3 h -1 c -0.7,-2.1 0.3,-3.4 1.7,-3.7 0.3,1.6 2,1.6 1.7,3.7" />
	<path
   id="path11530"
   class="st0"
   d="m 183,48.7 c 0.7,1 -1.4,2.1 -1.4,3.4 -0.7,0 -2,0.3 -2.4,0 0,-1 0.8,-0.7 1.4,-1 0.6,-1 1,-2.1 2.4,-2.4" />
	<path
   id="path11534"
   class="st0"
   d="m 128.2,49.7 c 0.9,2.3 2.3,4.4 4.1,6.2 0.7,0.3 0.7,-0.3 1,0 0,1.1 0.4,1.8 0,2.4 -0.9,-0.1 -1.8,-0.3 -2.7,-0.7 -0.4,0.7 0,2.1 0,2.8 -1.4,0.3 -2.1,0 -3.5,0 -0.7,-2.4 -2.8,-3.8 -4.1,-5.5 -0.7,0 -0.7,0.3 -1.3,0 0.3,-0.7 0,-2.1 0.3,-2.7 1,0 1.3,0.7 2.3,0.3 1.1,2.4 2.8,3.7 3.8,5.8 0.7,0 1.3,0.3 1.7,0 0.8,-3.1 -2,-4.1 -3.1,-6.5 -0.3,0 -0.3,0.3 -1,0.3 0.1,-2.4 0.8,-3.7 2.5,-2.4" />
	<path
   id="path11538"
   class="st0"
   d="m 157.6,49.4 v 2.1 c -0.5,0.3 -1.2,0.3 -1.7,0 0,-1 0.7,-1.9 1.7,-2.1" />
	<path
   id="path11542"
   class="st0"
   d="m 150.8,49.7 c 1.4,-0.3 1.4,1.1 2.1,1.8 -0.3,0.3 -1.4,0 -1.8,0.3 -0.3,-0.7 -0.7,-1.7 -0.3,-2.1" />
	<path
   id="path11546"
   class="st0"
   d="m 176.5,49.7 c 1.7,0 1.3,2.1 0.3,2.4 -0.7,-0.3 -0.7,-2 -0.3,-2.4" />
	<path
   id="path11550"
   class="st0"
   d="m 183.3,50.8 c -0.3,0.3 0,0.7 -0.3,1.3 h -0.7 c 0,-0.6 0.3,-1.3 1,-1.3" />
	<path
   id="path11554"
   class="st0"
   d="m 204.2,50.8 c 1.6,0.2 3.2,0.2 4.8,0 0.8,1.7 0.8,4.1 1.4,5.4 -0.3,0.8 -0.3,-0.3 -1.1,-0.3 -0.7,0.8 -1.3,1.4 -1,2.8 -0.7,-0.7 -1,0 -1.8,0 0.1,0.9 0,1.9 -0.3,2.7 -1.3,1.4 -4.1,1 -5.4,0 -1.3,-1 -1.1,-2.7 -2.4,-3.1 0.7,-0.3 2,0 2.7,-0.3 0.3,-1 0,-1.8 0,-2.7 1,-1.4 2.8,-2.5 3.1,-4.5 z m -0.8,6.8 c 3.1,0 5.2,-3.4 3.5,-5.8 -1.4,1.7 -4.5,2.7 -3.5,5.8 z m -2.3,1 c -0.8,3.7 4.8,3.7 3.4,0 -0.7,-0.6 -2.7,-0.3 -3.4,0" />
	<path
   id="path11558"
   class="st0"
   d="m 167.9,52.5 c -0.5,0 -1.1,-0.3 -1.4,-0.7 0.3,-1.3 2.1,-0.3 1.4,0.7" />
	<path
   id="path11562"
   class="st0"
   d="m 165.1,52.8 c 0,1.1 -1.4,0.8 -2.1,0.8 -4.1,0 -9.2,0 -13,-0.3 -1.4,0 -3.1,0.7 -4.5,-0.4 0.1,-0.4 0.4,-0.6 0.8,-0.7 5.4,0.3 10.9,-0.3 17.1,0.3 0.7,0 2.1,-0.7 1.7,0.3" />
	<path
   id="path11566"
   class="st0"
   d="m 165.8,52.1 c 0.8,0.3 1.7,0.6 2.4,1.1 0,1.3 -2.1,0 -2.4,-0.4 v -0.7" />
	<path
   id="path11570"
   class="st0"
   d="m 187.7,52.8 c 0,1.8 -2.3,1.1 -3.7,1.1 -4.4,0 -11,0.3 -15.1,0 0,-0.3 -0.3,-1.4 0,-1.4 6.8,0.3 12.3,-0.4 18.8,0.3" />
	<path
   id="path11574"
   class="st0"
   d="m 168.6,54.5 v 1 c -1.3,-0.3 -3.1,-0.3 -3.1,-2 1,0.2 2.1,0.6 3.1,1" />
	<path
   id="path11578"
   class="st0"
   d="m 189.4,54.5 c -0.7,0.7 -2.7,0.3 -3.1,0.3 1.1,-0.2 2.1,-0.3 3.1,-0.3" />
	<path
   id="path11582"
   class="st0"
   d="m 164.5,55.2 c -0.3,1.7 -2.7,1 -4.2,0.7 -5.4,0 -12.3,0.8 -18.5,0 -0.3,-1 0.3,-0.7 1.1,-0.7 2.3,-0.7 6.8,-0.3 10.6,-0.3 3.7,-0.1 7.3,0 11,0.3" />
	<path
   id="path11586"
   class="st0"
   d="m 165.1,54.9 c 1,0.7 2.8,0.3 3.4,1.3 -0.9,1.1 -4,0.8 -3.4,-1.3" />
	<path
   id="path11590"
   class="st0"
   d="m 191.5,55.9 c -0.8,1.1 -2.1,0.8 -2.7,0.8 -6.2,0 -14.4,0 -19.9,-0.8 v -0.3 l 0.3,-0.3 c 5.5,0.3 10.7,0.3 16.8,0.3 1.7,-0.1 3.8,-0.4 5.5,0.3" />
	<path
   id="path11594"
   class="st0"
   d="m 214.4,55.5 c -0.2,1 -0.2,2.1 0,3.1 -2.4,1.8 -4.4,2.7 -5.2,5.8 -0.7,0.3 -1.3,0 -2,0 v -2.7 c 2.4,-1 4.8,-3.1 4.8,-6.2 1.1,0.4 1.4,0 2.4,0" />
	<path
   id="path11598"
   class="st0"
   d="m 117.9,55.9 c 1.1,0.3 2.1,1.1 3.8,0.8 1.3,2 2,4.4 4.7,4.7 0.3,0.7 0.3,1.4 0,2.1 -0.3,0 -1.3,-0.3 -1.7,0 -0.4,0.7 0,1.7 -0.4,2.4 -2.7,1.3 -3.4,-1.4 -5.4,-2.1 0,-0.7 0.3,-0.7 0.3,-1.4 -0.9,0.3 -2,0.2 -2.8,-0.4 -1.6,-2.3 0.8,-4 1.5,-6.1 z m -0.3,5.1 c 0.7,0.3 1.4,0.3 2.1,0 3,-3.4 -4.9,-4.4 -2.1,0 z m 2.4,0.7 c 1,1.1 1.8,3.4 4.1,2.4 0,-2.8 -2,-3.4 -3.4,-5.2 -0.1,1 -0.3,1.9 -0.7,2.8" />
	<path
   id="path11602"
   class="st0"
   d="m 143.9,57 c -3.7,3.3 -7.6,6.2 -11.6,8.9 -0.3,0.7 -0.7,1.3 -1.7,1 3.8,-3.8 8.2,-6.5 12.3,-9.9 h 1" />
	<path
   id="path11606"
   class="st0"
   d="m 188.4,57 c 1.7,0 3.1,1.7 4.4,2.8 2.4,2 4.1,3.8 6.2,5.7 1.3,0.8 2.8,1.4 3.1,2.8 -2.7,-1 -4.8,-3.4 -7.2,-5.4 -2.3,-1.8 -4.5,-3.8 -6.5,-5.9" />
	<path
   id="path11610"
   class="st0"
   d="m 173,63.8 c 0.4,-3.8 2.8,-6.5 7.2,-5.8 0.7,1 1.3,1.8 1,3.1 -0.6,3 -6.8,-0.1 -8.2,2.7 z m 6.1,-1.8 c 3.8,-1 -0.7,-5.8 -1.3,-1.7 -0.7,0 -0.7,-0.7 -1.8,-0.7 -0.7,0.7 -2,1.3 -1.7,2.3 1.1,-1.2 3.5,0.4 4.8,0.1" />
	<path
   id="path11614"
   class="st0"
   d="m 160.7,65.1 c -1,-0.7 -1.3,-2 -3.4,-2.3 -1.7,-0.4 -3.4,0.3 -4.1,-1.4 -0.7,-1.3 0.7,-2.7 2.1,-3.1 3.4,-0.7 6.1,3.1 5.4,6.8 z m -6.9,-4.7 c -0.3,2.4 3.4,1.3 5.2,2.4 1,0.3 0.7,1 1.3,1 0,-2.1 -1.7,-4.1 -3.7,-2.8 0.2,-0.6 0.2,-1.2 0,-1.8 -1,-0.6 -2.8,-0.2 -2.8,1.2" />
	<path
   id="path11618"
   class="st0"
   d="m 217.8,58.3 c 1,0.3 2,0.4 3.1,0.3 -2.4,2.7 -5.8,4.5 -8.2,7.6 0,0.7 0.3,0.7 0.3,1.3 -0.9,0.3 -1.8,0.4 -2.8,0.3 0.7,-0.7 -0.3,-2 0,-2.8 3,-1.8 5.5,-4.1 7.6,-6.7" />
	<path
   id="path11622"
   class="st0"
   d="m 151.4,59.3 c -1,2.1 4.2,8.6 -0.3,8.6 -4.1,0 -3.1,-8.2 0.3,-8.6 z m -0.6,5.1 c -0.5,-0.1 -0.9,0.3 -1,0.8 0,0.1 0,0.2 0,0.2 -0.3,1.4 0.7,2.1 2,1.4 1.1,-2.4 -1,-4.1 -1.3,-6.2 -1,0.8 -1.1,2.2 -0.3,3.2 0.1,0.3 0.3,0.5 0.6,0.6" />
	<path
   id="path11626"
   class="st0"
   d="m 183.3,59.7 c 3.1,2 2.8,10.6 -2.4,9.2 -3.4,-3.8 3.4,-4.8 2.4,-9.2 z m -2.7,6.2 c -1,4.4 5.8,2 2.4,-0.4 0.3,0 0.3,0.4 1,0.4 0.9,-1.3 0.8,-3 -0.3,-4.2 0.6,1.8 -2.8,2.7 -3.1,4.2" />
	<path
   id="path11630"
   class="st0"
   d="m 224.3,62.8 c -2.3,3.1 -6.5,4.1 -8.9,7.2 v 1.3 h -2 c -0.3,-1 0,-1.7 0,-2.8 2.8,-2 5.8,-3.7 8.2,-6.2 0.8,0.4 1.8,0.6 2.7,0.5" />
	<path
   id="path11634"
   class="st0"
   d="m 179.9,70.3 c -3.4,0.3 -7.2,-2.1 -6.2,-4.8 0.3,-2 3.8,-1.7 4.4,0 0.4,2 0,3.8 1.8,4.8 z M 175,67.2 c 0.7,0.3 1,-0.3 1,0 0,0.3 -0.3,0.7 0,1.3 0.3,0.7 1.1,1.1 2.4,1.1 -1,-1.4 -0.7,-3.7 -2,-4.8 -2,-0.7 -2.7,1.7 -1.4,2.4" />
	<path
   id="path11638"
   class="st0"
   d="m 159,68.2 c -1,2.1 -4.8,3.1 -7.2,1.8 1.4,-1 3.2,-2.1 3.5,-4.5 1.6,-1.4 4.7,-0.7 3.7,2.7 z m -0.7,-2.3 c -3.1,-1.4 -3.4,3.1 -5.5,4.1 1.3,0.3 3.1,0 3.4,-1 0.3,-0.4 -0.7,-0.8 0,-1.1 0.7,0 0.7,0.3 1.3,0.3 0.8,-0.2 1.2,-1 1,-1.8 0.1,-0.2 0,-0.4 -0.2,-0.5" />
	<path
   id="path11642"
   class="st0"
   d="m 105.9,66.9 c 0.4,0 0,0.3 0.4,0.3 -0.4,1.3 -2.1,2.8 -0.8,3.8 0.8,0 1.1,-0.7 1.8,-1 2.4,1 4.7,4.1 8.2,3.1 0.3,0.9 0.8,1.7 1.3,2.4 -1.1,0 -2.1,0.3 -3.1,0.7 -2.4,-2 -5.2,-3.4 -8.2,-4.2 -0.3,-0.7 -1,-1.3 -1.3,-2 0.4,-1.5 1.4,-1.8 1.7,-3.1" />
	<path
   id="path11646"
   class="st0"
   d="m 135,72.7 h -12 c -0.3,-1.1 1.3,-1.7 2.4,-2.7 1.2,-0.9 2.4,-2 3.4,-3.1 2.4,1.6 4.1,3.7 6.2,5.8" />
	<path
   id="path11650"
   class="st0"
   d="m 209.7,72.3 c -3.8,0 -6.9,0.3 -10.3,0 -0.3,-0.4 1.4,-1.8 2.1,-2.4 1,-1 2.4,-1.8 2.7,-2.8 2.3,1.4 3.7,3.5 5.5,5.2" />
	<path
   id="path11654"
   class="st0"
   d="m 224.7,67.5 c -0.4,0.9 -0.6,1.8 -0.7,2.8 -0.7,1.3 -6.2,2.4 -5.8,4.4 0.8,2.1 6.5,-1 7.2,-2.8 0.7,-0.3 1.3,0 2.3,0 -0.3,1.1 -1,1.4 -1,2.4 -2.8,1.1 -5.8,1.8 -6.8,4.5 -0.6,-0.1 -1.2,-0.2 -1.8,-0.3 0,-1.1 0.3,-1.4 0.3,-2.4 -0.3,-0.7 -1.7,-0.3 -2.3,-0.7 0,-1.4 0.3,-1.8 0.3,-3.1 1.7,-1.8 5.5,-1.4 5.5,-4.8 1.1,-0.3 1.4,0 2.8,0" />
	<path
   id="path11658"
   class="st0"
   d="m 166.8,68.9 c 2.4,2.7 6.2,3.7 8.9,6.1 0,0.4 0.3,0.8 0.3,1.4 2.8,-1.8 7.9,0.3 7.6,3.7 -1,-3.1 -5.5,-5.2 -7.9,-2.1 1.1,-5.7 -7.8,-4.7 -8.9,-9.1" />
	<path
   id="path11662"
   class="st0"
   d="m 134.7,73.7 c -3.1,0.7 -8.2,0.3 -11.7,0 2.4,-0.7 8.3,-0.7 11.7,0" />
	<path
   id="path11666"
   class="st0"
   d="m 210.7,73.3 c -3.9,0.3 -7.8,0.3 -11.6,0 4.8,0 7.4,-0.6 11.6,0" />
	<path
   id="path11670"
   class="st0"
   d="m 204.2,74 c 0.3,2.8 0.4,5.7 0.3,8.6 -1.3,0 -2.5,0.1 -3.8,0.3 -0.3,-3 -0.5,-5.9 -0.4,-8.9 z m -3.1,1 c 0,2.8 -0.3,4.8 0.3,7.2 0.7,-0.3 1.7,0 2.4,-0.3 0,-2.4 0.3,-4.8 -0.4,-6.9 -0.6,-0.3 -1.6,0 -2.3,0" />
	<path
   id="path11674"
   class="st0"
   d="m 209.7,74.3 c 0.3,2.7 0,5.8 0.3,8.2 -1.4,0.2 -2.8,0.2 -4.2,0 0,-3.1 -0.3,-6.2 0,-8.6 1.3,0.1 2.6,0.2 3.9,0.4 z m -3.5,0.7 c 0.3,2.4 -0.3,5.2 0.8,6.9 0.3,-1.8 -0.4,-4.8 0,-6.9 0,2.8 0.3,4.2 0.3,7.2 h 2 c 0.3,-2.5 0.2,-5.1 -0.3,-7.6 -1,-0.1 -2,0 -2.8,0.4" />
	<path
   id="path11678"
   class="st0"
   d="m 113.1,77.1 c 0.7,0.3 1,1.4 1.3,2.4 -1,0 -2,0 -2.4,0.7 -2.3,-1 -4.1,-3.4 -6.8,-2.4 -0.3,-1 -1.3,-1.7 -1.3,-2.8 0.7,-0.3 1.3,-0.3 2,-0.7 1.8,1.5 3.9,2.7 6.2,3.4 0.7,0.1 1,-0.3 1,-0.6" />
	<path
   id="path11682"
   class="st0"
   d="m 133.3,74.7 c 0,2.4 0.4,4.8 0.4,7.6 -1.1,0 -2.8,0.3 -3.8,0 -0.2,-2.5 -0.2,-5 0,-7.6 1.1,-0.3 2.3,-0.3 3.4,0 z m -2.7,0.3 c -0.4,2.1 0,4.8 0,6.9 1,0 1.7,-0.3 2.3,-0.3 0.1,-2.2 0,-4.4 -0.3,-6.6 -0.3,-0.3 -1.3,0 -2,0" />
	<path
   id="path11686"
   class="st0"
   d="m 199.7,74.3 c 0.7,2.4 0.3,5.8 0.3,8.2 -0.6,-1.3 0,-5.1 -0.3,-8.2" />
	<path
   id="path11690"
   class="st0"
   d="m 204.9,74.3 c 0.7,2.1 0.3,5.8 0.3,8.2 -0.7,-2 -0.3,-5.7 -0.3,-8.2" />
	<path
   id="path11694"
   class="st0"
   d="m 124.4,74.3 c 1.3,-0.1 2.6,0 3.8,0.3 v 7.6 h -3.8 c 0.4,-2.7 -0.4,-5.4 0,-7.9 z m 0.7,0.7 c -0.3,1.8 0,4.8 0,6.6 0.7,0.3 2,0 2.8,0 0.1,-2.2 0,-4.4 -0.3,-6.6 -0.5,-0.3 -1.8,0 -2.5,0" />
	<path
   id="path11698"
   class="st0"
   d="m 128.9,74.3 c 0.2,0 0.3,0.1 0.3,0.3 0,0 0,0 0,0 -0.3,2.8 1,6.2 -0.3,7.6 -0.4,-2.6 -0.4,-5.2 0,-7.9" />
	<path
   id="path11702"
   class="st0"
   d="m 210.7,82.6 c -0.7,-2.1 -0.3,-5.5 -0.3,-7.9" />
	<path
   id="path11706"
   class="st0"
   d="m 123.7,74.7 c 0.7,1.8 0.3,5.5 0.3,7.6 -1,-1.8 -0.3,-6.2 -0.3,-7.6" />
	<path
   id="path11710"
   class="st0"
   d="m 134,74.7 c 0.7,1.8 0.3,5.5 0.3,7.6 -0.6,-2.1 0,-4.9 -0.3,-7.6" />
	<path
   id="path11714"
   class="st0"
   d="m 229.8,76.4 c -0.3,1 -1,1.3 -1,2.4 0.3,1 1.7,0.7 2.7,1.3 -0.3,1 -1.1,1.4 -1.4,2.4 0.3,1 1.8,1 2.4,1.7 0.3,0.8 -0.7,1.8 -1,2.8 -2.7,0.3 -5.8,0.7 -6.5,3.1 -0.7,-0.4 -1.6,-0.6 -2.4,-0.7 0.7,-3.7 6.5,-2.4 7.8,-5.5 -2.3,-1.7 -6.2,0.3 -7.5,2.1 -0.7,0 -1.5,-0.2 -2.1,-0.7 0.7,-3.7 6.8,-2.1 8.2,-5.2 -1,-1.7 -2.1,-0.7 -3.8,0 -1.7,0.7 -3.4,0.3 -4.2,2.1 -0.7,0 -1,-0.3 -1.7,-0.3 0.3,-0.8 0.6,-1.6 1,-2.4 2.4,-0.7 5.8,-1.4 6.8,-3.4 1.1,-0.1 2,0 2.7,0.3" />
	<path
   id="path11718"
   class="st0"
   d="m 165.5,80.2 c -2.4,0.5 -4.3,2.4 -4.8,4.8 -1.4,0.3 -2.9,0 -4.1,-0.8 0,-3.7 4.1,-6.5 6.8,-7.8 1.4,-0.6 1.7,2.1 2.1,3.8" />
	<path
   id="path11722"
   class="st0"
   d="m 176.5,83.9 c -0.8,0.7 -2.4,0.7 -3.8,1.1 -1,-2.1 -2,-4.2 -4.7,-4.8 0,-1.7 0.7,-2.4 1,-3.4 4.4,0.6 6.4,3.4 7.5,7.1" />
	<path
   id="path11726"
   class="st0"
   d="m 201.4,76.8 c 0.7,1 0.3,2.4 0.3,3.8 0,0.7 -0.3,0.3 -0.3,0 v -3.8" />
	<path
   id="path11730"
   class="st0"
   d="m 104.9,78.8 c -0.3,0.7 -1,0.7 -1.3,1.3 0.7,1 4.8,3.1 6.2,2.4 0.3,-0.3 1,-0.7 1,-1.4 0.8,0.8 1.4,1.7 1.8,2.8 -1.1,0.1 -2.1,0.6 -2.8,1.4 -1.8,-1.1 -5.8,-3.4 -7.2,-1.4 -0.6,-0.7 -1.1,-1.5 -1.3,-2.3 0.7,-0.4 1.4,-0.8 2.1,-1.1 0,-1 -0.8,-1.3 -0.8,-2 0.6,-1.4 2.3,-1.4 2.3,0.3" />
	<path
   id="path11734"
   class="st0"
   d="m 167.6,82.9 c -1.1,0 0,1.7 -1.4,1.7 0,0.4 0.7,0 1.1,0 -0.8,0.8 -2.1,0.4 -2.1,-0.3 -1,1.1 -3.4,1.4 -4.8,2.8 0.3,0.3 1.1,-0.7 1.4,-0.7 0.3,0.7 -1.1,1.3 -1.1,2.4 -0.7,0 -0.3,-1.1 -1,-1.1 0.3,-1 0.9,-1.8 1.7,-2.3 -0.3,-6.8 11.2,-5.8 10.2,0 1,0.7 2.1,1.3 1.8,3.1 -0.4,0 -0.4,-0.8 -0.4,-1.1 -1,-1.3 -3.1,-1.3 -4.4,-2.3 0,-1.2 0,-1.9 -1,-2.2 z m 3,2.1 c -0.3,-0.4 -1.1,-0.4 -1.7,-0.8 0.3,0.8 1.7,1.1 2.4,1.1 0,-0.8 0,-1.1 -0.3,-1.1 0,0 0,0.8 -0.4,0.8" />
	<path
   id="path11738"
   class="st0"
   d="m 182.3,80.8 c 1,0.3 3.4,-0.7 4.1,0.8 -0.7,0.7 -3.4,0.3 -4.1,0 v -0.8" />
	<path
   id="path11742"
   class="st0"
   d="m 186.4,82.9 c -1.8,-0.3 -2.4,0.3 -3.1,-0.3 0,-0.7 2.7,-0.4 3.1,0.3" />
	<path
   id="path11746"
   class="st0"
   d="m 150.1,82.6 c -0.3,0.7 -3.4,1.3 -3.1,0 0.7,-0.4 2.4,-0.7 3.1,0" />
	<path
   id="path11750"
   class="st0"
   d="m 135.4,83.2 c -1.7,0.3 -3.4,0 -5.5,0 -2.3,0 -5.1,0.7 -7.5,0 1,-0.7 2.8,-0.3 3.8,-0.3 3,-0.3 6.7,-0.7 9.2,0.3" />
	<path
   id="path11754"
   class="st0"
   d="m 167.9,83.2 v 1 c -0.3,-0.3 -0.3,-0.7 -0.7,-1 0.4,-0.3 0.4,0 0.7,0" />
	<path
   id="path11758"
   class="st0"
   d="m 212.3,83.6 c -4.1,0.7 -9.9,0 -14.6,0.3 v -0.7 h 0.3 c 4.4,0 9.9,-0.6 14.3,0.4" />
	<path
   id="path11762"
   class="st0"
   d="m 154.9,83.6 c -0.8,1 -3.5,0.3 -4.5,0.3 v -0.3 c 1,-0.4 3.8,-0.7 4.5,0" />
	<path
   id="path11766"
   class="st0"
   d="m 150.1,83.6 c 0.3,2.1 2.4,2.4 4.8,2.7 -0.4,0.7 0,1 0,2.1 -1.6,-0.7 -3.1,-1.6 -4.5,-2.7 -0.3,0 -0.3,0.3 -0.7,0.3 0,1 0.7,1.3 1.3,2.1 0.3,-0.8 -1,-1.4 -1,-2.1 1.7,2.1 5.2,1.7 5.8,4.7 -0.7,-1.3 -3.1,-1.3 -4.2,-0.7 -1.7,-0.7 -1.7,-2.8 -2.7,-4.1 -0.8,1.7 0.7,4.7 0,6.8 -0.4,0 -0.8,0.3 -1.1,0 -0.3,-2.7 0.3,-6.5 -1,-8.2 0.6,-0.1 1.2,0.1 1.7,0.4 0.4,-0.4 -1,-0.4 -1,-1.1 0.5,-0.2 1.6,-0.2 2.6,-0.2" />
	<path
   id="path11770"
   class="st0"
   d="m 137.8,83.9 c 0.3,2.1 -3.4,1.1 -4.8,1.1 -1.7,0 -3.7,0.3 -5.1,0.3 -0.3,0 0,0.3 0,1 -1.4,0 -1.8,-0.3 -2.1,-1 -0.7,5.8 0.7,13 -0.7,17.4 0,-5.4 -0.3,-11.6 0,-17.4 -0.3,-0.3 -1.4,0 -2.1,0 0.3,0.3 1.8,-0.3 1.3,0.7 -0.3,0.7 -1.7,0 -2.3,0.3 v 4.4 c 0.3,0.4 1.7,0 2.3,0 -0.7,1.1 0,1.4 0,2.8 -0.3,0 -0.7,0.3 -1,0.8 0,-0.4 -0.3,-0.8 -1,-1.1 0,-0.7 0.7,-1 0.7,-1.3 0,-0.3 -0.3,-0.3 -0.7,-0.7 -0.7,3.4 0,6.2 -0.3,8.8 0,0.8 0.3,2.1 -0.8,2.8 V 85.7 c -0.3,-0.7 -1.3,-0.3 -1.3,-1.1 1.8,-1.3 6.2,-0.7 8.2,-0.7 3.3,-0.1 6.5,-0.1 9.7,0" />
	<path
   id="path11774"
   class="st0"
   d="m 129.2,85.3 c 0,0.3 0.3,0.3 0.3,0.7 -0.4,0.3 -1,0.3 -1.3,0 0,-0.7 0.3,-0.7 1,-0.7" />
	<path
   id="path11778"
   class="st0"
   d="m 130.9,85.3 c 0,0.3 0.3,0.3 0.3,0.7 -0.4,0.3 -1,0.3 -1.4,0 v -0.3 c 0.1,-0.4 0.8,-0.4 1.1,-0.4" />
	<path
   id="path11782"
   class="st0"
   d="m 131.6,85.3 h 0.7 c 0,5.8 0.3,12 0,17.1 -1,-0.3 -0.7,-1.7 -0.7,-2.7 V 85.3" />
	<path
   id="path11786"
   class="st0"
   d="m 134.7,85.3 v 0.3 c 0,0.7 -0.3,0.7 -1,0.7 v -0.7 c 0,-0.3 0.7,-0.3 1,-0.3" />
	<path
   id="path11790"
   class="st0"
   d="m 135,85.3 c 0.7,0 0.3,0.3 0.3,1 -0.3,0 -0.3,-0.6 -0.3,-1" />
	<path
   id="path11794"
   class="st0"
   d="m 132.9,101.7 c -0.3,-1 0.8,-1.8 0.8,-2.8 -2.1,-1.3 0.3,-2.4 0.3,-4.7 0,-0.4 -1.1,0 -1.1,-0.8 -0.3,-1 0.3,-1 0.8,-1.3 0,-0.7 -1.1,-0.3 -0.8,-1 0.8,0 1.1,-0.8 1.1,-1.8 0,-0.7 -1.1,-0.3 -1.1,-0.7 0,-1.4 1.1,-1.4 0,-2.1 0.8,0 1.8,-0.3 2.4,0 -0.3,0.5 -0.3,0.5 -0.6,0.5 0,0.7 0.7,0.3 0.7,1.4 0.3,0.7 -1,0.3 -1,1 0,0.3 0.3,0.7 0,1.3 0,0.4 1,0 1,0.4 0.3,0.7 -0.3,0.3 -0.7,0.7 0.3,0.7 1,0.7 1,1.7 -0.3,0.3 -1.3,0.3 -1.3,0.8 0,0.7 0.3,0.7 0,1.3 3.1,-1 0.7,-7.2 1.7,-10.2 0.8,0 0.8,1 0.8,1.3 0.3,2.1 -0.4,4.8 -0.4,7.6 3.8,-2.1 6.9,-4.8 10.7,-6.9 -0.3,1.4 -2.1,2.1 -3.1,2.8 -3.4,2.7 -7.2,5.2 -10.7,7.9 4.8,-2.4 8.9,-6.5 13.7,-8.6 v 3.8 c -1,1.1 -2.4,1.7 -3.1,3.1 1,2.1 3.1,3.4 3.1,6.2 -0.7,6.2 0.3,15.1 0,22.2 -0.3,6.5 -0.3,14.1 -0.3,20.2 -1.2,0.3 -2.5,0.3 -3.7,0 -0.8,-12.7 1,-28 0,-40.4 -0.4,-3.8 -1.4,-7.2 -6.2,-6.5 -0.8,1.3 0.3,3.4 -0.8,4.8 z m 1.8,-3.7 c 0,1.3 1,2.8 1,3.4 0,-1.1 0.3,-3.1 0,-3.4 0,0.3 -0.7,0 -1,0" />
	<path
   id="path11798"
   class="st0"
   d="m 132.9,85.7 c 0.3,-0.3 0.3,0.3 0.3,0.7 -0.3,-0.1 -0.3,-0.4 -0.3,-0.7" />
	<path
   id="path11802"
   class="st0"
   d="m 199.7,86.7 c -0.4,0 -0.7,-0.3 -0.7,-0.7 0.7,-0.3 1,-0.3 0.7,0.7" />
	<path
   id="path11806"
   class="st0"
   d="m 200.4,85.7 c 0.4,0 0.7,0.3 0.8,0.7 -0.3,0 -0.3,0.3 -0.8,0.3 v -1" />
	<path
   id="path11810"
   class="st0"
   d="m 202.4,85.7 c 0.3,0.3 1,-0.3 1.4,0.3 v 0.7 h -1.7 c 0,-0.7 0.3,-0.7 0.3,-1" />
	<path
   id="path11814"
   class="st0"
   d="m 208.9,85.7 c 0.8,0 0.8,0.7 0.3,1 -0.3,0 -0.3,-0.7 -0.3,-1" />
	<path
   id="path11818"
   class="st0"
   d="m 211.7,86.3 c -0.3,0 -0.7,0 -0.7,-0.3 0.3,-0.3 1,-0.3 0.7,0.3" />
	<path
   id="path11822"
   class="st0"
   d="m 198,86 c 0.7,-0.3 0.7,0.3 0.7,0.7 -0.7,0 -0.7,-0.4 -0.7,-0.7" />
	<path
   id="path11826"
   class="st0"
   d="m 205.5,86 c 0.3,0.7 -1,0.7 -1.3,0.3 0,-0.6 1,-0.3 1.3,-0.3" />
	<path
   id="path11830"
   class="st0"
   d="m 207.6,86 c 0,0.3 -1.4,0.7 -1.4,0.3 0,-0.6 1.4,-0.6 1.4,-0.3" />
	<path
   id="path11834"
   class="st0"
   d="m 210,86 h 0.7 v 0.7 c -0.4,0 -1,-0.4 -0.7,-0.7" />
	<path
   id="path11838"
   class="st0"
   d="m 122.4,87 c 0.3,-0.7 1.3,-0.3 1.7,-0.3 -0.3,0.7 0,1 0.3,1.4 0,1 -1.3,1 -0.7,2.3 -0.7,-0.3 -0.3,-1.7 -1.3,-1.7 -0.4,-1 1,-1.4 0,-1.7" />
	<path
   id="path11842"
   class="st0"
   d="m 171.3,86.7 c 1.7,0 1.7,3.4 -0.3,3.1 0,-0.3 -0.3,-0.7 0,-1 0.3,0 0.3,0.3 0.3,0.7 1.3,-0.8 0.7,-2.2 0,-2.8" />
	<path
   id="path11846"
   class="st0"
   d="m 201.1,87 c 0,0.7 -0.8,0 -1.1,0.7 0.3,0.4 1.1,0.4 1.1,1.1 0,0.7 -0.8,0.3 -1.4,0.7 0,0.3 0.3,1.3 -0.3,1.3 0,-0.9 -0.5,-1.7 -1.3,-2 0,-0.4 0.3,-0.7 0.6,-0.7 0,0 0,0 0,0 0,-0.4 0,-0.8 -0.7,-0.8 0.9,-0.6 2.1,-0.7 3.1,-0.3" />
	<path
   id="path11850"
   class="st0"
   d="m 161.7,87 c 1,0.7 -0.3,1.4 0.7,1.8 0,0.3 -0.7,0.3 -1,0.3 -0.7,-0.7 0,-1.8 0.3,-2.1" />
	<path
   id="path11854"
   class="st0"
   d="m 171.6,87.3 c -0.3,0.3 0.7,0.8 0,1.1 -0.3,-0.3 -0.3,-0.8 -0.7,-1.1 h 0.7" />
	<path
   id="path11858"
   class="st0"
   d="m 159.3,87.7 c 0.3,1.4 1.3,1.8 2.4,2.1 0,0.7 0.7,0.7 0.3,1 -0.7,1.1 -1,2.1 -2.1,2.4 -1.7,-0.8 -2.9,-2.5 -3.1,-4.4 0.4,-0.7 1.2,-1.1 2.5,-1.1" />
	<path
   id="path11862"
   class="st0"
   d="m 230.8,88.4 c 0.6,-0.2 1.3,0.1 1.5,0.7 0.1,0.3 0.1,0.6 -0.1,0.9 h -1 c -0.7,-0.3 -0.7,-0.9 -0.4,-1.6" />
	<path
   id="path11866"
   class="st0"
   d="m 149.8,89.1 c 0.6,0.3 1.1,0.7 1.3,1.3 -0.3,0.8 -0.7,1.1 -1,1.1 -0.3,-0.8 -0.4,-1.6 -0.3,-2.4" />
	<path
   id="path11870"
   class="st0"
   d="m 228.5,90.7 c -0.3,0 -0.3,0.4 -0.3,0.4 -0.8,0.7 -1.4,0.7 -1.8,0 -0.7,-1.7 2.1,-1.7 2.1,-0.4" />
	<path
   id="path11874"
   class="st0"
   d="m 149.4,93.2 c 1,-1.3 2.3,-2.3 3.8,-3.1 1.1,1.5 2,3.1 2.7,4.8 -0.7,0.3 -1.4,1 -2.1,1.3 -1.6,-0.6 -4,-1 -4.4,-3" />
	<path
   id="path11878"
   class="st0"
   d="m 154.2,90.1 c 1.4,1.3 2.5,3 3.1,4.8 -0.9,1 -1.9,1.8 -3.1,2.4 -0.3,-1.4 1.8,-1.4 2.4,-2.8 -0.7,-1.3 -2.1,-2.3 -2.4,-4.4" />
	<path
   id="path11882"
   class="st0"
   d="m 203.1,91.2 c 0.3,-0.4 1.1,0.3 1.1,0.3 0,1 -0.8,1.3 -1.1,2 -0.7,0 -1,-0.3 -1,-1.3 0.7,0.3 1,0 1.3,0 0.5,-0.7 0,-0.7 -0.3,-1" />
	<path
   id="path11886"
   class="st0"
   d="m 205.9,91.2 h 1.1 c 0,0.3 -0.4,0.7 -1.1,0.7 v -0.7" />
	<path
   id="path11890"
   class="st0"
   d="m 171.3,91.8 c -1,1.3 -2.4,2.4 -3.4,3.7 1,-0.3 2,-2.4 3.4,-2.8 0.6,0.3 1.2,0.6 1.7,1 -2,2.1 -3.7,4.2 -4.1,7.2 -1.7,0.7 -2.7,-0.8 -2.1,-2.1 0.4,0 1.1,-0.3 1.8,-0.3 0.3,-1.3 -0.7,-1 -0.7,-2.4 -0.7,0.3 -0.3,1.1 -1.1,0.7 0.4,-1.9 2.1,-5.6 4.5,-5" />
	<path
   id="path11894"
   class="st0"
   d="m 235,92.5 c -0.7,3.8 -7.9,0.3 -9.2,3.8 1.7,2.1 6.2,1.1 8.1,-0.3 0.6,0.2 1.2,0.6 1.8,1 -0.3,0.8 -1.3,1.4 -1.8,2.1 -1.7,-0.3 -4.4,0 -6.2,0 -0.7,0.3 -0.7,1.3 -1.3,1.8 -0.7,-0.4 -1.3,-0.8 -1.7,-1.1 0.4,-0.7 1.1,-1 1.7,-2 -0.3,-1.1 -1.7,-1.1 -2.4,-2.1 0.3,-1 1.1,-1 1.4,-2.4 2.3,-0.1 4.6,-0.3 6.8,-0.7 0.7,-1.1 1.7,-1.1 2.8,-0.1" />
	<path
   id="path11898"
   class="st0"
   d="m 161.7,92.5 c 0.2,-0.2 0.3,-0.4 0.3,-0.7 2.4,1 3.1,3.1 3.8,5.1 -1.2,-1.6 -2.5,-3.1 -4.1,-4.4" />
	<path
   id="path11902"
   class="st0"
   d="m 127.1,92.2 c 0.8,0 0.4,1 0,0.7 -0.4,-0.4 0.4,-0.4 0,-0.7" />
	<path
   id="path11906"
   class="st0"
   d="m 206.2,92.2 c 0.8,0 0.8,0.3 1.1,0.3 0.3,0.7 -0.3,1 -0.8,1 -0.3,-0.3 -0.3,-0.7 -0.3,-1.3" />
	<path
   id="path11910"
   class="st0"
   d="m 165.1,96.9 c 0.3,0.4 -0.3,0.4 -0.7,0.4 v 1.3 c 0.3,0.7 1.7,0 1.3,1 0.3,0 0,-0.3 0,-0.7 0.7,0 0.7,0.7 0.7,1 -0.7,0.3 -0.7,0 -1.7,0 -1.1,-1.7 -1.8,-3.7 -4.2,-4.4 1.1,1 3.1,2.4 3.1,4.4 -0.8,0.1 -1.6,-0.1 -2.3,-0.3 0,-0.7 0.3,-0.7 0.3,-1 -1.1,2.1 -1.1,5.2 -1.1,8.2 -1.7,-0.4 -1,-3.8 -1,-5.8 0,-1.4 0.3,-2.7 0.3,-4.2 -1.3,2.1 -0.7,6.2 -1.3,8.9 -0.7,-0.3 -1.8,-0.3 -2.8,-0.7 0,-2.1 0,-4.1 -1,-5.5 0,1.1 0.7,2.1 0.3,2.7 -1.4,-0.7 -3.8,-1.3 -4.5,-2.4 0,-1 1.4,-0.7 2.1,-0.3 -0.3,-2 -1.8,-3.1 -2.4,-4.4 2.4,0.3 3.1,2.1 4.1,3.7 1.1,0 1.1,0.7 1.4,1 0,-0.3 0.7,-0.7 0.3,-1 0.5,-0.3 1.2,-0.3 1.8,0 0.7,-0.3 -0.8,-0.3 -0.8,-0.7 0.8,-1.4 1.1,-2.4 2.8,-2.8 -0.3,-0.3 -0.7,-0.3 -0.7,-0.7 1.2,-3.1 5.7,0 6,2.3 z m -6.8,5.2 c 0.3,-1.3 -0.8,-2.1 -1.8,-2.7 1.1,0.6 1.5,2 1.8,2.7" />
	<path
   id="path11914"
   class="st0"
   d="m 97.7,95.9 c -0.8,-2.7 2.4,-2.7 2.7,-1.3 0.1,1 -1,2 -2.7,1.3" />
	<path
   id="path11918"
   class="st0"
   d="m 151.8,97.3 c -1.3,1.3 -3.7,1.7 -4.4,3 -1.2,-1.1 -2.1,-2.5 -2.8,-4.1 0.7,-1.7 2.4,-2 4.1,-2.8 1.7,0.4 1.1,3.5 3.1,3.9" />
	<path
   id="path11922"
   class="st0"
   d="m 104.9,94.2 c 0.7,0 1.7,0.3 1.4,1.3 -0.4,3.2 -4.5,-0.6 -1.4,-1.3" />
	<path
   id="path11926"
   class="st0"
   d="m 123.4,94.2 c 0.3,1 1,0.7 1,1.7 -1.3,1.4 0.4,3.4 0,5.2 -0.7,-0.3 0,-2.1 -1,-2.4 -0.7,0.3 -0.3,1.7 -1,2.4 -0.7,-1.4 1.7,-3.7 0,-5.5 0,-0.7 1,-0.3 1,-1 v -0.4" />
	<path
   id="path11930"
   class="st0"
   d="m 174.7,103.4 c -0.7,-0.7 -0.3,-1.3 0,-2 -0.7,0 -1,1 -1.8,0.7 -0.3,-0.9 -0.3,-1.9 0,-2.7 -1,0.3 -0.3,2.4 -1.3,2.4 -1,-2.1 0.3,-4.8 1.3,-6.2 -1.7,1 -1.3,4.1 -3.1,5.5 -0.7,-0.8 0,-2.7 0.8,-3.7 0.8,-1 1.7,-2.4 2.8,-2.8 3.4,2 4.4,7.2 4.7,12.3 -0.3,0.3 -0.7,-0.8 -1,-0.8 -1.4,-0.7 -3.1,-0.3 -4.2,-0.3 0.3,-0.9 0.2,-1.9 -0.3,-2.8 0.7,-0.2 1.5,-0.1 2.1,0.4" />
	<path
   id="path11934"
   class="st0"
   d="m 165.8,94.6 c 0.7,0 0.3,0.3 1,0.3 0,0.7 -1,0.7 -1,-0.3" />
	<path
   id="path11938"
   class="st0"
   d="m 168.2,98 c -0.3,0.7 -3.1,0.7 -3.4,0 0.3,-0.3 3.1,-0.7 3.4,0" />
	<path
   id="path11942"
   class="st0"
   d="m 128.9,98 c 1.3,2.3 2.4,5.4 3.8,7.8 -2,-1.3 -2.4,-4.4 -3.8,-6.5 -2.1,1.7 -2.1,5.5 -4.8,6.8 1.8,-2.5 3.4,-5.3 4.8,-8.1" />
	<path
   id="path11946"
   class="st0"
   d="m 147.7,100.7 c 0.7,-1.1 2.1,-2.1 4.5,-2.4 -1.2,1.4 -2.8,2.2 -4.5,2.4" />
	<path
   id="path12518"
   class="st0"
   d="m 101.5,98 c -0.3,1 -0.4,2 -1.4,2 -1.4,-0.3 -1.7,-1.3 -3.2,-1.7 0.3,1.1 0.2,2.3 -0.3,3.4 0.8,0.9 1.6,1.8 2.4,2.7 0.9,-0.6 2.1,-0.7 3.1,-0.3 0,-0.6 0.2,-1.3 0.7,-1.8 2.1,0.7 3.1,2.4 5.2,2.7 -0.7,-1.3 -0.3,-3.1 0,-4.4 -1,-0.4 -1.3,-1.8 -2.7,-2.1 -1.5,-0.2 -2.8,0.5 -3.8,-0.5 z m -3.1,1.3 c 1.1,0.7 2.1,1.6 2.7,2.8 -0.3,0.7 -2.1,0.3 -2.7,0 0,-1 -0.3,-2.1 0,-2.8 z m 8.3,1 c -0.6,1.2 -0.6,2.6 0,3.8 -1.8,-1.1 -4.2,-1.4 -4.5,-3.4 1,-0.7 2.7,0 4.5,-0.4 z" />
	<path
   id="path11954"
   class="st0"
   d="m 150.4,100.7 c -0.7,2.3 1,4.4 0.7,5.7 -0.3,1.8 -2.4,1.8 -2.4,3.5 0,0.7 0.8,0.3 0.8,1 0.7,-0.3 -0.3,-0.7 -0.3,-1 0.7,-1.4 2,-1.8 2.7,-3.1 -0.3,-1.8 -0.3,-3.8 -0.7,-5.5 0.3,-0.3 0.7,0.3 1.4,0.3 0.3,1.7 -0.3,4.7 1,5.8 -0.4,1 -0.6,2 -0.3,3.1 -1.8,1 -4.5,1 -5.2,-0.7 1,-2.9 -2.1,-9.5 2.3,-9.1 z m 0.4,9.9 c 1,0.3 1.4,-1.7 0.7,-1.7 -0.1,0.7 -0.7,1.1 -0.7,1.7" />
	<path
   id="path11958"
   class="st0"
   d="m 236.3,101.4 c -0.7,1 -1.7,1.3 -2.4,2.4 0.6,0.8 1.5,1.5 2.4,2 -0.3,1.1 -1.3,1.4 -2,2.4 -1.8,-0.7 -6.2,-1.3 -7.2,0.3 l -2,-1 c 0.5,-0.7 1,-1.2 1.7,-1.7 2.4,0.3 6.1,1.1 7.6,-0.7 -1.8,-3.1 -7.9,0.3 -9.2,-1.8 1,-3.4 7.8,0.8 8.8,-2.7 0.7,0.1 1.6,0.4 2.3,0.8" />
	<path
   id="path11962"
   class="st0"
   d="m 163.1,101.7 c -0.7,1.7 0,4.1 -0.7,5.8 h -1 c -0.3,-1.7 0,-4.2 0,-6.2 0.6,0.1 1.1,0.3 1.7,0.4" />
	<path
   id="path11966"
   class="st0"
   d="m 170.6,108.2 c -0.8,-1.3 0.3,-5.8 -2.1,-6.2 2.1,-1 4.8,0.7 3.8,4.1 -0.3,1.1 -1.3,1.5 -1.7,2.1" />
	<path
   id="path11970"
   class="st0"
   d="m 94.3,104.5 c 0.6,0.3 1.2,0.6 1.7,1 0,0.7 -0.3,0.3 -0.3,0.7 -0.7,0 -1.3,-0.7 -1.8,-1 0,-0.4 0.4,-0.4 0.4,-0.7" />
	<path
   id="path11974"
   class="st0"
   d="m 163.1,104.8 c 0.7,-0.3 0.7,0.3 1.1,0.3 v 3.1 h -1.1 v -3.4" />
	<path
   id="path11978"
   class="st0"
   d="m 107.6,106.1 c -0.3,1.1 -1.3,1.1 -1.8,2.4 -1.7,-1 -6.5,-1.3 -7.5,0.3 -0.8,-0.1 -1.4,-0.6 -1.7,-1.3 0.3,-1.1 1.1,-1.4 1.7,-2.1 1.3,1 3.8,0.7 6.2,0.7 0.7,-1.3 2.1,-1 3.1,0" />
	<path
   id="path11982"
   class="st0"
   d="m 166.8,105.1 c 0.4,0 0.4,0.3 0.8,0.3 v 2.1 c -0.3,0.3 -0.8,0.7 -1.1,0.3 0.3,-0.9 0,-1.7 0.3,-2.7" />
	<path
   id="path11986"
   class="st0"
   d="m 165.8,105.1 c 0.3,0.7 0,2.1 0,3.1 h -1 c 0,-1 -0.7,-3.1 1,-3.1" />
	<path
   id="path11990"
   class="st0"
   d="m 168.2,105.5 h 0.3 c 0.3,1.2 0.6,2.5 0.7,3.8 -1,-0.4 -0.6,-2.4 -1,-3.8" />
	<path
   id="path11994"
   class="st0"
   d="m 122.7,107.9 c 0.7,0.7 0.3,1.3 0.7,2.4 1.8,-0.3 2.8,-2.1 4.5,-1.4 0.3,1.7 0,3.7 0.3,5.5 -1.1,-0.7 -0.3,-3.1 -0.7,-4.4 -1.1,0.7 0,3 -0.4,4.1 -0.7,-0.7 -0.3,-2.4 -0.7,-3.4 -0.7,0.3 -0.3,2 -0.3,2.8 -1,0 0,-2.1 -1,-2.4 -0.3,0.3 0,1.3 0,2 -0.8,0 -0.3,-1 -0.8,-1.7 -0.7,0 -0.3,1 -0.3,1.7 -0.4,0 -0.6,-0.3 -0.7,-0.7 0,0.3 -0.3,0.3 -0.3,0.7 0.3,1.1 1.3,1.1 2.1,1.4 -0.3,1 1,1.7 2.4,1.7 0.3,0.8 -0.4,0.8 -1.1,1.1 0,-1.1 -0.3,-0.3 -1,-0.3 0,-0.3 0.3,-0.3 0.3,-0.8 -0.7,-0.7 -2.1,-0.7 -2.4,-1.7 -0.3,0 -0.3,0.3 -0.7,0.3 0.3,1 0.7,1.8 1.3,2.1 -0.7,0.3 -1,-0.8 -1.7,-1.1 -0.7,0 -1.1,0.8 -1.4,1.1 -0.3,-0.8 1.4,-1.1 0.8,-2.4 -1.4,0.3 -1.8,2.4 -3.8,2.1 v -1.1 c 2.1,0.3 2.4,-1.7 3.8,-2.4 0.3,-0.3 0,-0.3 0,-0.7 -0.4,-0.3 -0.4,0.3 -0.8,0.3 -0.4,0 0,-0.7 -0.3,-1 -0.7,0 -0.3,1 -0.7,1.3 -0.7,0 0.3,-1.7 -0.7,-1.7 -0.3,0.7 0,1.7 -0.7,2.1 0.1,-0.8 0,-1.6 -0.4,-2.4 -0.7,0.3 0,2 -0.3,2.7 -1,-0.3 0,-2.7 -0.7,-3.1 -0.7,0 -0.3,0.7 -0.3,0.7 -0.7,0 -0.3,-1.3 -0.3,-2.1 1.7,-1.3 2.7,1.8 5.2,1.1 0.2,0 0.3,-0.2 0.3,-0.3 0.3,-0.8 -0.3,-1.1 -0.8,-1.4 0.5,-0.4 1,-0.7 1.6,-0.7" />
	<path
   id="path11998"
   class="st0"
   d="m 215.4,108.2 v 0.3 c -2.3,2.8 -4.4,5.8 -7.2,8.2 2.5,-3 4.9,-5.7 7.2,-8.5" />
	<path
   id="path12002"
   class="st0"
   d="m 192.5,108.2 h 1 c 1.8,1 0,4.7 -1.3,3.1 2.4,0 2,-2.7 0.3,-3.1" />
	<path
   id="path12006"
   class="st0"
   d="m 194.2,108.6 c 0.7,-0.7 1.4,0.3 1.1,0.7 -0.7,-0.1 -0.4,-0.7 -1.1,-0.7" />
	<path
   id="path12010"
   class="st0"
   d="m 213.4,109.6 c -0.3,-0.3 -0.7,-0.3 -1.1,-1 0.5,-0.7 1.1,0.3 1.1,1" />
	<path
   id="path12014"
   class="st0"
   d="m 198.4,108.6 c 0.7,-0.3 2,0 2,0.7 0.8,1.1 -0.3,2.4 -1,2.8 -1.7,0.2 -3.5,-2.5 -1,-3.5 z m 1.6,0.6 c -0.9,-0.6 -2,-0.4 -2.8,0.3 0,0.8 0.4,1.6 1.1,2.1 1.4,0 2.1,-1 1.7,-2.4" />
	<path
   id="path12018"
   class="st0"
   d="m 212.3,109.2 c 0.8,1.8 -0.3,2.8 -1.7,2.4 -2.7,-0.3 -0.6,-5.1 1.7,-2.4 z m -1,2.1 c 0.7,-0.3 1,-1 0.7,-1.7 -0.3,-0.7 -1,-1 -1.7,-0.7 -1.4,0.7 0,2.7 1,2.4" />
	<path
   id="path12022"
   class="st0"
   d="m 93.9,108.9 c 2.1,-1 0.4,3.4 2.1,3.4 0.7,-0.3 0.3,-1.3 1,-1.7 2.8,0.3 7.2,0.3 9.3,-1.7 0.7,0.2 1.3,0.7 1.7,1.4 -0.3,0.7 -1,1 -1.7,2 -3.4,-0.6 -6.9,-0.1 -10,1.4 -0.5,-0.8 -1.2,-1.4 -2,-1.7 -0.3,-1 -0.4,-2.1 -0.4,-3.1" />
	<path
   id="path12026"
   class="st0"
   d="m 200.8,108.9 c 0.3,-0.7 0.7,0.3 1,0.7 -0.4,0.4 -0.7,-0.7 -1,-0.7" />
	<path
   id="path12030"
   class="st0"
   d="m 205.5,108.9 c 3.8,0.7 -1.3,5.2 -2.4,2.1 0,-1.4 0.8,-1.8 1.1,-2.4 0.7,0.7 -0.8,0.7 -0.8,2.1 0.4,2.7 4.9,-0.1 2.1,-1.8" />
	<path
   id="path12034"
   class="st0"
   d="m 206.2,113 c -0.3,-0.3 -0.7,0.8 -1,1.1 0.7,1 1.8,1.3 2.1,2.7 -1.1,-0.8 -1.4,-1.8 -2.1,-2.4 -1,0.3 -1.8,1.7 -2.4,2.4 -0.7,-0.3 0.7,-1.8 1.4,-2.1 1.5,-2.2 3.2,-4.3 5.1,-6.2 -0.7,1.4 -1.7,2.1 -2.3,3.4 2.8,-1.3 4.1,3.4 1,3.7 -1.1,0 -1.9,-0.9 -1.9,-1.9 -0.1,-0.2 0,-0.4 0.1,-0.7 z m 1.7,2.4 c 0.9,-0.1 1.6,-1 1.4,-1.9 -0.1,-0.5 -0.3,-0.9 -0.8,-1.2 -2.7,-0.3 -2.7,3.1 -0.6,3.1" />
	<path
   id="path12038"
   class="st0"
   d="m 203.1,108.9 c -2.3,2.7 -4.1,5.5 -6.8,7.6 2.1,-2.5 4.5,-5.9 6.8,-7.6" />
	<path
   id="path12042"
   class="st0"
   d="m 207.3,108.9 c 0.3,-0.3 0.7,0.3 0.7,0.7 -0.7,0 -0.4,-0.7 -0.7,-0.7" />
	<path
   id="path12046"
   class="st0"
   d="m 238.7,110.3 c 0.3,0.7 -0.3,0.7 -0.3,1 -1,-0.3 -1,-1 -1.8,-1.3 0.5,-1.8 1.8,0 2.1,0.3" />
	<path
   id="path12050"
   class="st0"
   d="m 236,110.6 c -1,3.1 -6.8,0 -8.9,2 -0.8,-0.2 -1.5,-0.7 -2,-1.3 0.3,-1 1,-1 1.7,-1.3 1.9,0.4 3.9,0.5 5.8,0.3 0.5,-0.3 0.9,-0.7 1.3,-1.1 1.1,0 1.4,1.4 2.1,1.4" />
	<path
   id="path12054"
   class="st0"
   d="m 195.9,110.3 c 0.9,0.9 1.7,2 2.4,3.1 -0.6,-1.1 -2,-2.1 -2.4,-3.1" />
	<path
   id="path12058"
   class="st0"
   d="m 202.1,110.6 c 1,0.8 1.9,1.7 2.8,2.8 -1,0 -2.1,-1.8 -2.8,-2.8" />
	<path
   id="path12062"
   class="st0"
   d="m 208.3,110.6 c 1.4,0.3 1.4,1.7 2.4,2.3 -0.7,0.1 -1.8,-1.6 -2.4,-2.3" />
	<path
   id="path12066"
   class="st0"
   d="m 196.9,112.3 c 0.8,0.9 0.7,2.2 -0.2,3 0,0 -0.1,0.1 -0.1,0.1 -0.7,0 -1.4,-0.2 -2,-0.7 -0.7,-1.7 0.7,-3.4 2.3,-2.4 z m -1,2.7 c 1.3,-0.3 1.8,-3.4 -0.7,-2.4 -1.7,0.8 -0.3,2.4 0.7,2.4" />
	<path
   id="path12070"
   class="st0"
   d="m 200.4,112.6 c 0.8,-0.7 2,-0.6 2.7,0.2 0.2,0.2 0.3,0.4 0.4,0.6 1,3.1 -4.5,3.1 -3.1,-0.8 z m 1.7,2.8 c 1.3,0 1.8,-3.4 -0.7,-2.8 -1.7,0.4 -0.6,3.1 0.7,2.8" />
	<path
   id="path12074"
   class="st0"
   d="m 153.8,112.3 c 0,0.7 0.7,1.1 0.7,2.1 -2.3,0.3 -4.4,0 -6.5,0.3 -1.3,-3.4 3.4,-2.1 5.8,-2.4" />
	<path
   id="path12078"
   class="st0"
   d="m 192.2,112.3 c 0.3,0 0.3,0.3 0.3,0.7 h -0.3 v -0.7" />
	<path
   id="path12082"
   class="st0"
   d="m 186,112.6 c -0.3,0.8 0,1.8 -0.3,2.1 -2.8,0 -5.2,0.3 -7.2,0.3 -1.1,-3.7 4.4,-2 7.5,-2.4" />
	<path
   id="path12086"
   class="st0"
   d="m 106.3,113.4 c 0.7,0.1 1.4,0.3 2,0.7 0,1 -1.3,1 -1,2.4 -2.4,-0.8 -6.5,-0.4 -7.9,1.3 0.8,2.1 6.9,1.3 7.6,-0.7 0.8,0.4 1.6,0.7 2.4,1 -0.4,1 -1.4,1.4 -1.4,2.4 -2.1,-0.7 -7.2,-0.3 -7.5,2.1 -1.1,0 -1.7,-0.8 -2.4,-0.8 0.3,-1.3 1.7,-1.7 1.7,-2.8 -0.3,-1 -1.3,-1.3 -2.3,-1.7 0.6,-1.1 1.3,-2.1 2,-3.1 2.4,0.5 5.8,0.8 6.8,-0.8" />
	<path
   id="path12090"
   class="st0"
   d="m 235.3,115 c -0.3,0.7 -1.4,1 -1.8,1.8 0.3,1 1.1,1.3 1.8,2 -0.7,0.8 -1.4,1.1 -2.1,1.8 -2,-0.7 -4.1,-0.9 -6.2,-0.7 -0.7,-1.4 -2,-2.1 -2.8,-3.1 0.6,-1 1.5,-1.8 2.4,-2.4 2.1,0 5.5,1 6.8,-0.3 0.9,-0.1 1.5,0.3 1.9,0.9 z m -9.6,2.8 c 2,0.3 5.8,1.3 7.5,0 0,-2.5 -7.1,-2.8 -7.5,0" />
	<path
   id="path12094"
   class="st0"
   d="m 193.5,114.1 c 0.7,0.7 1.4,1.7 2.1,2.4 -1,0 -1.7,-1.5 -2.1,-2.4" />
	<path
   id="path12098"
   class="st0"
   d="m 199,114.4 c 1,0 1.8,1.3 2.4,2.1 -1.1,0.3 -1.4,-1.5 -2.4,-2.1" />
	<path
   id="path12102"
   class="st0"
   d="m 153.2,115.4 c 0.7,1.8 0,4.5 0.3,6.8 -1,-1.3 -0.3,-5.1 -0.3,-6.8" />
	<path
   id="path12106"
   class="st0"
   d="m 153.8,115.4 c 0.3,0 0.3,0.3 0.7,0.3 -0.3,2.1 0,3.4 0,6.5 -0.7,-2 -0.3,-4.4 -0.7,-6.8" />
	<path
   id="path12110"
   class="st0"
   d="m 193.9,116.5 c -0.4,-0.5 -1,-0.8 -1.7,-0.8 0.3,-0.7 2,-0.3 1.7,0.8" />
	<path
   id="path12114"
   class="st0"
   d="m 131.6,115.7 c -0.3,0.3 -0.3,0.3 0,1.1 -1.4,0.3 -1.4,-0.3 -2.1,0.3 -0.7,-0.3 0.7,-0.7 0,-1.1 0.7,-0.3 1.8,0 2.1,-0.3" />
	<path
   id="path12118"
   class="st0"
   d="m 212.8,116.5 c -1.1,0 -2.4,-0.4 -3.5,0.3 0.4,-1.4 2.7,-1.4 3.5,-0.3" />
	<path
   id="path12122"
   class="st0"
   d="m 178.5,115.7 c 0.7,0 0.3,0.8 0.3,1.1 0.8,0 0,-1.1 0.8,-1.1 0,2.1 0.3,4.2 0.3,6.5 -0.8,-1.3 -0.3,-3.4 -0.8,-4.7 -0.3,0.7 0.4,3.7 -0.3,4.7 0,-2.7 -0.3,-3.7 -0.3,-6.5" />
	<path
   id="path12126"
   class="st0"
   d="m 200,116.5 c 0,0.3 -1.7,-0.8 -2.8,0.3 0.3,-0.8 1.3,-1.2 2.1,-0.9 0.3,0.1 0.5,0.3 0.7,0.6" />
	<path
   id="path12130"
   class="st0"
   d="m 206.2,116.8 c -0.3,-0.3 -1.7,-1.1 -2.3,0 -0.8,-1.1 2.3,-1.4 2.3,0" />
	<path
   id="path12134"
   class="st0"
   d="m 108.3,121.9 c 0.8,0.1 1.6,0.5 2.1,1.1 0,1 -1,1.3 -0.7,2.8 -2.4,0.7 -5.2,0.7 -6.5,2.3 -1.4,-0.3 -2.7,-1 -3.8,-2 0.3,-1.4 1.4,-1.8 1.8,-3.1 0.7,0 1,0.7 1.7,1 -0.9,0.5 -1.4,1.4 -1.3,2.4 2.2,-0.4 4.4,-1 6.5,-1.8 0.6,-0.7 0.8,-1.8 0.2,-2.7" />
	<path
   id="path12138"
   class="st0"
   d="m 186,123.3 c 1,2.7 -3,1.7 -4.4,1.7 -9.2,-0.3 -24,0 -34.2,-0.3 0,-0.3 -0.3,-1.3 0.3,-1.3 11.3,-0.4 26.4,-0.7 38.3,-0.1" />
	<path
   id="path12142"
   class="st0"
   d="m 106.3,123.6 c 0.3,0.3 -0.8,1 -1.4,1 0.3,-0.6 1,-0.3 1.4,-1" />
	<path
   id="path12146"
   class="st0"
   d="m 125.4,125.3 c 0.3,0 0.7,0.8 1.3,0.4 0.3,0.7 -0.7,0.3 -0.3,1 -0.3,-0.3 -0.7,-1 -1.3,-0.7 0,-0.3 0.3,-0.3 0.3,-0.7" />
	<path
   id="path12150"
   class="st0"
   d="m 150.4,126.4 c -0.8,0.8 -1.7,1.5 -2.8,2 -0.3,-0.9 -0.4,-1.8 -0.3,-2.7 1,-0.4 2.8,-0.4 3.1,0.7" />
	<path
   id="path12154"
   class="st0"
   d="m 164.1,125.7 c -2.8,0.7 -7.9,0 -10.6,0.7 v -0.7 c 3.5,-0.4 7.1,-0.4 10.6,0" />
	<path
   id="path12158"
   class="st0"
   d="m 169.6,125.7 h 5.2 c 1.8,0 3.8,-0.8 4.4,0.3 -2.3,-0.3 -6.5,0.7 -9.2,0 -0.4,0 -0.4,0 -0.4,-0.3" />
	<path
   id="path12162"
   class="st0"
   d="m 231.2,128 c 0.7,0.3 0.7,1.1 1,1.8 -0.7,0.3 -1.4,0.3 -2.1,0.7 0,1 0.7,1.3 1.1,2.1 -0.7,0 -1.5,0.2 -2.1,0.7 0,-0.5 -0.3,-1.1 -0.7,-1.4 0,-0.7 1,-0.3 1.3,-1.3 -1.7,-1 -4.4,-3.1 -7.2,-2.1 -0.3,-0.7 -1.1,-0.7 -1.1,-1.7 0.8,-0.3 1.4,-0.7 2.1,-1 1.7,1 4.1,1.7 6.2,2.7 0.8,0.2 0.8,-0.5 1.5,-0.5" />
	<path
   id="path12166"
   class="st0"
   d="m 152.5,125.7 c -0.3,1 -1.4,1.7 -2.4,2.3 -0.7,0.7 -1.8,2.1 -2.8,1.8 1.4,-1.8 3.2,-3.2 5.2,-4.1" />
	<path
   id="path12170"
   class="st0"
   d="m 179.9,125.7 c 2.4,1 4.7,2.3 5.8,4.7 -2.1,-1.3 -4.5,-2.7 -5.8,-4.7" />
	<path
   id="path12174"
   class="st0"
   d="m 185.7,128.4 c -1.4,0.3 -2.4,-1.3 -3.4,-2 1.3,-1.8 4.7,0 3.4,2" />
	<path
   id="path12178"
   class="st0"
   d="m 214.8,126 c 0.7,-0.3 1.4,0.7 1.8,1.3 -0.8,-0.3 -1.2,-1 -1.8,-1.3" />
	<path
   id="path12182"
   class="st0"
   d="m 209.7,126.4 c 0.3,-0.3 1,0.3 1,1 -0.7,-0.4 -0.7,-1 -1,-1" />
	<path
   id="path12186"
   class="st0"
   d="m 194.6,126.4 c -0.4,0.4 -0.7,0.9 -1.1,1.3 0,-1 0.4,-1.3 1.1,-1.3" />
	<path
   id="path12190"
   class="st0"
   d="m 201.8,126.4 c 2.1,-0.3 2.8,2.8 1,3.1 -2,0.6 -3.4,-2.8 -1,-3.1 z m -1,1.6 c 0.1,0.7 0.8,1.3 1.5,1.2 0.6,-0.1 1.1,-0.6 1.2,-1.2 -0.4,-1.6 -2.7,-1.6 -2.7,0" />
	<path
   id="path12194"
   class="st0"
   d="m 208.6,129.4 c -1.3,0 -2.4,-0.8 -2.4,-1.4 0,-3.7 6.1,-0.3 2.4,1.4 z m 0.7,-1.7 c 0,-1 -1,-1 -1.3,-1 -3.5,0.7 1.7,4.4 1.3,1" />
	<path
   id="path12198"
   class="st0"
   d="m 197.3,126.4 c 0.8,0 1.1,0.7 1.4,1 -0.3,0.3 -1,-0.4 -1.4,-1" />
	<path
   id="path12202"
   class="st0"
   d="m 203.9,126.7 c 0.3,-0.7 1,0.3 1,0.7 -0.4,-0.4 -0.7,-0.7 -1,-0.7" />
	<path
   id="path12206"
   class="st0"
   d="m 195.3,126.7 c 3.1,-0.7 2.7,3.4 0.7,3.4 -1.8,0 -2.5,-2.7 -0.7,-3.4 z m 1,2.7 c 0.6,-0.2 1,-0.8 0.8,-1.4 -0.1,-0.3 -0.2,-0.5 -0.5,-0.7 -2.7,-1.3 -2.7,2.8 -0.3,2.1" />
	<path
   id="path12210"
   class="st0"
   d="m 182.3,128.4 c -0.4,0.7 -0.4,1.7 0,2.4 -1.1,0 -1.4,0.7 -2.4,0.7 -0.8,-0.3 0,-0.7 0,-1.3 -0.2,0 -0.3,-0.1 -0.3,-0.3 0,0 0,0 0,0 0,-1.1 1.3,-1.4 1,-2.4 0.7,-0.1 1.3,0.2 1.7,0.9 z m -1.7,0.7 h 0.7 c 0,-0.8 -0.3,-0.8 -0.7,-0.8 0,0.4 -0.4,0.4 0,0.8" />
	<path
   id="path12214"
   class="st0"
   d="m 156.9,129.1 c -0.7,0 -0.3,1 -0.7,1.3 h -2.1 c 0,-1 -0.7,-1.3 -0.7,-2.4 3.7,0 6.8,-0.7 10.2,0 0,0.7 0.4,1.4 0.4,2.1 -0.4,0.3 -0.8,0.3 -1.4,0 0.3,-0.7 0,-0.7 0,-1.8 -1,0 -1,1.4 -1.3,1.8 -1.1,0 -2.4,0.3 -3.4,0 -0.7,0 0.1,-1 -1,-1" />
	<path
   id="path12218"
   class="st0"
   d="m 169.9,128 c 3.5,-0.3 6.6,0.3 9.7,0.3 -0.8,1.1 -0.4,1.8 -0.8,2.8 -1.3,0.1 -2.5,0 -3.8,-0.3 -0.7,0.3 -0.3,1.8 -1,2.1 -0.9,-0.2 -1.6,-0.9 -1.7,-1.8 h 1.4 c 0.3,-0.3 0.3,-1 0.7,-1.3 0.7,-0.3 0,0.7 0.3,0.3 0.3,0 0.3,-0.7 0,-0.7 -0.7,0 -0.7,0.7 -1,1 -1.4,0.3 -3.4,1 -4.5,0 0.1,-0.8 0.4,-1.6 0.7,-2.4" />
	<path
   id="path12222"
   class="st0"
   d="m 199.4,128.4 c 1,0.8 1.8,1.7 2.4,2.8 -1.1,-0.7 -1.9,-1.7 -2.4,-2.8" />
	<path
   id="path12226"
   class="st0"
   d="m 205.5,128.4 c 1,0.8 1.4,1.8 2.4,2.4 -1,0 -1.7,-1.4 -2.4,-2.4" />
	<path
   id="path12230"
   class="st0"
   d="m 211.7,128.4 c 0.7,0.8 1.4,1.4 2.1,2.1 -0.7,-0.1 -1.8,-1.1 -2.1,-2.1" />
	<path
   id="path12234"
   class="st0"
   d="m 150.8,128.4 c 0.1,0.6 0,1.2 -0.3,1.8 -0.7,0 -1.3,0.7 -1.8,0.3 0.2,-1.1 1,-1.9 2.1,-2.1" />
	<path
   id="path12238"
   class="st0"
   d="m 184.6,130.4 c -0.8,0.2 -1.6,0.1 -2.3,-0.3 -0.7,-2.1 2,-1 2.3,0.3" />
	<path
   id="path12242"
   class="st0"
   d="m 157.6,130.4 h 1.7 c -0.2,0.9 -0.9,1.5 -1.7,1.8 -1,0 -0.7,-1.4 -0.7,-2.8 0.7,0 0.7,0.7 0.7,1" />
	<path
   id="path12246"
   class="st0"
   d="m 205.2,129.8 c 2.4,0 1.8,3.7 -0.3,3.4 -1.5,0 -2.1,-3.1 0.3,-3.4 z m -1,2.4 c 0.7,0.7 1.7,0.7 2,0 0.7,-2.8 -3.1,-2.1 -2,0" />
	<path
   id="path12250"
   class="st0"
   d="m 200.8,131.4 c 0,0.7 -0.4,1.4 -1.1,1.8 -5.1,0.3 -0.7,-5.8 1.1,-1.8 z m -3.1,0 c 0,0.8 0.6,1.4 1.4,1.5 0.5,0 1,-0.3 1.3,-0.7 0,-2.1 -2.7,-2.1 -2.7,-0.8" />
	<path
   id="path12254"
   class="st0"
   d="m 230.8,134.2 c 0.4,1.1 1.1,1.7 1.4,2.7 -0.3,1 -0.3,2.4 -1.4,2.8 -1,-1 0.8,-2.1 0.4,-3.8 -0.8,0.3 -1.1,0.3 -1.4,0.7 -2.8,-1.3 -4.8,-3.4 -8.9,-3.7 -0.4,-0.7 -0.7,-1.4 -1,-2.1 0.6,0 1.2,-0.2 1.7,-0.7 2.7,1.7 5.5,3.4 9.2,4.1" />
	<path
   id="path12258"
   class="st0"
   d="m 168.9,131.1 c -1.3,-0.3 -2.7,-0.3 -4.1,0 0.3,-1.3 3.8,-1 4.1,0" />
	<path
   id="path12262"
   class="st0"
   d="m 149.1,130.4 h 1 c 0.3,0.7 -0.7,0.3 -1,0.3 v -0.3" />
	<path
   id="path12266"
   class="st0"
   d="m 153.2,131.1 h 0.7 c 0.1,0.6 0.3,1.2 0.3,1.8 -0.7,0 -1,-0.7 -1,-1.8" />
	<path
   id="path12270"
   class="st0"
   d="m 170.3,131.1 h 0.7 c -0.1,0.6 -0.2,1.2 -0.3,1.8 -0.5,-0.5 -0.7,-1.2 -0.4,-1.8" />
	<path
   id="path12274"
   class="st0"
   d="m 166.8,131.4 c 0.4,3.1 0,5.5 0,8.6 h -1 c -0.7,-2.4 -0.7,-6.8 0.3,-8.6 h 0.7" />
	<path
   id="path12278"
   class="st0"
   d="m 179.1,131.4 h 0.4 c 0,0.8 -0.8,1.4 -1.1,1.1 0.4,-0.3 0.4,-0.7 0.7,-1.1" />
	<path
   id="path12282"
   class="st0"
   d="m 149.1,131.4 h 0.3 c -0.1,2.8 0.1,5.5 0.7,8.2 h -1 c -1.1,-2.6 -1.1,-5.5 0,-8.2" />
	<path
   id="path12286"
   class="st0"
   d="m 156.2,133.2 c 0.7,0 -0.7,0 -0.3,-1 0.7,-0.4 1.3,0 1.7,0.7 -0.5,1.3 -1.3,2.5 -2.3,3.4 -1.8,0 -2.4,-1.4 -3.8,-1.8 -0.7,1.8 0.3,3.8 0.8,5.2 -0.4,0.3 -0.8,0 -1.4,0 -0.7,-2.1 -1.3,-5.8 -0.3,-8.2 2.1,0.3 2.4,2.1 3.7,2.4 0.9,-0.4 1.3,-1.4 1.9,-0.7" />
	<path
   id="path12290"
   class="st0"
   d="m 168.6,131.8 c 0.3,2.4 0.7,6.6 0,8.6 -2.1,-0.7 -1,-5.8 -1,-8.2 0,-0.4 0.3,-0.4 0.3,-0.8 0.3,0 0.3,0.4 0.7,0.4" />
	<path
   id="path12294"
   class="st0"
   d="m 165.1,131.8 c 0.3,3.1 -0.3,5.2 -0.3,8.2 h -1.1 c 0,-2.1 -0.6,-7.1 1.4,-8.2" />
	<path
   id="path12298"
   class="st0"
   d="m 169.2,131.8 c 1.4,0.8 1.1,2.4 1.1,4.5 0.3,1.7 0.7,3.4 0.3,4.1 -1.4,-0.7 -1.4,-4.1 -1.4,-6.2 v -2.4" />
	<path
   id="path12302"
   class="st0"
   d="m 183,132.2 c 1,2 0,5.7 -0.3,7.8 h -1.4 c 0,-2.1 1.4,-5.5 0.7,-7.8 0.3,0.3 0.7,-0.4 1,0" />
	<path
   id="path12306"
   class="st0"
   d="m 183.6,132.2 h 0.4 c 1.8,0.7 2.1,7.8 -0.3,7.8 0,-2.1 0.6,-5.1 -0.1,-7.8" />
	<path
   id="path12310"
   class="st0"
   d="m 202.4,132.5 c 0.7,0 1.8,1.3 2.1,2 -0.8,-0.6 -1.5,-1.2 -2.1,-2" />
	<path
   id="path12314"
   class="st0"
   d="m 195.9,132.5 c 1.3,0.3 1.8,1.3 2.4,2 -0.6,0.4 -1.7,-1 -2.4,-2" />
	<path
   id="path12318"
   class="st0"
   d="m 185.4,132.5 c 0.3,0.3 0.3,0.7 0.3,1.3 -0.3,0.1 -0.3,-0.6 -0.3,-1.3" />
	<path
   id="path12322"
   class="st0"
   d="m 227.4,136.9 c 0,1 0.8,1 0.8,2.1 -0.8,0.3 -1.4,0.3 -2.1,0.7 -2.4,-1 -4.1,-3.8 -7.6,-3.4 0,-1 -0.7,-1 -0.3,-2.1 0.8,0 1.1,-0.3 2.1,-0.7 1.3,1.8 3.4,2.8 5.8,3.8 0.6,0 0.6,-0.4 1.3,-0.4" />
	<path
   id="path12326"
   class="st0"
   d="m 112.8,134.5 c 0.9,0.2 1.8,0.2 2.8,0 0,1.1 -0.4,2.1 -0.4,3.1 -2.3,0.9 -4.4,2.1 -6.5,3.4 0,0.8 0.8,1.1 0.3,1.4 -0.9,0.1 -1.8,0 -2.7,-0.3 0,-1.1 0.7,-1.7 0.7,-2.7 -0.3,-0.3 -1.8,0 -2.4,-0.3 -0.3,-0.8 -0.1,-1.7 0.3,-2.4 0.6,0.1 1.2,0.2 1.7,0.3 v 1.8 c 2.8,0.3 4.8,-1.4 6.5,-2.8 0.4,-0.7 -0.3,-1.2 -0.3,-1.5" />
	<path
   id="path12330"
   class="st0"
   d="m 152.2,135.9 c 1.3,0.3 1.3,2.8 2,4.1 h -1 c -0.7,-1 -1.4,-3.1 -1,-4.1" />
	<path
   id="path12334"
   class="st0"
   d="m 147.3,136.3 c 0.4,1.1 0.6,2.2 0.7,3.4 -1,-0.3 -0.3,-2.4 -0.7,-3.4" />
	<path
   id="path12338"
   class="st0"
   d="m 178.5,137.6 c 0,2.4 -2.8,3.4 -3.8,1.4 -0.3,0.3 0,0.7 0,1.3 -0.7,0 -1.8,0 -2.1,-0.3 0,-1.1 0.4,-2.2 1.1,-3.1 2,0 3.4,0 4.8,0.7" />
	<path
   id="path12342"
   class="st0"
   d="m 159,137.6 c 0.3,0.8 0.4,1.6 0.3,2.4 -0.3,0.3 -0.7,-0.3 -1.3,0 v -0.7 c -0.8,0.3 -1.8,1 -2.7,0.3 0,-0.7 -0.8,-1 -0.8,-1.8 1.4,-0.5 3,-0.6 4.5,-0.2" />
	<path
   id="path12346"
   class="st0"
   d="m 163.1,137.6 c 0,1.1 -0.3,1.4 -0.3,2.4 -0.7,0 -1.3,0.3 -2.1,0 0,-1.3 0.7,-3.1 2.4,-2.4" />
	<path
   id="path12350"
   class="st0"
   d="m 225.7,142.1 c 0.3,1.7 1.3,2.3 2,3.8 -1,-0.3 -1.3,-1 -2.3,-1.4 -0.7,0.4 -1.1,1.4 -1.4,1.8 -0.7,-0.3 -0.7,-1.3 0,-2.1 -2,-1.7 -4.1,-4.7 -7.5,-3.7 -0.4,-0.6 -0.6,-1.3 -0.7,-2 0.8,-0.4 1.7,-0.7 2.7,-0.8 0.8,0 1.4,1.1 2.1,1.8 1.6,0.9 3.4,1.8 5.1,2.6" />
	<path
   id="path12354"
   class="st0"
   d="m 117.9,138.7 c -0.4,0.9 -0.6,1.8 -0.7,2.8 0.3,0.7 1.8,0.3 2.8,0.3 -0.3,1 -0.4,2 -0.3,3.1 -2.1,0.9 -4,2.3 -5.5,4.1 -0.3,0.7 0.7,0.7 0.3,1 h -2.8 c 0,-1 0.3,-1.3 0.3,-2.8 2.4,-0.7 4.8,-2 5.8,-4.7 -1.3,-1.4 -5.8,2 -6.8,3.7 -0.8,0 -1.6,-0.1 -2.4,-0.3 0,-0.7 0.3,-1.4 0.3,-2.1 2.4,0 4.2,-2.3 6.6,-3.4 0,-0.7 -0.4,-1 0,-1.3 0.8,-0.4 1.6,-0.5 2.4,-0.4" />
	<path
   id="path12358"
   class="st0"
   d="m 171.3,139 c 0.3,0 0.3,0.7 0.3,1 -0.3,0 -0.3,-0.7 -0.3,-1" />
	<path
   id="path12362"
   class="st0"
   d="m 185.7,141 v 4.2 c -1.1,-1.8 -1.8,-3.4 -4.2,-3.1 -2,0.3 -1.3,2.8 -3.4,3.4 -0.7,-2.4 -3.1,-4.8 -5.5,-2.4 -0.7,0.7 -1,2.1 -1.7,2.4 -1.1,0 -0.7,-1.1 -1.8,-2.1 -0.7,-1 -1.9,-1.6 -3.1,-1.3 -2,0.3 -1.7,3.4 -4.1,3.1 -1,-4.2 -5.8,-3.7 -6.8,0 h -0.8 c -1,-1.8 -1.7,-3.7 -3.8,-3.7 -1.7,0.3 -2.1,2.3 -3.1,3.4 -0.3,-1.4 -0.3,-2.8 0,-4.2 v -0.3 c 12.6,0.3 27,0.6 38.3,0.6" />
	<path
   id="path12366"
   class="st0"
   d="m 229.8,142.8 c -0.3,0 -0.7,0.3 -1,0.3 -0.4,-0.7 -0.6,-1.6 -0.7,-2.4 1.1,-1 1.1,1.4 1.7,2.1" />
	<path
   id="path12370"
   class="st0"
   d="m 218.2,142.8 v 1.7 c 3.4,-1.3 4.5,3.1 3.1,5.8 h -3.4 c -2,-1.3 -3.4,-4.1 -6.2,-4.1 -0.3,-0.7 -0.7,-1.8 -0.3,-2.1 0.7,0.3 2.1,0.3 2.4,-0.3 v -2.3 c 2,-0.8 2.7,0.9 4.4,1.3 z m -0.7,4.7 c 0.3,-2 -0.3,-4.4 -3.1,-4.4 -1.3,2.1 1.8,3.4 3.1,4.4 z m 0.7,1.1 c 1.2,0.1 2.3,-0.1 3.4,-0.3 0.4,-3.5 -4.8,-3.5 -3.4,0.3" />
	<path
   id="path12374"
   class="st0"
   d="m 141.2,145.8 c 0.1,0.9 0,1.9 -0.3,2.7 -2.8,0 -6.2,0.3 -8.2,0 0.3,-1.1 0,-2.4 0.3,-2.7 2.7,-0.3 5.4,-0.3 8.2,0" />
	<path
   id="path12378"
   class="st0"
   d="m 142.2,145.8 c 16.5,0 32.5,0 48.9,0.3 -0.3,1 0,2.1 -0.3,2.8 -8.1,0 -17.1,0.3 -24.6,0 -8.2,0 -15.7,0 -24,-0.3 -0.3,-0.8 -0.4,-1.6 -0.3,-2.4 -0.1,-0.2 0.1,-0.4 0.3,-0.4 -0.1,0 -0.1,0 0,0" />
	<path
   id="path12382"
   class="st0"
   d="m 191.9,146.2 h 8.1 c 0.3,0.7 0,1.8 0,2.8 -2.7,0.3 -5.4,0.3 -8.1,0 v -2.8" />
	<path
   id="path12386"
   class="st0"
   d="m 211.7,148.9 c 2.8,1 4.2,3.7 6.8,5.2 -0.3,1 0.4,2.3 0.4,3 -1.1,-0.3 -1.1,-1.3 -2.1,-1.3 -1.4,0 -1,1 -2.1,1.3 0,-0.7 -0.3,-1 -0.3,-1.3 0,-0.7 0.7,-0.7 1,-1.3 -1,-2.1 -3.1,-3.1 -4.4,-4.8 -1,-0.3 -1.3,0 -2.4,0 0,-0.7 -0.3,-1 -0.3,-2.1 1.7,-0.4 3.7,-1.1 3.4,1.3" />
	<path
   id="path12390"
   class="st0"
   d="m 138.1,149.9 c 1.5,-0.3 2.9,-0.4 4.4,-0.3 h 3.1 c 2.8,3.1 6.6,5.2 7.2,10.2 -3.9,-4.6 -9,-8 -14.7,-9.9" />
	<path
   id="path12394"
   class="st0"
   d="m 147,149.6 h 4.1 c 0.8,0.6 1.3,1.5 1.4,2.4 -0.8,-0.1 -1.6,0 -2.4,0.3 0.3,1 1.3,2.1 1.7,3.1 -0.9,-0.8 -1.7,-1.7 -2.3,-2.8 -0.8,-0.9 -1.8,-2 -2.5,-3" />
	<path
   id="path12398"
   class="st0"
   d="m 152.8,149.6 c 1.3,0 2.1,0.3 3.4,0.3 0.3,0.7 1,1.1 0.7,2.1 h -3.1 c -0.5,-0.7 -0.8,-1.5 -1,-2.4" />
	<path
   id="path12402"
   class="st0"
   d="m 157.6,149.9 h 3.5 c 0.6,0.5 0.9,1.3 0.7,2.1 h -3.4 c -0.1,-0.7 -1.2,-1.4 -0.8,-2.1" />
	<path
   id="path12406"
   class="st0"
   d="m 166.1,149.9 c 0,0.7 0.3,1.7 0,2.1 -1.7,0.3 -4.1,0 -3.8,-2.1 1.1,0 2.8,-0.3 3.8,0" />
	<path
   id="path12410"
   class="st0"
   d="m 171,150.2 c 0,0.8 -0.3,1.1 -0.3,1.8 h -3.4 c 0,-0.7 -0.4,-1.4 0,-2.1 1.2,0 2.4,0.1 3.7,0.3" />
	<path
   id="path12414"
   class="st0"
   d="m 175.4,150.2 c 0,0.8 -0.3,1.1 -0.3,1.8 -1,0 -2.7,0.3 -3.4,0 -0.7,-2.4 2,-2.1 3.7,-1.8" />
	<path
   id="path12418"
   class="st0"
   d="m 179.9,149.9 c 0,0.8 -0.3,1.5 -0.8,2.1 -1,0.3 -2.1,0.3 -3.1,0 -0.6,-2.4 1.8,-2.1 3.9,-2.1" />
	<path
   id="path12422"
   class="st0"
   d="m 192.9,150.2 c -2.6,1.2 -5.1,2.6 -7.5,4.2 -1.1,1 -2.1,1.7 -3.1,2.7 -1,0.8 -1.9,1.8 -2.7,2.8 1.4,-3.8 3.9,-7.2 7.2,-9.6 2,-0.1 4.3,-0.4 6.1,-0.1" />
	<path
   id="path12426"
   class="st0"
   d="m 127.9,150.6 c -0.2,1 -0.2,2.1 0,3.1 -1.9,1.2 -3.5,2.7 -4.8,4.5 -0.3,0.7 0.3,0.7 0.3,1 -0.7,0.3 -1.7,0 -2.8,0.3 0,-1 0.3,-1.7 0,-2.8 2.4,-0.7 3.4,-2.7 4.8,-4.4 0,-0.7 -0.3,-0.7 -0.3,-1.3 1,0 1.7,-0.4 2.8,-0.4" />
	<path
   id="path12430"
   class="st0"
   d="m 204.9,150.6 h 3.1 c 1,2.4 2.1,4.8 5.2,5.5 0.3,0.7 0.4,1.4 0.3,2.1 -0.9,-0.1 -1.9,0 -2.8,0.3 -1.4,-2.1 -2.4,-5.5 -5.5,-5.2 0,-1 -0.3,-1.6 -0.3,-2.7" />
	<path
   id="path12434"
   class="st0"
   d="m 203.4,151.7 c 1.1,1.3 0.8,3.4 1.1,5.1 1,0 1.3,-0.3 2,-0.3 0.8,1.1 1.1,2.1 2.1,2.7 -0.5,1.1 -0.6,2.3 -0.3,3.4 -1.8,0 -2.8,0.7 -3.1,2.4 -0.3,-1 -0.3,-2.8 -0.7,-3.8 -0.3,-0.7 -1.8,-0.3 -2.8,0 -0.6,-1.3 -1.3,-2.5 -2.1,-3.7 0.4,-1 0.6,-2 0.3,-3.1 2.2,-0.3 3.2,-1.1 3.5,-2.7 z m -2.6,4.7 c 1,1.1 1.3,3.7 3.8,2.7 -0.3,-1.7 0,-4.4 -1.1,-5.5 -0.4,1.8 -1.7,2.1 -2.7,2.8 z m 4.4,6.2 c 0.7,-0.3 1,-1.3 2.1,-1.3 0,-1.4 -0.8,-1.7 -1.4,-2.4 -2.1,-0.4 -0.7,2.7 -0.7,3.7" />
	<path
   id="path12438"
   class="st0"
   d="m 132.6,156.1 c -1.5,1.8 -2.8,3.6 -4.1,5.5 0,0.3 0,0.7 0.7,0.7 -0.3,1 -1.3,1.4 -2.4,1.8 -0.3,-0.8 -0.3,-1.8 -0.7,-2.4 -0.7,-0.7 -1.3,0.3 -2.4,0.3 0,-0.7 -0.1,-1.4 -0.3,-2.1 0.6,-0.4 1.3,-0.6 2.1,-0.7 0.2,0.5 0.4,1 0.7,1.4 1.4,-1.4 5.2,-4.2 2.7,-6.2 1,-0.3 1.8,-0.3 2.4,-1.1 0.6,0.8 0.3,2.4 1.3,2.8" />
	<path
   id="path12442"
   class="st0"
   d="m 158.7,157.1 c 0,0.4 -0.3,0.4 -0.3,1.1 -0.8,-0.3 -0.8,0.7 -1.1,1.3 -0.7,0 -1.7,0.3 -1.7,1.1 0,0.8 0.7,0.7 1.7,0.7 0,0.7 0.3,1 0.3,1.7 0.8,-0.3 0.8,0 0.8,0 0.7,-0.3 0.7,-1 0.7,-1.7 1,0 1.3,-0.3 1.3,-0.7 0,-0.4 -1,-0.8 -1.3,-0.8 0,-0.7 -0.3,-1 -0.3,-1.7 1.3,0 1.3,1.3 2,2 1.1,0 0.7,-1 1.1,-1.3 0.5,0 1,-0.3 1.3,-0.7 -0.1,-0.7 -0.7,-1.1 -1.3,-1.1 0,-0.7 0,-1.3 -0.7,-1.7 -0.7,-0.4 -0.8,0.7 -1.1,1.3 -0.8,0.2 -0.8,0.5 -1.4,0.5 0,-1 1,-1.3 1.7,-2 0,-0.3 -0.3,-0.3 -0.7,-0.7 h 2.1 c -0.7,0.7 0,1.3 1,1.3 0,0.7 0.3,1.5 0.7,2.1 0,1.7 -1.7,1.7 -2,2.8 0.5,0.4 1.1,0.7 1.7,1 -0.3,0.7 0.3,0.7 0.3,1.3 -0.4,-0.5 -1.1,-0.6 -1.7,-0.3 0,-1 0,-1.3 -0.7,-1.7 -1.1,0.7 -1.1,2.3 -3.1,2.3 -0.5,-0.7 -1.3,-1.1 -2.1,-1 0.1,-0.6 -0.2,-1.2 -0.7,-1.7 0,-0.8 0.7,-1.1 0.7,-2.1 0.7,0 1.7,-0.3 1.7,-1 0,-0.4 -0.7,-0.8 -1.3,-0.8 0,-0.5 -0.3,-1 -0.7,-1.3 -0.7,0.1 -1.1,0.7 -1.1,1.3 0,0 0,0 0,0 -0.7,-0.3 -0.3,-0.7 -0.7,-0.7 0,-0.7 1.4,-0.7 0.7,-1.7 0.5,-0.3 1.1,-0.1 1.4,0.3 0.3,0.3 0.3,0.7 1,0.7 0.7,0.9 0.3,2.3 1.8,1.9" />
	<path
   id="path12446"
   class="st0"
   d="m 176.8,154.4 h 0.7 c 0.3,0.7 0,1 -0.7,1 0.3,-0.7 0,-0.7 0,-1" />
	<path
   id="path12450"
   class="st0"
   d="m 136.8,158.5 c -1.8,2.4 -3.5,4.9 -4.8,7.5 0,0.3 0.3,0.8 0.3,1.4 -1.3,0 -1.7,1 -2.8,1 -1.3,0 -2.4,-1.7 -3.8,-2.1 1.3,-1.3 2.8,1.1 4.4,1.1 0.4,-1.4 -1,-2.1 -2,-2.4 0.3,-1 1.3,-0.7 2.4,-0.3 0.7,-2.4 5.4,-5.2 2.3,-7.6 1.1,-0.3 1.4,-1 2.4,-1 0.4,0.9 0.9,1.8 1.6,2.4" />
	<path
   id="path12454"
   class="st0"
   d="m 195.3,157.5 c 1,1.3 0,3.4 0.7,4.7 0.7,0 1,-0.3 1.8,0 1.7,1.4 1.7,3.1 1,6.2 -1.4,0.3 -3.1,0.3 -3.8,1.4 -0.3,-0.4 0.3,-2.4 0,-3.8 -0.7,-0.4 -1.6,-0.6 -2.4,-0.3 -0.7,-2.8 -1,-3.4 -0.7,-6.5 1.3,0.2 2.7,-0.5 3.4,-1.7 z m -2.4,3.4 c 0.3,1.3 0.3,3.1 2.1,3.1 0.3,-1.4 1,-4.2 0,-5.2 -0.1,1.3 -1.5,1.3 -2.1,2.1 z m 2.4,6.8 c 0.7,0.3 1.7,-0.7 3.1,-0.7 0.3,-0.8 -0.7,-2.1 -1.1,-3.1 h -2 c 0.3,1.4 0,2.4 0,3.8" />
	<path
   id="path12458"
   class="st0"
   d="m 198.7,160.9 c -3.4,-2.4 2.7,-2.7 0,0" />
	<path
   id="path12462"
   class="st0"
   d="m 213.8,159.8 c 0.3,0.3 0.3,1.1 0.3,2.1 h -1.3 c 0,-0.7 -0.4,-1.3 -0.4,-2.1 0.7,0 0.7,-0.3 1.4,0" />
	<path
   id="path12466"
   class="st0"
   d="m 121.3,160.9 v 1 c -0.7,-0.3 -1,0 -2,0 v -1 c 0.7,0 1.3,-0.3 2,0" />
	<path
   id="path12470"
   class="st0"
   d="m 138.1,160.9 c 0.6,0.4 0.7,1.2 0.2,1.8 -0.1,0.1 -0.2,0.2 -0.2,0.2 -2.4,0.7 -2.4,-2.8 0,-2" />
	<path
   id="path12474"
   class="st0"
   d="m 183.3,162.6 c 1.3,0 2.1,1.1 3.1,1.7 0.3,2.4 0,5.5 2.1,6.2 0,0.8 -0.2,1.7 -0.8,2.3 -0.7,-0.7 -1.7,-1 -2.3,-2 0,-2.8 -0.4,-5.2 -2.1,-6.2 -2.1,1 -1,6.8 0.7,7.5 0,1.1 -0.7,1.4 -0.7,2.4 -0.7,-0.3 -1.4,-1 -2.1,-1.3 -0.2,-2.3 -0.6,-4.7 -1.3,-6.9 -0.8,-0.3 -0.8,0 -1.4,0 0.3,-1 1.1,-1.7 1.4,-2.7 1,0 1,1 2,1.3 0.7,-0.6 1.2,-1.4 1.4,-2.3" />
	<path
   id="path12478"
   class="st0"
   d="m 153.2,164.6 c -0.3,2.4 -1.4,4.1 -1,6.5 -1.1,0.3 -2.8,0.3 -3.1,1.3 0.6,1.1 1.4,2 2.3,2.8 0,1.1 -1,1.1 -1,2.1 -2.1,-2.1 -3.1,-4.5 -5.2,-6.5 0.9,-2.1 1.4,-4.3 1.4,-6.5 1.2,-0.4 2.4,-1 3.4,-1.7 1.1,0.6 1.4,1.7 3.2,2 z m -4.5,0 c 0,2.4 -2.7,6.2 0.4,7.1 1.7,-0.7 1,-4.1 2,-5.8 -0.7,-0.9 -1.3,-2.7 -2.4,-1.3" />
	<path
   id="path12482"
   class="st0"
   d="m 143.3,162.9 c 0.7,1.8 -1.4,6.2 0.7,7.6 -1,0.3 -1,1.3 -2.1,1.3 -0.7,-0.7 -0.7,-1.7 -1,-2 0.7,-1.5 1,-3.2 0.7,-4.8 -1.7,0.3 -3.4,2.4 -2.4,4.4 -0.7,0 -1.3,0.8 -2,0.4 -0.3,-0.8 -0.3,-2.1 -0.8,-2.8 3,-0.7 4.8,-2.7 6.9,-4.1" />
	<path
   id="path12486"
   class="st0"
   d="m 202.8,163.6 c 0,2 -2.8,1.3 -1.7,-0.8 1,-0.2 1.3,0.1 1.7,0.8" />
	<path
   id="path12490"
   class="st0"
   d="m 135.4,165 c 0,0.7 0.7,0.7 0.3,1.3 -1.3,2.4 -3.4,-2.3 -0.3,-1.3" />
	<path
   id="path12494"
   class="st0"
   d="m 175.7,173.2 h 0.3 c 0.4,0.3 0,1 0,1.3 -0.3,-0.3 -0.9,-0.6 -0.3,-1.3" />
	<path
   id="path12498"
   class="st0"
   d="m 156.2,173.6 c 1,0.3 2.1,1 1,2 -0.5,-0.6 -0.8,-1.3 -1,-2" />
	<path
   id="path12502"
   class="st0"
   d="m 142.9,51.1 c 0,0.7 -0.4,1 -0.4,1.7 -1,0 -1.3,-1 -2.3,-0.7 -1.1,-2.8 -1.8,-5.5 -3.4,-7.2 0.3,-0.7 0.6,-1.4 1,-2.1 2.1,0 1.7,3.7 2.8,4.5 0.3,1.1 0.6,3.5 2.3,3.8" />
	<path
   id="path12506"
   class="st0"
   d="m 168.9,58 c 0.7,-0.3 -0.3,-0.7 0,-1.3 3.8,0.7 12,-0.4 17.5,0.7 -0.3,1 -2.1,0.3 -2.7,0.3 0.7,1.3 2.4,2.8 2.7,4.7 0.3,-1.7 0.4,-3.4 0.3,-5.1 2.1,1 4.1,3.1 6.5,4.7 2.1,1.8 4.1,3.8 6.5,5.2 -2,-0.3 -7.8,-2.1 -8.9,0.7 -0.3,1.1 0,2.7 0,4.5 -0.3,4.7 -0.3,12.2 -0.3,16.7 -1.3,-0.7 -2,-1.8 -3.4,-2.4 3.1,2.7 6.8,5.2 9.9,7.9 0.3,-1.8 0,-6.2 0.3,-8.9 1.1,3.1 0,7.2 0.8,9.6 0,-0.7 1.3,0 1,-1 0.3,-1.1 -1,-0.4 -1,-1.4 0,-0.4 0.3,-0.6 0.7,-0.7 0.3,-0.3 -0.7,-0.7 -0.3,-1 h 2 c -0.3,1 0,1.3 0.8,1.3 0,1 -1.1,1 -1.4,1.3 0,1.1 1.1,0.8 1.1,1.4 0.3,1 -0.8,0.3 -1.1,1 0,1.1 1.8,0.7 1.4,2.4 -4.8,-3.8 -10,-7.2 -14.4,-11 0.1,-0.6 0,-1.2 -0.3,-1.7 -1,0 -2.4,1.3 -3.4,0.3 -0.7,0.7 -1.8,1.3 -2.4,2.1 1,0 1.7,-1.4 2.7,-1.7 -0.7,2.4 -2.1,3.7 -3.1,5.5 H 179 c 2.4,2.1 3.5,-3.4 4.8,-4.8 0.3,5.8 -2.4,13.4 -2.8,19.6 1.8,-4.5 2.8,-11 3.4,-16.8 0.3,-1 -0.3,-3.1 1.4,-3.4 0,7.9 -0.3,16.4 -0.3,23.6 -0.8,0.7 -1.7,1 -2.1,2 -1,-0.7 -2.7,-0.7 -4.2,-1 0,-4.1 -0.3,-8.9 -2,-11.7 0.7,-2.3 -1.4,-3.4 -2.1,-5.1 0.9,-1.3 1.7,-2.7 2.4,-4.2 0.7,0.3 2.1,1.8 2.7,0.3 -1,0.3 -2.1,-0.3 -2.4,-1.3 0,-1.8 4.5,-2.4 5.2,-4.1 -1.8,0.7 -2.8,2 -4.8,2.8 0,-2.8 3.8,-1.4 4.2,-3.8 -1.4,-0.7 -2.7,0 -4.5,0 0.3,3.8 -1,8.6 -3.8,9.6 0.7,-1.7 2.8,-2.3 2.8,-5.1 -1.1,1.7 -1.4,4.1 -3.8,4.4 -0.7,-0.7 -0.7,-2 -2,-2.4 1.3,-0.7 3.1,-1.3 3.1,-3.4 1,0.3 2.4,0 2.8,1.4 2,-8.2 -5.5,-15.1 -14.7,-12.3 -3.7,2.1 -6.8,5.8 -6.2,11.2 0.7,2.8 2.1,4.2 3.4,6.2 -2.7,-1 -4.1,-4.7 -4.1,-8.8 0.3,-6.5 7.2,-11.3 14,-10 4,1.2 7.2,4.3 8.6,8.2 h 8.2 c 0,0.7 -1.4,0.7 0,0.7 -0.3,1.1 -1.4,1.4 -2.4,1.8 1,0.3 1.7,-1.1 2.7,-1.1 -0.3,-2.7 0.7,-5.4 0,-7.8 -0.7,-2.1 -2.4,-3.1 -4.1,-4.1 2,-1.4 4.8,-3.1 4.1,-6.2 -1,3.4 -3.7,4.8 -7.9,5.4 3.4,1.8 6.9,3.5 7.6,8.2 h -1.4 c -2.3,-7.5 -13.3,-6.5 -17.1,-12.7 -1.7,4.1 -6.5,4.4 -9.2,7.5 -0.3,0.8 0,1.8 -0.3,2.1 -1.1,0.3 -1.4,-0.7 -2.1,-0.7 -3.1,-1 -4.8,2.4 -6.2,4.1 0.3,-3.1 4.1,-6.2 7.2,-4.1 1.8,-5.2 10.3,-4.5 9.9,-10.6 h 2.1 c 1,2.1 2.9,3.7 5.2,4.4 -0.7,-1 -2.7,-3.1 -2.7,-5.2 -2.1,0 -6.2,0.3 -8.6,0 2.7,-1 5.8,-0.3 8.6,-0.3 -0.1,-1 0,-2.1 0.3,-3.1 0,0 -2.4,1.4 -2.4,0 -0.3,0 -0.3,0.7 -1.3,0.3 0.5,0.2 0.7,0.7 0.5,1.2 0,0.1 -0.1,0.2 -0.1,0.2 -0.7,0 -1,0 -1,-0.7 -0.4,1 -0.8,0 -1.8,0.7 -0.7,0 -0.7,-1.1 -1,-1.4 -1.1,0 -2.1,0.3 -2.4,-0.3 1.1,2.9 0.4,6.1 -1.8,8.2 2.1,-0.7 3.4,-2.4 4.5,-4.1 h 1.3 c -2.4,8.1 -15.4,6 -17.8,14.6 h -1 c -0.3,-4.8 3.7,-6.5 7.6,-8.2 -3.7,-0.5 -6.7,-3 -7.9,-6.5 -1.4,3.4 1.3,5.1 3.4,6.5 -2.7,1.7 -4.4,4.4 -3.7,8.8 0.7,0.4 3.4,-0.7 4.1,0 -0.7,1.1 -2.1,0.4 -3.7,0.8 -0.3,1.3 0,3.4 0,4.8 -1.4,0.7 -2.4,1.7 -3.8,2.4 -0.3,-4.1 0,-9.2 0,-14.4 -0.3,-2.8 0,-7.2 -1.4,-8.5 -3.1,-2.1 -7.5,-0.3 -10.2,1.3 4.4,-3.7 9.2,-7.2 14,-10.9 4.8,0.3 11,-0.4 16.2,0 0.3,1.3 -1.4,1 -2.4,1 1,1.2 1.9,2.4 2.8,3.7 -0.3,-1.3 1.7,-1.7 2.4,-2.7 1.7,0 2.3,1.1 4.1,0 -3.1,0 -4.4,-0.7 -6.5,-1 v -1 c 1.3,0 1.7,0.7 2.1,0.7 0.3,0.7 0.7,-0.7 1.3,-0.7 0.5,1.7 2.9,-0.4 2.9,1.7 z M 147,63.5 c 0.3,-2.8 2.1,-4.2 3.7,-5.8 H 147 c -0.3,1.6 -0.7,4.3 0,5.8 z m 22.6,-4.9 c 0.8,1.1 2.4,1.1 2.1,2.7 0.6,-1.4 1.6,-2.7 2.8,-3.7 -2.5,0 -3.9,0 -4.9,1 z m 5.4,4.2 c 1.8,-0.4 3.1,0.7 4.5,0.3 3.4,-0.8 2.3,-5.5 -0.8,-5.5 -3.4,0 -6.8,3.7 -6.2,7.2 1.2,-1 1.2,-1.7 2.5,-2 z M 154.5,58 c -1,0.3 -2,1.8 -1.7,2.8 0,3.1 3.4,1.7 5.5,2.8 2,0.7 1.3,2 2.3,3.7 1.8,-4.2 -1.3,-10.3 -6.1,-9.3 z m -6.5,6.4 c 0,2.1 2.4,5.2 4.5,3.4 3.1,-2.8 -3.1,-6.5 -0.3,-9.6 -2.5,1.2 -4.1,3.6 -4.2,6.2 z m 31.5,1.5 c -0.4,2 1,4.1 3.4,3.4 3.8,-1.1 3.1,-10 -0.7,-10.3 2.1,3 -1.3,5.4 -2.7,6.9 z m -0.4,3 c -1.3,-1.8 -0.3,-4.8 -2.3,-5.2 -2.1,-0.7 -3.4,0.7 -3.8,2.4 0,3.1 3.8,5.1 7.9,4.1 -0.7,-0.6 -1,-0.6 -1.8,-1.3 z M 158,64.4 c -4.5,-0.3 -3.1,5.2 -7.2,5.2 3.4,3.4 12.3,-0.7 7.2,-5.2 z m 22.9,35.2 c 0.1,-2.4 0.5,-4.8 1,-7.2 -1,1.8 -2,4.9 -1,7.2 z m -0.7,7.3 c -1.1,-4.5 0.3,-11.3 -3.1,-13.7 2.5,3.4 1.7,9.5 3.1,13.7 z m 1,0.6 c 1.4,0.7 0.7,3.1 1.8,4.1 0.3,-1 -1.1,-2.1 -0.3,-3.1 1,0.3 1,1.4 1.7,2.1 0.6,-1.7 -2.1,-3.7 -3.2,-3.1" />
	<path
   id="path12510"
   class="st0"
   d="m 190.4,145.2 c -1.3,0.3 -2.7,0.3 -4.1,0 0,-19.1 0,-36.9 0.3,-56.1 4.4,2.4 8.2,5.8 12.3,8.6 0.7,1.3 1.8,2 2.1,3.8 0.7,-4.5 0,-11.3 0.3,-15.4 0.7,4.4 0,10.2 0.3,15.1 1.3,-0.8 0.3,-3.1 1.7,-3.7 0.8,0 0,0.7 0,0.7 1.1,0 1.1,-0.7 1.1,-1.7 -0.3,-0.7 -1.4,0.3 -1.8,-0.7 0,-1 1.8,0 1.8,-1 0.3,-1.1 -0.3,-0.8 -0.7,-1.4 0.3,-1 1.3,-2.8 0.3,-4.1 -0.8,0.3 -1.8,0.3 -2.1,-0.7 0.3,-0.8 1,-0.8 2.1,-0.8 0,-0.3 -0.3,-0.3 -0.8,-0.3 0.8,-0.7 2.1,-0.3 2.8,-0.3 0,0.7 -0.7,0.3 -1,0.7 0.3,0.8 2.1,-0.3 2.1,0.8 0,0.7 -0.8,0.7 -1.8,1 -0.3,0.3 -0.3,0.3 -0.3,1 0.7,1.1 0,1.8 1,2.8 -0.3,0.3 -1.3,0 -1,0.7 -0.3,1.8 1.8,0.4 1.3,1.8 0.4,0.7 -0.7,0.3 -1.3,0.3 0.1,0.9 0.5,1.7 1,2.4 0.3,-0.3 -1,-1 0,-1.4 1.4,1.1 0.8,3.1 1.4,4.8 0.7,-5.5 0,-11.3 0.3,-15.7 1.3,4.4 0,9.6 0.7,15.7 0.3,-1.4 1.4,-3.4 1.4,-5.5 -0.3,-0.3 -1.4,0 -1.1,-0.7 0,-1 1.4,-0.3 1.4,-1.3 0,-0.8 -1.1,-0.4 -1.4,-1.1 0,-1.3 1.4,-0.7 0.3,-2 0.8,0 1.1,-0.4 1.1,-1.4 0,-0.7 -1.1,-0.7 -1.4,-1 0,-1.1 1.1,-1.1 0,-1.8 1.1,0 2.1,-0.3 2.7,0 -1.3,0.7 0.3,0.7 0,2.1 0,0.3 -0.3,0.3 -1,0.3 0,0.3 0,2.1 1,1.8 -1,1 0.3,1 0.3,1.7 -0.3,0.7 -1.3,0.7 -1.3,1.4 0,1 1,0.7 1.3,1 0,0.7 -0.3,1 -1.3,0.7 0,2.1 0.3,3.8 1.3,4.8 0.3,-5 0.3,-10 0,-15.1 -5.1,-0.3 -10.9,0 -16.1,0 v -1.1 c 5.8,-0.3 12.6,-0.7 18.1,0 0,1.1 -1,0.8 -1.3,1.1 0.3,5.5 0,12 0.3,17.4 -1.8,-0.7 -1.8,-2.3 -2.4,-4.1 -1.7,0.3 -1,3.4 -2.7,4.1 0.3,1.8 2.7,2.4 2.7,3.8 -2.7,-1.4 -3.7,-4.8 -5.8,-6.9 -2.1,1.8 -2.8,5.2 -5.2,6.9 1.8,-2.8 3.1,-5.5 5.2,-7.9 1,0.7 1.3,2.4 2.4,3.1 -0.3,-1.3 -1.4,-2.7 -2.1,-4.1 -1.8,1.3 -2.4,3.4 -3.7,5.1 -0.7,-1 -1.1,-2.8 -2.1,-3.7 -1,1 -1,2.7 -2.1,3.7 -0.7,-1.7 0.4,-3.1 -0.3,-5.4 0.8,1 0.3,2.7 0.8,3.8 0.6,-0.9 1.1,-2 1.3,-3.1 -1.3,-1 -7.1,-2.8 -8.2,-0.3 -0.7,1.7 -0.3,5.1 -0.3,7.2 -0.3,7.2 0,13.3 0,19.1 0.2,6.1 -0.1,14 0.2,20.5" />
	<path
   id="path12514"
   class="st0"
   d="m 154.9,98.3 c 0,-2.1 1.7,-2.1 2.7,-2.8 0.4,-1.8 -0.7,-2.1 -1.3,-3.4 0.7,0 1.8,1.7 2.4,2.4 -0.4,1.4 -1.8,3.8 -3.8,3.8" />
	<path
   id="path12522"
   class="st0"
   d="m 153.5,102.4 c 1,0.3 0.7,3.4 0.7,4.5 4.5,-2.8 7.2,2.7 11.7,2 0.7,0 1.4,-0.7 2.1,-0.3 -1,0.7 -2.2,1.1 -3.4,1 0.3,1.1 2.3,0.4 3.4,0.4 -1.4,1.7 -4.2,1.3 -5.8,0 0.3,0.7 1.7,2.3 3.1,2.3 4.4,0 7.8,-9.2 13,-4.4 2.4,4.7 -4.1,10.6 -1.3,14 -0.3,0.3 -1.1,0 -1.8,0.3 -0.3,-1 -0.7,-2 -1,-3.4 -0.3,1.1 0.3,2.8 0,3.4 H 173 c -0.3,-0.7 0,-2 0,-2.7 -1,0.3 -0.3,2 -1,2.7 -0.7,-3.1 2.4,-6.2 2.8,-9.6 -1.3,3.1 -3.4,5.8 -4.1,9.6 -0.9,-0.2 -1.8,-0.2 -2.7,0 2,-3.7 4.1,-6.8 5.8,-10.9 -2,3.8 -4.3,7.5 -6.9,10.9 h -3.1 c -1.5,-3.5 -3.3,-7 -5.4,-10.2 0.7,3 3.4,6.1 3.7,10.2 -1.4,0 -1,-1.3 -1.4,-2 -0.3,0.7 0.4,1 0,2 h -1.3 c 0,-1.3 0.7,-2.3 0,-3.4 -0.3,1.4 -0.3,2.8 -1.3,3.4 h -1.8 c 0.3,-1.3 2.1,-2.3 1.3,-4.4 -0.3,0 0,0.7 -0.3,0.7 -1,-0.3 -0.7,-1 -1,-2 -1,-2.8 -3.7,-6.5 -2.1,-9.6 -1,-0.8 -1,-3.1 -0.7,-4.5 z m 12.3,15.4 c -0.7,0 -1,-0.7 -1.7,-1 2.3,5.4 7.2,-4.8 7.5,-6.5 -1.7,2.7 -3,5.7 -5.8,7.5 z m 0,-1.8 c 1.4,-0.3 2.4,-2.7 3.1,-3.4 -1.3,0.8 -2.1,2.1 -3.4,2.8 -2.1,-1 -3.4,-3.1 -5.5,-4.4 1.4,1.3 3.4,5.5 5.8,5 z m -0.3,4.9 c 1.2,-0.5 2.1,-1.5 2.4,-2.8 -1.1,0.3 -1.4,1.4 -2.4,1.8 -2.4,-2.1 -3.7,-5.5 -6.2,-7.9 2.1,3 3.4,6.8 6.2,8.9 z m 9.6,-1.4 c 0.7,0 0.7,-1.8 0.3,-1.4 0,0.7 -0.3,0.7 -0.3,1.4" />
	<path
   id="path12526"
   class="st0"
   d="m 161.7,100.3 c 3.4,0 5.1,1.4 7.5,2.4 0,0.7 0.3,1.4 0.3,2.4 -2,-0.3 -3.4,-1.3 -4.7,-0.3 -0.6,-0.3 -1.2,-0.8 -1.4,-1.4 0,-0.7 0.3,-1 0.8,-1.7 -0.5,-1 -2.1,-0.3 -2.5,-1.4" />
	<path
   id="path12530"
   class="st0"
   d="m 139.9,117.1 c -1.2,-1.1 -2.6,-1.9 -4.2,-2.4 -0.3,0.7 1.1,1.3 1.4,2.1 -1.1,0 -1.7,-1.1 -2.1,-1.8 -0.7,0.3 -0.7,1.8 -2.1,1.8 0.3,-1.1 1.4,-0.8 1.1,-2.1 -0.8,0 -0.8,0.7 -1.7,0.7 v -0.7 c 0.3,-0.7 1.4,-0.7 2.4,-1 0,-1.7 -1,-1.4 -1.4,-2.7 -0.3,0.3 0,1.3 -0.3,1.7 -0.7,-0.3 0,-1.7 -0.7,-1.7 -0.3,0.3 -0.3,1.7 -0.7,2 -0.3,-0.3 0,-2 -0.7,-2.7 -0.7,0.7 0,2.3 -0.3,3.4 -0.4,-1.1 0,-2.7 -0.8,-3.7 -0.3,1 0,3 -0.3,4.4 -0.7,-1 -0.7,-4.1 -0.3,-5.5 2.4,-0.3 4.1,2.1 5.5,0.3 0.3,-1 -0.7,-0.7 -0.7,-1.3 0.3,-0.3 0.7,-0.7 1.3,-0.3 0.3,0.3 0.3,1 0.3,2 2.1,1.1 2.7,-1.7 4.8,-1.7 1,2.1 0.3,4.1 0.7,6.5 -0.7,-1 -0.3,-3.4 -0.7,-5.2 -0.7,1.1 -0.3,2.8 -0.3,4.5 -0.8,-0.8 0,-3.1 -0.8,-4.2 -0.7,0.8 -0.3,2.4 -0.3,3.8 -0.7,-0.8 -0.3,-2.1 -0.7,-3.1 -0.7,0.7 -0.3,1.3 -0.7,2.7 -0.7,-0.3 -0.3,-1.3 -0.3,-2.3 -1.1,0 -0.3,1 -0.7,1.7 -0.4,0.3 -0.8,0 -0.4,-0.3 -0.7,0 -0.7,0.7 -0.7,1.4 1.4,0.7 2.1,2.7 4.8,2.7 -0.3,0.4 -0.3,0.8 0.3,0.8 0.2,0.2 -1.2,-0.9 -0.7,0.2" />
	<path
   id="path12534"
   class="st0"
   d="m 227.1,124.3 c -1,0 0,0.7 -0.3,1 -0.7,0 -0.7,-0.7 -0.7,-1 1.7,-1.3 3.1,0.3 4.1,1.4 0.7,-0.4 1.8,-0.4 2.1,-1.4 -2.4,-0.3 -6.2,-2.7 -7.9,-0.3 -0.7,-0.3 -1,-1 -1.3,-1.3 0.3,-1.1 1.3,-1.4 2.1,-2.1 2,0.7 3.8,1.7 6.5,1.7 0.6,1.2 1.4,2.2 2.3,3.1 -1.1,0.8 -2.4,1.4 -3.7,1.8 -0.5,-1.9 -1.1,-3.3 -3.2,-2.9" />
	<path
   id="path12538"
   class="st0"
   d="m 179.6,161.2 c 7.8,-2.7 15.7,-6.1 21.9,-10.6 5.5,-5.4 11.3,-10.6 14.7,-18.1 -2.8,3.1 -6.9,6.2 -12,6.2 -13.7,-0.3 -14.7,-18.5 -12.3,-32.5 5.8,0.8 11.6,1.8 17.4,1.4 0.8,0 1.1,-0.7 1.8,-0.7 1.3,0 2.7,0.3 4.4,0.3 2.4,-0.3 4.5,-1.1 6.9,-1.4 0.7,-5.8 -1.1,-11.2 -2.8,-16.1 -4.3,-14.2 -14.2,-26 -27.4,-32.7 0,-0.2 -0.1,-0.3 -0.3,-0.3 0,0 0,0 0,0 l 0.3,-0.4 c 0,0 0,0.4 0.3,0.4 9.7,4.7 17.7,12.4 22.9,21.9 5.8,9.6 8.9,21.8 7.2,36.2 -1.7,11.4 -6.9,22 -14.7,30.5 -7.5,7.7 -16.8,13.8 -28.3,15.9 z M 211,135.6 c 1.7,0 1.3,-3.1 3.1,-2.7 0.5,-0.3 0.6,-0.9 0.3,-1.4 1,0.3 1.4,-1.3 1.8,-2.3 -2.1,1.8 -3.8,4 -5.2,6.4 z m 6.5,-10.6 c -8.3,0.9 -16.7,1 -25,0.3 -0.2,1.4 0.2,2.7 1,3.8 0.3,1.3 0.7,3.1 1.8,3.1 0.7,-0.8 -1.4,-1.1 -0.7,-1.8 0.7,0.3 0.7,1 1.3,1 1.8,-1.7 2.8,-3.7 4.4,-5.1 -1.4,2.3 -3.1,4.3 -5.1,6.2 0.6,1.4 1.7,2.5 3.1,3.1 3.1,-2.7 5.1,-6.5 8.1,-9.2 -2.3,3.4 -5.4,6.2 -7.8,9.6 1,-0.3 1,1 2.1,1 0.3,-0.7 -0.8,-1 -0.8,-1.7 0.3,-3.5 6.2,0.3 2.1,2 1.8,0.3 2.4,-1.3 3.1,-2.4 2.4,-3.1 4.8,-6.5 7.6,-8.8 -1.1,2 -3.1,3.4 -4.5,5.7 1.1,0.7 2.1,1.6 2.8,2.8 2.4,-3.2 5.8,-4.8 6.5,-9.6 z m 3.4,-17.4 c 0,-0.3 0,-0.3 -0.3,-0.3 -8.6,1.7 -19.5,1.3 -28.1,0.3 -1,1.7 -0.7,4.8 -0.7,6.8 1.7,-1.8 3.4,-4.4 5.1,-5.8 -0.7,1.3 -1.6,2.5 -2.7,3.4 -1,1.4 -2.7,2.4 -2.3,4.5 4.4,0.7 8.9,1 13.3,1 2.9,0.1 5.7,-0.1 8.6,-0.3 -0.3,-1.4 -2.1,-2.1 -2.1,-3.1 0.6,0.9 1.3,1.7 2.1,2.4 0.3,-0.4 1,-1.1 0.7,-1.4 -4.1,0.7 -1,-5.5 1,-2.1 0.4,-1 -1,-1 -1,-2.3 0.7,0.3 0.7,1.3 1.8,1.7 0,-0.7 0.3,-0.3 0.3,-1 -3.1,0 0.3,-4.8 2,-1.8 0,-1 -1,-1 -0.7,-1.3 0.7,0 0.7,0.3 0.7,0.7 1,-0.4 1.3,-1.1 2.3,-1.4 z m 1.4,0 c -5.5,2.4 -11.7,13.7 -2.8,17.1 1.4,-5.2 3.2,-11 2.8,-17.1 z m -5.5,3.7 c 0.3,-0.7 1,-1 1,-1.8 -1.3,-2.3 -4,1.5 -1,1.8 z m -2,3.5 c 0.3,-0.5 0.4,-1.1 0.3,-1.8 -2.8,-2.4 -3.4,3.5 -0.3,1.8 z m -22.9,3 c -0.3,0 -0.3,0 -0.3,0.3 0,2.3 0.2,4.6 0.7,6.8 8.2,0.4 16.4,0.3 24.6,-0.3 -0.7,-1.7 -3.4,-3.4 -3.1,-6.8 -6.9,0.3 -15.1,0.3 -21.9,0 z m 16,14 c -1.4,2.1 -3.1,3.5 -4.1,5.5 h 2.3 c 0.3,-0.3 -1,-1 -0.7,-1.7 0.6,0.4 1.1,1 1.4,1.7 0.7,0 1.3,0 1.7,-0.7 -2.7,0.3 -2.7,-2.8 -1,-3.1 0.9,-0.2 1.8,0.4 2,1.3 0.2,0.7 -0.1,1.4 -0.7,1.8 1.1,0 1.7,-1 2.1,-2.1 -0.9,-0.6 -1.6,-2 -3,-2.7 z m -1.4,3.5 c 0.8,1 2.1,1.3 2.8,0.3 -0.1,-0.6 -0.3,-1.2 -0.7,-1.8 -0.9,0.1 -1.8,0.6 -2.1,1.5 z m -6.1,0.4 c 0.5,0.9 1.6,1.3 2.5,0.8 0.1,0 0.2,-0.1 0.3,-0.2 1,-2.4 -2.8,-2.7 -2.8,-0.6" />
	<path
   id="path12542"
   class="st0"
   d="m 215.4,127 c 0,0.3 0.4,1.3 0,2.1 -3.7,2.3 -3.7,-4.8 0,-2.1 z m -1.3,-0.3 c -0.7,0 -0.3,0.3 -1,0.3 -1.4,4.7 4.4,0 1,-0.3" />
	<path
   id="path12546"
   class="st0"
   d="m 211.7,130.1 c 0.8,0.2 1.3,1.1 1.1,1.9 -0.2,0.6 -0.8,1.1 -1.4,1.1 -2.5,0.4 -2.1,-4.4 0.3,-3 z m -1.7,1.7 c 0.7,2.8 3.7,-1 1.7,-1.7 -0.7,-0.2 -1.4,0.2 -1.7,0.9 -0.1,0.2 -0.1,0.5 0,0.8" />
	<path
   id="path12550"
   class="st0"
   d="m 185,131.8 c -1.3,-0.3 -3.4,-0.3 -4.4,0.4 0.3,0.3 1,0 1,0.3 0,2.6 -0.5,5.1 -1.3,7.5 -0.5,0.3 -1.2,0.3 -1.7,0 0.7,-2.1 1.7,-4.1 1.7,-6.8 -0.7,0 -0.3,1 -0.3,1.7 -1.8,2.8 -5.2,0.8 -5.8,-1.3 0.3,-0.7 0.7,-1.8 1.7,-1.3 0.3,0.7 -0.7,0.7 -0.7,1.3 0.3,-0.3 2.1,-0.3 2.4,0.7 2.4,-1 3.1,-3.4 6.8,-3.4 -0.1,0.5 0.6,0.2 0.6,0.9" />
	<path
   id="path12554"
   class="st0"
   d="m 182.3,152.7 c -0.4,-0.7 -1.4,-0.3 -2.1,-0.3 0,-2.8 2.1,-2.1 4.8,-2.1 -1,1.4 -2.7,2.4 -3.4,4.2 -0.4,-0.4 0.3,-1.2 0.7,-1.8" />
	<path
   id="path12558"
   class="st0"
   d="m 180.6,153.7 c -2.4,4.8 -2.1,12 -3.1,17.8 -0.7,4.8 -3.1,8.2 -8.2,9.2 -4.4,0.7 -10.6,-0.3 -12,-4.1 0.8,-0.3 1.8,1.4 2.4,1.7 0.3,-0.3 1,-0.3 1,-1 0,-0.7 -1,-0.7 -1.7,-1 0.3,-0.5 0.1,-1.1 -0.3,-1.4 -1.1,0 -1.1,1 -1.8,1.4 -3.4,-5.8 -1.7,-17.1 -5.2,-23 9.6,-0.4 19.3,-0.3 28.9,0.4 z m -27.4,0.4 c 0.7,3 1.7,5.7 2.1,9.6 h 8.9 c 0,-3.8 -0.4,-5.8 -0.4,-9.6 -2.7,0 -7.2,-0.4 -10.6,0 z m 13,11.5 c -1.7,0.3 -3.4,0.3 -5.1,0 -1.9,-0.1 -3.9,0 -5.8,0.3 1.9,0.3 3.9,0.4 5.8,0.3 h 5.1 c 0,4.2 0,9.2 0.3,13.7 0.3,-4.2 -0.3,-9.6 0.3,-13.7 2.8,-0.3 5.8,0 10.3,-0.3 -1.7,-0.3 -3.4,-0.4 -5.2,-0.3 -1.7,0.3 -3.5,0.3 -5.2,0 -0.7,-4.1 0.4,-7.8 -0.7,-11.6 0.1,3.5 0.5,8.2 0.2,11.6 z m 6.5,-8.5 c 0.1,-0.6 -0.2,-1.3 -0.7,-1.7 -0.7,0 -1,0.7 -1,1.7 -0.7,0 -0.7,0.4 -1.4,0.8 0.3,-1.4 1.4,-2.1 1.8,-3.1 -0.7,-0.5 -1.6,-0.7 -2.4,-0.7 0.3,3 -0.3,7.1 0.3,9.6 h 4.2 c 1.5,0.1 3,-0.1 4.4,-0.4 0.3,-3.1 0.7,-5.7 0.3,-7.8 0.7,0 0.3,0.3 0.7,0.7 0,-0.7 0.8,-1 0.8,-1.7 -2.7,-0.3 -5.5,-0.3 -8.2,0 0,0.3 0.3,0 0.7,0 0.3,0 0.7,-0.3 1,0.3 -0.3,0 -1,0 -0.7,0.7 0.7,0.7 1.7,0.7 1.7,2.1 1.6,0.5 2.9,1.6 3.8,3.1 -1,0.7 -1.3,2 -2.8,2.3 0.3,-1.3 1.4,-1.7 2.1,-2.3 0,-1.1 -1.1,-0.8 -1.7,-1.1 0,-0.7 0,-1 -0.7,-1 -1,-0.3 -0.7,1 -1,1.3 -0.7,-0.1 -1.3,0.4 -1.4,1.1 0,0.1 0,0.2 0,0.3 0.3,0 0.7,0.3 1.4,0.3 0,0.3 0.7,1 0.3,1.3 -1.1,-0.3 -1.4,-1.3 -2.4,-1.7 -0.7,0.3 -1,2 -2.1,1.7 0.3,-0.9 0.9,-1.6 1.8,-2 -0.3,-1.1 -1.4,-1.4 -1.8,-2.7 1.4,0 1.1,1.7 2.4,2.4 0.3,-1.4 1.8,-1.8 2.1,-2.8 0,-0.3 -0.3,-0.3 -0.7,-0.3 -0.4,0 -0.9,0 -0.8,-0.4 z m -3.8,11.3 c 0.3,4.4 0,7.9 0,11.3 2.4,0.3 8.9,-3.8 5.8,-5.5 -0.7,0 -0.3,1 -0.7,1.3 -0.9,-0.1 -1.7,0.3 -2.1,1.1 0.3,0.7 1.8,0.3 1.8,1 -0.3,0 -0.8,0.7 -1.1,0.3 0.1,-0.5 -0.3,-0.9 -0.8,-1 -0.1,0 -0.2,0 -0.2,0 -0.3,1 -1,1.3 -2.1,1.7 0.3,-1 1.4,-1.3 1.8,-2.3 -1,-0.4 -1.7,-1.4 -1.8,-2.4 1.1,0.3 1.4,1.7 2.4,2 0.3,-1 1.8,-1.3 2.4,-2.3 -1,-0.3 -1.4,-1.4 -2.4,-2.1 -0.4,1 -1.3,1.8 -2.4,2.1 0,-1.4 1.4,-1.4 2.4,-2.1 -0.3,-1 -2.1,-1 -2.1,-2.4 1.4,0 1.4,1.4 2.4,1.8 0.7,-1 1.7,-1.8 2.7,-2.4 0.4,0.6 1,1.1 1.8,1.4 0,0.7 0,1 -0.8,1 -0.7,-0.3 -0.3,-1.8 -1.3,-1.8 -0.4,1 -1.1,1.7 -2.1,2.1 0,1 0.8,1 1.4,1 0,0.6 0.4,1 0.9,1.1 0,0 0.1,0 0.1,0 0.7,0 0.3,-1.1 1,-1.1 0.4,0 0,0.3 0.8,0.3 0,-1.3 0.7,-3.1 0,-4.4 -1.3,0.3 -2.5,0.4 -3.8,0.3 z m -6.1,2.7 v 0 c 0,0.3 0,0.3 -0.3,0.3 -0.3,-0.3 -0.7,-0.3 -0.7,0.3 0.7,0.3 1.7,1.4 1.3,2.1 -0.7,0 -0.7,-0.3 -1,-1.1 -0.3,-0.3 -0.3,-1 -1,-1 -0.4,0.3 -0.4,1.4 -0.8,1.8 -0.6,-0.1 -1.3,0.2 -1.7,0.7 0,1 1.3,0.7 1.7,1.3 0,0.6 0.3,1.1 0.8,1.4 1,0 1,-1.1 1,-1.7 h 0.7 c 0.3,-0.3 0.7,-0.3 0.7,0 0,1.1 -1.3,1.4 -1.7,2.1 0.3,1 1.3,1 1.7,2.1 -1.3,0 -1,-1.4 -2.3,-1.8 -0.3,0.4 -0.5,0.8 -0.4,1.3 0.9,0.6 2,0.9 3.1,0.8 0.7,-3.8 0,-7.2 0,-11.3 H 156 c -1,1.4 0,3.1 0,4.8 0.3,0 0.3,0 0.7,-0.4 0,-0.3 0,-0.3 0.3,-0.3 1.1,0.3 0.7,1.4 1.1,1.8 1.1,-0.7 2,-1.7 2.7,-2.8 -0.7,-0.7 -1.7,-0.7 -1.7,-2.1 h -0.7 c -0.3,0.8 -1.1,2.1 -2.1,1.8 0.7,-1 1,-2.1 2.4,-2.4 1,0.7 1.7,1.8 2.7,2.4 0.7,-0.7 0.7,-1.8 1.7,-1.8 0,0.4 -0.7,1.4 -0.3,1.7" />
	<path
   id="path12562"
   class="st0"
   d="m 176.8,155.4 c 0,0 -0.3,1 0,1.3 -0.8,0 -1.1,0.3 -1.4,0.3 v -1 c 0.3,-0.3 1.1,-0.3 1.4,-0.6" />
	<path
   id="path12566"
   class="st0"
   d="m 141.9,159.5 c 0,0.3 0.7,0 1.1,0.3 0,1.1 -1.1,1.1 -1.8,0.8 -0.3,-3.1 3.4,-2.4 3.4,0 0,-1.4 -2.4,-2.8 -2.7,-1.1" />
	<path
   id="path12570"
   class="st0"
   d="m 163.7,44.6 c 1.1,0.3 0.4,-1.1 0.7,-1.1 1.3,-0.3 4.4,-1.3 4.4,0.4 0.7,0.3 0.3,-0.8 1,-0.4 0.4,1.1 -0.7,0.8 -1,1.4 0.3,1.7 -0.3,2.4 -1,3.4 -2.7,0.4 -3,-2 -4.1,-3.7 z m 1.4,-0.3 c 0,0.3 1.3,0.3 1,0 0,-0.8 -0.6,-0.3 -1,0 z m 1.7,2.3 c 0.7,-0.1 1.1,-0.7 1.1,-1.3 0,-0.2 -0.1,-0.5 -0.3,-0.7 0.3,-0.3 0.6,-0.4 1,-0.3 -0.3,-0.3 -0.6,-0.4 -1,-0.3 -0.4,0.6 0,2.3 -0.8,2.6 z m 0.8,0.4 c -0.3,0.3 -0.3,0 -1.1,0 -0.4,0.7 1.4,0.7 1.1,0" />
	<path
   id="path12574"
   class="st0"
   d="m 176.1,44 c 0.8,-3.8 6.9,-3.5 6.9,0.3 -1.1,-1.4 -4.8,-1.4 -6.2,-0.3 1,0 2.8,-0.4 4.1,0 0.7,0 0.7,0.7 1.4,0.7 -1.1,1.7 -1.4,4.7 -3.5,4.4 -2.1,-0.3 -1.3,-3.8 -2.7,-5.1 z m 2.7,1 c 0.8,-0.3 1.4,0.3 1.8,0 -0.5,-0.5 -1.2,-0.5 -1.8,0 z m -0.7,0 c -0.3,-0.3 -0.7,-0.3 -0.7,0 0.7,0 0,0.7 -0.3,0.7 0.7,0 0.7,0.7 0.7,1.4" />
	<path
   id="path12578"
   class="st0"
   d="m 156.9,44 c 0,2 -0.3,5.4 -2.4,5.4 -2,0.3 -3.8,-3.7 -2,-5.8 1.5,-0.3 3,-0.1 4.4,0.4 z m -4.1,0.7 c 0,0.3 1.3,0.3 1.7,0 -0.5,-0.4 -1.2,-0.4 -1.7,0 z m 2.4,2.4 c 0.7,-0.4 0.3,-1.4 1.3,-1.1 0.3,-1 -0.7,-0.3 -0.7,-0.7 0,-0.7 0.7,0 0.7,-0.7 -1.3,-0.6 -0.9,1.4 -1.3,2.5 z m -1.7,-1.5 c 0.2,0.2 0.5,0.2 0.7,0 0,0 0,0 0,0 0.3,-0.6 -0.7,-0.6 -0.7,0 z m 2.1,2.1 c -0.3,-0.3 -1.1,0 -1.4,0 0,0.3 1.4,0.3 1.4,0" />
	<path
   id="path12582"
   class="st0"
   d="m 162.7,86 c 2.4,-1.4 5.5,-1 7.9,0.3 0.3,3.1 -1.4,8.2 -4.5,7.5 -2.7,-0.3 -3.7,-4.1 -3.4,-7.8 z m 1,1 c 0.7,-0.3 1.4,-0.3 2.1,0 0,-0.7 -0.7,0 -0.3,-0.7 -1,0 -1.4,0 -1.8,0.7 z m 3.9,0.7 c 0.3,-1 1.7,-0.3 2,-0.7 -0.4,-1 -2.8,-0.3 -2,0.7 z m -3.9,0.7 c 0.7,-0.3 0.4,0.7 1.1,0.3 0.4,0 0.6,-0.3 0.7,-0.7 -0.7,0.4 -1.4,-0.3 -1.8,0.4 z m 4.2,0 c 0.3,0 0.7,0.3 1,0.7 0,-0.7 0.3,-0.7 0.7,-0.7 -0.5,-0.3 -1.2,-0.3 -1.7,0 z m -1.8,2.3 h 1.4 c 0,-0.3 0,-1 -0.3,-1 0.4,1 -0.7,0.7 -1.1,1 z m 1.8,1.5 c 0,-0.7 -2.1,-0.3 -2.4,-0.3 0.6,0.3 1.7,-0.1 2.4,0.3" />
	<path
   id="path12586"
   class="st0"
   d="m 130.2,86.7 c 0,0.3 -0.7,0.3 -0.7,1 0.3,0.4 1.8,0 1.8,0.8 -0.3,1 -1.8,0.7 -2.4,1 v 1 c 0,0.8 1,0.3 1,0.3 -0.3,1.1 0.3,1.4 0,2.4 0.8,-0.7 -0.3,-1.7 0.8,-2.4 0.3,0.4 -0.4,0.4 -0.4,1.1 0.7,0.2 1.2,0.9 1.1,1.7 -0.7,0.3 -1.4,0.3 -2.1,0 -0.3,0.3 0,1.1 0,1.1 0.3,0.7 1.4,0.3 1.4,1 0,0.7 -0.8,0.7 -1.1,0.7 v 1.4 c 0.7,0 0.7,-0.3 1.1,-0.3 0,0.7 0,1 0.7,1.3 -1.1,1 -0.3,2.1 0,3.1 -1.1,-1 -1.4,-2.8 -2.1,-4.4 -1.3,1 -1.7,3 -2.8,4.1 -1,-0.7 1.4,-1.8 0,-2.4 0.3,-0.7 0.7,-0.7 0.7,-1.3 0.4,0 0.4,0.3 0.8,0.3 0.4,-0.3 0.7,-0.9 0.7,-1.4 0,-0.7 -1,-0.3 -1.4,-0.3 0,-0.3 0,-0.3 -0.3,-0.3 0,-0.3 0.3,-0.3 0.3,-0.7 h 1.1 c 0.7,0 0.3,-1 0.3,-1.8 -0.7,-0.3 -1.8,0.8 -2.4,0 v -1.3 c 0.3,0 0.3,-0.3 1,-0.3 0,-0.3 -0.7,-0.7 -0.3,-1.1 0.8,0.4 1.1,0 1.8,0 0.7,-2.3 -1.8,-1.3 -2.4,-2 0,-1.1 1.4,-0.7 1.8,-1.4 0,-0.3 -0.8,-0.3 -1.1,-0.7 0.8,-0.6 2,-0.6 3.1,-0.2" />
	<path
   id="path12590"
   class="st0"
   d="m 151.8,115.4 c 0.4,0.3 0.4,1.4 0.4,2.4 -0.8,-0.3 -1.1,0 -1.4,0.7 0,0.3 0.7,2.1 -0.7,2.1 1.7,0.7 0.3,-1.8 2.1,-1.4 0.3,1.4 -0.8,2.1 -1.1,3.1 h -2 c -1.4,-1 -2.1,-4.4 -1.1,-6.5 1.1,-0.4 2.8,-0.1 3.8,-0.4 z m -3.1,2.7 c 0,-0.3 1.1,0 1.4,0 0,-1 -2.1,-0.6 -1.4,0 z m 0.4,1 c 0.7,0 1,0 1,-0.3 -0.3,-0.7 -1.4,-0.7 -1,0.3 z m 1.7,2.4 c 0.3,-0.7 -1,-0.7 -1,-0.3 0.3,0.3 0.6,0 1,0.3" />
	<path
   id="path12594"
   class="st0"
   d="m 186,115.7 c 0,3.4 -0.3,7.6 -4.5,6.5 -1,-1.3 -1,-4.1 -1,-6.5 1.4,-0.7 3.1,0 5.5,0 z m -4.2,2.4 c -0.3,0.3 -1,0 -1,0.7 1.4,-0.3 0.7,2.8 2.1,1.4 -1.4,0 -0.3,-1.4 -0.7,-2.4 -0.4,-0.3 -0.9,-0.4 -1.4,-0.3 0.1,0.6 1.1,0 1,0.6 z m 1.4,0 c 0.3,0 0.7,-0.3 1.3,0 0.1,-0.6 -1.2,-0.6 -1.3,0 z m 0,0.7 c 0,0.2 0.1,0.3 0.3,0.3 0,0 0,0 0,0 0.3,0 0.7,0 0.7,-0.7 -0.3,0 -0.7,0.1 -1,0.4 z m -1,2.4 h 1 c 0.4,-0.3 -1.4,-0.3 -1,0" />
	<path
   id="path12598"
   class="st0"
   d="m 168.6,125.7 c 0.8,1.2 0.9,2.7 0.3,4.1 -1,0.3 -2.8,0 -3.8,0.3 -1.7,-2.4 0,-5.8 3.5,-4.4 z m 0,3.4 c 0.3,-0.4 0.7,-1.1 0,-1.1 0,0 -0.4,1.1 0,1.1" />
	<path
   id="path12602"
   class="st0"
   d="m 151.8,127.4 c 0.8,0.3 1.1,1.3 1.8,1.8 -0.3,0.3 -1,1 0,1 -0.5,0.6 -0.6,1.4 -0.3,2.1 -1.8,0 -1,-1.8 -2.4,-1.8 0.3,-0.7 0.7,-1.3 0,-2.1 -0.1,-0.4 0.2,-0.7 0.9,-1" />
	<path
   id="path12606"
   class="st0"
   d="m 115.9,131.4 c -2.8,-5.7 -5.2,-11.9 -5.5,-19.8 -1.3,-14.1 2.6,-28.2 10.9,-39.7 -1.3,0.4 -2,2.1 -2.3,3.5 -1.2,-1 -1.9,-2.3 -2.1,-3.8 -1.2,0.2 -2.5,-0.2 -3.4,-1 -0.9,-0.6 -2,-1 -3.1,-1 0.1,-1.6 -0.1,-3.2 -0.3,-4.8 1.7,-0.7 3.8,-1.3 5.8,-2 0,0.7 -0.8,0.7 -0.8,1.3 0.8,1 1.8,1 3.1,0.7 0,0.7 -0.7,0.7 -0.3,1.4 0.4,0.7 0.8,0.3 1.1,0.3 0.3,0 0.7,-0.3 1,0 2.1,0.3 0.7,3.4 1.8,4.8 3.1,-3.1 5.4,-6.2 8.9,-8.5 3.1,-2.4 6.8,-5.2 10.6,-6.6 -3.7,2.4 -7.5,4.5 -10.6,6.9 -3.2,2.6 -6.1,5.5 -8.6,8.8 -6.5,8.6 -11,18.8 -11.3,33.5 10.2,1.8 20.9,0.7 30.8,0 2.8,13 0,31.5 -12.6,32.5 -9.6,0.8 -12.7,-7.2 -15.1,-14.3 5.2,-4.1 2.4,-14.7 -2.8,-16.4 -0.7,7.7 0.9,15.4 4.5,22.2 1,2.4 2.3,4.7 3.7,6.8 7.1,11.1 17.9,19.5 30.5,23.6 1,0.3 2.4,0.3 3.4,1.4 -17.8,-4.5 -29.5,-15.1 -37,-29.5 -0.7,0.4 -1.4,0 -2.1,0 -0.7,0 -1,-0.3 -1.7,-0.3 -0.8,0.3 -0.4,1.4 -0.4,2.1 -1.7,0.7 -3.4,1 -4.1,2.4 -2.1,0 -3.4,-0.7 -5.5,-1.1 0,-2 1.1,-3.4 1.4,-5.7 0.3,0 0.3,0.7 1,1 1,-0.3 1.4,-0.7 1.7,-2.1 0.7,0 0.3,1.1 1,1.1 1.8,-0.4 1.3,-2.4 3.4,-2.4 1.5,-0.2 2.9,0.6 3.4,2 0.5,1.1 0.2,2.7 1.6,2.7 z m -4.8,-64.5 c 1.8,0.7 4.1,4.1 5.8,1.7 -1.3,-1.7 -3.8,-4.2 -5.8,-1.7 z m 9.5,3 c 0.3,-1.4 -2,-2.1 -3.4,-0.7 0,1.7 0,3.4 1,4.4 -0.3,-1.7 2.4,-2.3 2.4,-3.7 z m -8.1,37 c 2.7,2.7 5.7,6.1 5.1,11.9 0.7,-0.7 1.4,0 2.4,0.3 1,0.8 2.1,1.4 2.8,-0.3 -0.3,-0.7 -1,-0.7 -1,-1 1,-1.3 2,0.3 2,1.8 1.8,0.7 2.8,-0.8 4.2,-1.1 0.6,1.8 0.7,3.7 0.3,5.5 -0.3,0 -0.3,-0.3 -0.3,-0.7 0.1,-0.7 -0.1,-1.4 -0.3,-2.1 -0.4,-2.1 0.3,2.1 -0.4,2.4 -0.3,-0.7 0,-2.4 -0.7,-2.8 0,0.7 0.3,1.8 -0.3,2.1 -0.3,-0.3 0,-1.8 -0.7,-2.1 0,0.6 -0.1,1.2 -0.3,1.8 0.1,-0.5 -0.1,-1 -0.3,-1.4 -0.4,-0.3 -0.4,0 -0.4,0.3 0,0.3 0,0.7 -0.3,0.7 0,-0.3 0,-0.7 -0.3,-0.7 0,0.3 -0.3,0.7 -0.3,1.4 0.7,0.3 2.4,1 1.8,2 -0.7,-0.3 -1.2,-0.8 -1.8,-1.3 -0.3,1.7 1,1.7 1,3.1 -1,-0.3 -0.7,-1.4 -1.7,-1.8 -0.7,0.3 -0.7,1.1 -1.4,1.4 0.4,-1.1 1.1,-1.1 0.8,-2.1 -0.8,0.3 -1.8,0.7 -2.8,1 0,0 0.3,0 0,0.8 -0.7,-0.8 -1.1,0.3 -1.4,0.7 0,-1 -1,-0.7 -1,-1 0.7,0.3 0.3,-0.8 0.7,-0.8 2.4,0.8 2.7,-1.7 4.5,-2 v -1.8 c -0.8,-0.3 -0.3,0.7 -1.1,1 -0.3,-0.3 0.3,-1.3 -0.3,-1.3 -0.3,0.7 0,1 -0.3,1.8 -0.7,0 0,-1.8 -0.7,-2.1 -0.6,0.3 0.4,2.5 -0.6,2.5 0,-1.1 0.3,-2.4 -0.3,-2.8 -0.8,0.7 0.3,3.1 -0.8,3.4 -0.3,-1.4 0,-2.8 -0.3,-3.8 -0.7,0 -0.3,0.7 -0.7,1 1,0.3 0.3,3.1 0,3.4 0.1,-0.9 0,-1.9 -0.3,-2.7 -0.7,1.1 -1.8,1.4 -2.1,2.4 1.7,5.8 4.5,11.7 10.7,13 2.8,0.3 6.5,0 8.2,-1.7 -2,0.3 -2.3,-1.4 -4.1,-1.8 -0.1,1.1 0.5,2.2 1.4,2.8 -1.4,0.3 -1.8,-0.7 -2.1,-1.8 -0.7,0.3 -1,2.1 -2.1,1.4 0.9,-0.7 1.4,-1.7 1.4,-2.7 -0.8,1 -3.1,1 -2.4,2.1 -1.1,-0.4 -0.7,1 -1.4,1 0,-0.7 0,-0.7 -0.3,-0.3 -0.3,0 -0.3,0 -0.3,-0.3 0,-0.8 0.7,-0.3 0.3,-1.1 1.8,0 2.8,-1.7 3.8,-2.8 -0.4,-0.3 -0.4,-1 -0.8,-1.3 -0.3,0.3 0,1.3 -0.7,1 0,-0.3 -0.3,-0.7 -0.3,-1.3 -0.7,0.3 0,1.3 -1,1.3 0,-0.3 0.3,-1.3 -0.4,-1.3 0,0.7 0.4,2.1 -0.3,2.1 -0.3,-0.8 -0.3,-1.8 -0.7,-2.4 0,1 0.3,2.7 -0.7,2.7 0,-1.1 0.3,-2.4 -0.7,-2.7 0,1.3 0.3,3.1 -0.8,3.4 0.4,-1.8 0,-3.1 0,-4.5 1,-0.6 2.3,-0.4 3.1,0.4 1.4,0.3 2.4,0.7 3.8,0 0.3,-1.1 -0.7,-1.4 -0.7,-1.8 2,-1.3 1.3,1 2,2.1 0.9,0.3 1.9,0.2 2.8,-0.3 0.7,-0.5 1.5,-0.7 2.4,-0.8 1,1.4 0,3.8 0.3,5.2 -1,-1 -0.3,-2.8 -0.7,-4.1 -0.7,1 0,2.8 -0.3,3.4 -0.8,-0.3 -0.3,-1.8 -0.3,-2.8 -1.1,0 0,2.1 -1.1,2.4 -0.3,-0.3 0.3,-2.1 -0.3,-2.1 -0.3,0.3 0,1.3 -0.3,1.8 -0.7,0 0,-1.8 -0.7,-1.8 -0.3,0 0,1.3 -0.3,1.3 -0.3,0 -0.3,-0.3 -0.3,-0.7 0,-0.4 0,-0.7 -0.4,-0.7 0,0.7 -0.3,1.8 -0.7,1 -0.7,1.8 1.8,1.4 1.8,2.8 h 1.7 c -0.3,0.7 0.3,0.7 0.8,1.1 3.9,-2.7 6.5,-6.9 7.2,-11.7 -1,0 -0.3,-3.1 -0.7,-4.1 -0.3,1 0,2.7 -0.8,3.4 0,-0.8 -0.3,-1.8 -0.3,-2.4 -0.3,0 0,1.7 -0.3,2.1 -0.3,-0.8 0,-1.8 -0.7,-2.1 -0.3,0.3 0.3,1.3 -0.3,1.7 -0.3,-0.3 -0.3,-1 -0.7,-1.3 0,0.3 0,1 -0.3,1 0,-0.4 -0.4,-0.7 -0.8,-0.7 0,0.3 -0.3,0.7 -0.3,1.4 2.1,0.3 1.8,2.7 4.2,2.7 -0.4,0 0,0.4 0,1.1 -0.8,-0.3 -0.8,0 -0.8,0.3 0,-0.7 -0.7,-0.7 -1,-0.7 0,-0.3 0.7,-0.3 0.3,-0.8 -1,-0.5 -1.9,-1 -2.7,-1.7 -0.3,1.7 1.4,2.7 1.8,3.4 -1.4,0.3 -1.1,-1 -2.1,-1.3 -0.7,0 -1.3,1.7 -2.4,1.3 1.1,-0.8 1.8,-2.1 2.1,-3.4 -1,0 -1,1 -1.8,1.3 -0.7,-0.3 -1,0 -1.3,0.3 -0.3,0.3 -0.7,1.1 -1,0.8 0,-0.8 1,-1.1 1.7,-1.4 0.3,-0.3 -0.7,-0.3 0,-0.7 0.7,-0.4 1.1,-1 2.1,-1 0,-1.1 0,-1.8 -0.7,-2.1 0.3,0.7 0,0.7 -0.3,1 -0.4,-0.7 0,-1 -0.8,-1 0,0.7 0,1 -0.3,1.3 0,-0.7 0,-1.3 -0.7,-1.3 0.1,0.6 0,1.2 -0.3,1.8 0,-1.1 0,-1.8 -0.7,-2.4 -0.3,1 0.3,2.4 -0.3,3.1 0,-1.1 0,-2.4 -0.8,-3.1 -0.3,1 0.3,3.1 -0.3,3.8 0,-1.8 -0.3,-3.8 0,-5.2 0.9,-0.2 1.9,-0.1 2.8,0.3 0.7,0.5 1.5,0.7 2.4,0.8 0,-0.3 0.3,-0.8 0.3,-1.1 0,-0.7 -1,-0.7 -1,-1.3 0.7,0 1,-0.3 1.7,-0.3 0.3,0.7 0.3,2.4 1.1,2.7 0.7,0 1.4,-0.3 2,-0.8 0.6,-0.5 1.3,-0.7 2.1,-0.7 v 0.3 c 0,1.1 -0.7,3.4 0.3,4.2 0.6,-5.5 0.4,-11 -0.3,-16.5 -9.9,1.1 -19.5,2.1 -29,0.8 z m -2.1,23.6 c 1.3,0.3 2.1,1 3.7,0.7 0,-4.2 -3.4,-5.2 -3.7,-0.7 z m -6.2,4.1 c 2.8,0 4.1,-1.3 6.2,-2.3 -0.3,-0.8 0.3,-0.8 0.3,-1.4 -2.7,-0.4 -6.5,0.6 -6.5,3.7" />
	<path
   id="path14921"
   class="st1"
   d="m 139.8,152.3 v 5.8 H 162 v -5.8 z" />
	<path
   id="path12610"
   class="st0"
   d="m 162.1,129.1 c 0.7,0.3 0.7,2.3 0,2.7 0.7,0 1.3,-0.3 1.7,0 0,1.4 -0.3,2.8 -0.7,4.2 -0.8,-1.9 -1.7,-3.7 -2.8,-5.5 1.4,0.3 1.8,-0.4 1.8,-1.4" />
	<path
   id="path12614"
   class="st2"
   d="m 199.7,199.5 h -4.1 v 13.3 h 22.2 v -5.5 h -8.9 v -7.5 h -4.1 v 7.5 h -5.2 v -7.8 z m 18.1,-21.2 -7.2,5.2 c -0.9,0.3 -1.7,0.7 -2.4,1.3 -1,-3.1 -3.1,-5.1 -6.5,-5.1 -4.1,0 -6.5,3.1 -6.5,8.5 0,2.8 0.3,6.2 0.3,8.2 h 22.2 v -5.8 h -8.9 l 8.9,-5.5 z m -15.4,7.1 c 1.8,0.1 3.1,1.5 3.1,3.3 0,0.1 0,0.1 0,0.2 v 1.7 h -5.8 v -1.3 c 0,-2.4 1.1,-3.9 2.7,-3.9 z m 15.4,-23.2 h -4.4 v 7.9 h -4.8 v -7.6 h -4.4 v 7.6 h -4.5 v -7.9 h -4.1 v 13.6 h 22.2 z m 0,-9.9 h -22.2 v 5.8 h 22.2 z M 211,130.1 c -2.4,-0.1 -4.5,1.4 -5.2,3.7 -0.7,-2.1 -2.6,-3.4 -4.8,-3.4 -3.8,0 -5.8,2.4 -5.8,8.6 0,2.8 0.3,6.5 0.3,8.5 h 22.2 v -7.8 c 0.1,-7.2 -3.6,-9.6 -6.7,-9.6 z m -9.2,6.2 c 2.1,0 2.8,1.7 2.8,4.4 v 1.4 h -5.2 V 140 c 0,-2.7 1,-3.7 2.4,-3.7 z m 9.2,-0.4 c 1.7,0 3.1,1.3 3.1,4.1 0,0.7 -0.3,1.8 -0.3,2.1 h -5.5 c -0.3,-0.3 -0.3,-1.4 -0.3,-1.7 -0.1,-2.8 0.9,-4.5 3,-4.5 z m -1.8,-29.8 h -13.6 v 5.5 h 13 c 3.1,0 5.2,1 5.2,4.4 0,3.1 -1.7,4.8 -5.2,4.8 h -13 v 5.5 H 210 c 5.1,0 8.1,-3.1 8.1,-9.9 0.1,-7.2 -4,-10.3 -8.9,-10.3 z m 8.6,-22.5 -7.2,4.8 c -0.8,0.5 -1.6,1.1 -2.4,1.7 -1,-3.1 -3.1,-5.5 -6.5,-5.5 -4.1,0 -6.5,3.5 -6.5,8.9 0,2.8 0.3,6.2 0.3,7.9 h 22.2 v -5.5 h -8.9 v -0.3 l 8.9,-5.5 z m -15.4,6.8 c 1.8,0 3.1,1.4 3.1,3.8 v 1.7 h -5.8 v -1.7 c 0,-2 1.1,-3.8 2.7,-3.8 z m 14.1,-27.6 h -10.6 v 5.4 h 7.2 c 0,0.8 0.3,1.8 0.3,2.8 0,3.4 -2.4,6.1 -6.9,6.1 -3.6,0.2 -6.6,-2.5 -6.8,-6.1 0,-0.3 0,-0.5 0,-0.8 -0.1,-2.1 0.4,-4.3 1.4,-6.2 l -4.8,-1 c -0.7,2.3 -1,4.7 -1,7.2 0,7.8 5.1,12.6 12,12.6 7.2,0 10.9,-5.2 10.9,-11.7 0,-2.7 -0.6,-5.6 -1.7,-8.3" />
	<path
   id="path12618"
   class="st2"
   d="m 181.2,193 h -13.6 v 5.5 h 13 c 3.4,0 5.2,1.3 5.2,4.7 0,3.1 -1.4,4.8 -4.8,4.8 h -13.3 v 5.4 h 14.7 c 4.8,0 8.2,-3.1 8.2,-9.9 -0.2,-7.4 -4.2,-10.5 -9.4,-10.5 z m 8.9,-27.7 h -22.6 v 5.2 h 15.1 c -1.6,0.6 -3.1,1.4 -4.5,2.3 l -10.6,6.6 v 7.5 h 22.6 v -5.5 H 175 c 1,-0.3 2.8,-1.3 4.1,-2 l 11,-6.9 z m 0,-13 h -22.6 v 5.8 h 22.6 v -5.8" />
	<path
   id="path12638"
   class="st3"
   d="m 152.5,158.2 h -1.1 c -2.2,-2.2 -4.8,-4.2 -7.5,-5.8 h 4.4 c 1.8,1.7 3.5,3.3 4.2,5.8" />
	<path
   id="path12642"
   class="st3"
   d="m 151.8,155.4 c -0.9,-0.8 -1.7,-1.7 -2.3,-2.8 0,-0.2 -0.1,-0.3 -0.3,-0.3 0,0 0,0 0,0 h 1 c 0.2,1.4 1.2,2.1 1.6,3.1" />
	<path
   id="path12650"
   class="st3"
   d="m 154.2,158.2 h -0.7 c -0.3,-1.7 -0.9,-3.3 -1.8,-4.8 3.8,0 7.2,-0.3 10.3,-0.3 v 1.1 h -8.9 c 0.4,1.2 0.7,2.5 1.1,4" />
	<path
   id="path12654"
   class="st3"
   d="m 144.9,158.2 h -1 c -1.4,-0.7 -2.8,-1.4 -4.1,-2.1 v -0.3 c 1.7,0.6 3.5,1.7 5.1,2.4" />
	<path
   id="path12626"
   class="st3"
   d="m 223.3,157.1 v -1.3 c 1,-1.1 1.9,-2.2 2.8,-3.4 h 1 c -1.1,1.7 -2.3,3.3 -3.8,4.7" />
	<path
   id="path12630"
   class="st4"
   d="M 223.3,153.7 V 153 c 0,-0.3 0.3,-0.3 0.7,-0.7 h 0.3 c -0.3,0.4 -0.6,1 -1,1.4" />
	<path
   id="path12646"
   class="st3"
   d="m 158,158.2 h -0.8 c 0.3,0 0.3,-0.3 0.3,-0.7 0,-0.4 -0.3,-0.8 -1,-0.8 h -0.3 c 0,-0.5 -0.3,-1 -0.7,-1.3 -0.7,0.1 -1.1,0.7 -1.1,1.3 0,0 0,0 0,0 -0.7,-0.3 -0.3,-0.7 -0.7,-0.7 0,-0.7 1.4,-0.7 0.7,-1.7 h 0.4 c 0.4,0 0.7,0.1 1,0.3 0.3,0.3 0.3,0.7 1,0.7 0.7,0.7 0.3,1.7 1.4,1.7 h 0.3 c 0,0.4 -0.3,0.4 -0.3,1.1 H 158 Z m 4.1,-1.1 h -0.3 c 0,-0.7 0,-1.3 -0.7,-1.7 -0.8,0 -0.8,0.7 -1.1,1.3 -0.7,0 -1,0.3 -1.3,0.3 0,-1 1,-1.3 1.7,-2 0,-0.3 -0.3,-0.3 -0.7,-0.7 h 2.1 c -0.7,0.7 -0.3,1 0.3,1.3 v 1.5" />
</g>
</svg>
