<?xml version="1.0" encoding="UTF-8" standalone="no"?>
<svg
   version="1.1"
   width="191.96935"
   height="183.0183"
   style="clip-rule:evenodd;fill-rule:evenodd;image-rendering:optimizeQuality;shape-rendering:geometricPrecision;text-rendering:geometricPrecision"
   id="svg65"
   sodipodi:docname="13447554.svg"
   inkscape:version="1.4.2 (ebf0e940, 2025-05-08)"
   xmlns:inkscape="http://www.inkscape.org/namespaces/inkscape"
   xmlns:sodipodi="http://sodipodi.sourceforge.net/DTD/sodipodi-0.dtd"
   xmlns="http://www.w3.org/2000/svg"
   xmlns:svg="http://www.w3.org/2000/svg">
  <defs
     id="defs65" />
  <sodipodi:namedview
     id="namedview65"
     pagecolor="#ffffff"
     bordercolor="#000000"
     borderopacity="0.25"
     inkscape:showpageshadow="2"
     inkscape:pageopacity="0.0"
     inkscape:pagecheckerboard="0"
     inkscape:deskcolor="#d1d1d1"
     inkscape:zoom="1.0955202"
     inkscape:cx="314.91888"
     inkscape:cy="88.54241"
     inkscape:window-width="1728"
     inkscape:window-height="1051"
     inkscape:window-x="0"
     inkscape:window-y="38"
     inkscape:window-maximized="0"
     inkscape:current-layer="svg65" />
  <g
     id="g2"
     transform="translate(0.5,-5.4817074)">
    <path
       style="opacity:1"
       fill="#47b102"
       d="m 64.5,6.5 c 23.8298,-1.16318 47.83,-1.32985 72,-0.5 2.124,1.12173 3.957,2.62173 5.5,4.5 2.393,3.4522 4.226,7.1189 5.5,11 -1.742,0.1518 -3.576,0.1518 -5.5,0 -3.533,1.5432 -7.2,2.8766 -11,4 -4.161,-0.3412 -8.327,0.3255 -12.5,2 -1.406,-1.1682 -2.572,-0.8348 -3.5,1 -2.728,-0.4862 -5.395,0.1805 -8,2 -1.451,-0.2358 -2.951,-0.2358 -4.5,0 C 94.765,14.7769 82.0983,6.77691 64.5,6.5 Z"
       id="path2" />
  </g>
  <g
     id="g3"
     transform="translate(0.5,-5.4817074)">
    <path
       style="opacity:1"
       fill="#319a03"
       d="m 147.5,21.5 c 1.755,2.4883 3.755,4.8216 6,7 4,-2.3333 8,-4.6667 12,-7 0.333,0.3333 0.667,0.6667 1,1 -1.68,3.4021 -3.346,6.7354 -5,10 0,-1 0,-2 0,-3 -5.087,-0.1353 -9.921,0.8647 -14.5,3 -1,-0.3333 -2,-0.6667 -3,-1 -6.036,1.4256 -12.036,3.0922 -18,5 -1.343,-0.7135 -2.676,-0.3802 -4,1 -1,-0.3333 -2,-0.6667 -3,-1 -3.946,0.9667 -7.113,2.9667 -9.5,6 -2.33,-3.9921 -4.663,-7.9921 -7,-12 1.549,-0.2358 3.049,-0.2358 4.5,0 2.605,-1.8195 5.272,-2.4862 8,-2 0.928,-1.8348 2.094,-2.1682 3.5,-1 4.173,-1.6745 8.339,-2.3412 12.5,-2 3.8,-1.1234 7.467,-2.4568 11,-4 1.924,0.1518 3.758,0.1518 5.5,0 z"
       id="path3" />
  </g>
  <g
     id="g4"
     transform="translate(0.5,-5.4817074)">
    <path
       style="opacity:1"
       fill="#1d8702"
       d="m 161.5,32.5 c -1.251,4.7852 -3.251,9.1185 -6,13 -1.644,-0.2135 -3.144,0.1198 -4.5,1 -0.368,-1.41 -1.201,-2.41 -2.5,-3 0.204,1.0294 -0.296,2.0294 -1.5,3 -1.309,-2.3912 -2.309,-2.3912 -3,0 -3.151,-0.5906 -6.485,-0.5906 -10,0 -1.693,0.6845 -3.193,1.6845 -4.5,3 -3.069,-0.8024 -5.902,-0.8024 -8.5,0 -1.473,0.4031 -2.806,1.0697 -4,2 -0.333,-0.3333 -0.667,-0.6667 -1,-1 -0.278,0.9158 -0.778,1.5825 -1.5,2 -1.667,-3.3333 -3.333,-6.6667 -5,-10 2.387,-3.0333 5.554,-5.0333 9.5,-6 1,0.3333 2,0.6667 3,1 1.324,-1.3802 2.657,-1.7135 4,-1 5.964,-1.9078 11.964,-3.5744 18,-5 1,0.3333 2,0.6667 3,1 4.579,-2.1353 9.413,-3.1353 14.5,-3 0,1 0,2 0,3 z"
       id="path4" />
  </g>
  <g
     id="g5"
     transform="translate(0.5,-5.4817074)">
    <path
       style="opacity:1"
       fill="#43aa05"
       d="m 92.5,34.5 c 2.7869,0.9767 5.7869,1.31 9,1 0.543,0.06 0.876,0.3933 1,1 -4.1475,0.667 -8.1475,1.3337 -12,2 -8.5541,0.2908 -15.8874,3.2908 -22,9 -1.9553,0.2986 -3.2886,1.2986 -4,3 -4.3057,0.5658 -4.639,1.2325 -1,2 -2.1074,0.9682 -4.4407,1.3016 -7,1 1.6939,-2.3606 3.6939,-4.3606 6,-6 3.447,-1.8967 6.7804,-4.0633 10,-6.5 6.7642,-2.3114 13.4308,-4.478 20,-6.5 z"
       id="path5" />
  </g>
  <g
     id="g6"
     transform="translate(0.5,-5.4817074)">
    <path
       style="opacity:1"
       fill="#9aec19"
       d="m 64.5,6.5 c 17.5983,0.27691 30.265,8.2769 38,24 2.337,4.0079 4.67,8.0079 7,12 1.667,3.3333 3.333,6.6667 5,10 -0.667,0.3333 -1.333,0.6667 -2,1 -1.972,-3.6497 -3.972,-7.3164 -6,-11 -0.011,-1.5174 -0.677,-2.6841 -2,-3.5 -4.6548,-0.4992 -9.3215,-0.6658 -14,-0.5 3.8525,-0.6663 7.8525,-1.333 12,-2 -0.124,-0.6067 -0.457,-0.94 -1,-1 -1.22,-2.4811 -2.8863,-4.4811 -5,-6 -0.03,-3.3515 -1.3633,-6.0182 -4,-8 C 83.5042,10.8928 72.1709,7.39277 58.5,11 c -3.3771,3.9312 -6.3771,8.0979 -9,12.5 -1.6933,2.6841 -3.36,5.3508 -5,8 -2.8993,3.4516 -5.5659,7.1183 -8,11 -2.4395,2.5434 -4.1062,5.5434 -5,9 C 30.8614,50.9032 30.528,50.0698 30.5,49 35.4847,39.3373 41.318,30.1706 48,21.5 50.5262,13.1368 56.0262,8.13682 64.5,6.5 Z"
       id="path6" />
  </g>
  <g
     id="g7"
     transform="translate(0.5,-5.4817074)">
    <path
       style="opacity:1"
       fill="#fdfefd"
       d="m 96.5,29.5 c 2.1137,1.5189 3.78,3.5189 5,6 -3.2131,0.31 -6.2131,-0.0233 -9,-1 0.3333,-0.6667 0.6667,-1.3333 1,-2 1.2281,-0.8065 2.2281,-1.8065 3,-3 z"
       id="path7" />
  </g>
  <g
     id="g8"
     transform="translate(0.5,-5.4817074)">
    <path
       style="opacity:1"
       fill="#055200"
       d="m 93.5,32.5 c -0.3333,0.6667 -0.6667,1.3333 -1,2 -6.5692,2.022 -13.2358,4.1886 -20,6.5 -3.2196,2.4367 -6.553,4.6033 -10,6.5 0.1567,-1.3734 -0.01,-2.7068 -0.5,-4 -0.3333,0.6667 -0.6667,1.3333 -1,2 -1.3406,-2.6866 -3.0072,-4.3532 -5,-5 -0.3173,1.8008 -0.984,2.1341 -2,1 -1.7913,2.0127 -3.1247,2.0127 -4,0 -3.9953,0.9879 -8.4953,1.3212 -13.5,1 2.4341,-3.8817 5.1007,-7.5484 8,-11 1.6379,-0.6589 3.3045,-1.3256 5,-2 -0.0105,0.9415 0.4895,1.6081 1.5,2 0.9454,-0.4054 1.6121,-1.072 2,-2 0.6667,1.3333 1.3333,1.3333 2,0 0.3333,0.6667 0.6667,1.3333 1,2 2.7908,-1.0823 5.6241,-1.0823 8.5,0 1.1473,-0.3178 1.9806,-0.9844 2.5,-2 3.3333,1.3333 6.6667,1.3333 10,0 1.3086,2.3912 2.3086,2.3912 3,0 0.6667,2.6667 1.3333,2.6667 2,0 1.3086,2.3912 2.3086,2.3912 3,0 1.5123,2.4574 2.8456,2.4574 4,0 0.3173,1.8008 0.984,2.1341 2,1 0.9947,0.5659 1.828,1.2326 2.5,2 z"
       id="path8" />
  </g>
  <g
     id="g9"
     transform="translate(0.5,-5.4817074)">
    <path
       style="opacity:1"
       fill="#075d00"
       d="m 92.5,21.5 c 2.6367,1.9818 3.97,4.6485 4,8 -0.7719,1.1935 -1.7719,2.1935 -3,3 -0.672,-0.7674 -1.5053,-1.4341 -2.5,-2 -1.016,1.1341 -1.6827,0.8008 -2,-1 -1.1544,2.4574 -2.4877,2.4574 -4,0 -0.6914,2.3912 -1.6914,2.3912 -3,0 -0.6667,2.6667 -1.3333,2.6667 -2,0 -0.6914,2.3912 -1.6914,2.3912 -3,0 -3.3333,1.3333 -6.6667,1.3333 -10,0 -0.5194,1.0156 -1.3527,1.6822 -2.5,2 -2.8759,-1.0823 -5.7092,-1.0823 -8.5,0 -0.3333,-0.6667 -0.6667,-1.3333 -1,-2 -0.6667,1.3333 -1.3333,1.3333 -2,0 -0.3879,0.928 -1.0546,1.5946 -2,2 -1.0105,-0.3919 -1.5105,-1.0585 -1.5,-2 -1.6955,0.6744 -3.3621,1.3411 -5,2 1.64,-2.6492 3.3067,-5.3159 5,-8 1.9412,-0.3693 3.7745,-1.036 5.5,-2 2.4199,0.9881 4.7533,0.6548 7,-1 2.3333,2.6667 4.6667,2.6667 7,0 3.1347,1.2994 6.3013,1.2994 9.5,0 1.5589,0.5736 3.0589,1.2402 4.5,2 1.2447,0.0385 2.5781,-0.2948 4,-1 0.9454,0.4054 1.6121,1.072 2,2 0.3333,-1 0.6667,-2 1,-3 0.6708,0.7524 1.5041,1.0858 2.5,1 z"
       id="path9" />
  </g>
  <g
     id="g10"
     transform="translate(0.5,-5.4817074)">
    <path
       style="opacity:1"
       fill="#0a6a00"
       d="m 92.5,21.5 c -0.9959,0.0858 -1.8292,-0.2476 -2.5,-1 -0.3333,1 -0.6667,2 -1,3 -0.3879,-0.928 -1.0546,-1.5946 -2,-2 -1.4219,0.7052 -2.7553,1.0385 -4,1 -1.4411,-0.7598 -2.9411,-1.4264 -4.5,-2 -3.1987,1.2994 -6.3653,1.2994 -9.5,0 -2.3333,2.6667 -4.6667,2.6667 -7,0 -2.2467,1.6548 -4.5801,1.9881 -7,1 -1.7255,0.964 -3.5588,1.6307 -5.5,2 2.6229,-4.4021 5.6229,-8.5688 9,-12.5 13.6709,-3.60723 25.0042,-0.1072 34,10.5 z"
       id="path10" />
  </g>
  <g
     id="g11"
     transform="translate(0.5,-5.4817074)">
    <path
       style="opacity:1"
       fill="#befc17"
       d="m 90.5,38.5 c 4.6785,-0.1658 9.3452,8e-4 14,0.5 1.323,0.8159 1.989,1.9826 2,3.5 -7.6193,0.7681 -15.286,1.2681 -23,1.5 -2.1115,0.8447 -4.1115,1.678 -6,2.5 -2.3622,-0.7196 -4.5289,-0.053 -6.5,2 -0.6708,-0.7524 -1.5041,-1.0858 -2.5,-1 6.1126,-5.7092 13.4459,-8.7092 22,-9 z"
       id="path11" />
  </g>
  <g
     id="g12"
     transform="translate(0.5,-5.4817074)">
    <path
       style="opacity:1"
       fill="#eafebf"
       d="m 106.5,42.5 c 2.028,3.6836 4.028,7.3503 6,11 -0.333,0 -0.667,0 -1,0 -3.402,0.5689 -6.069,2.2356 -8,5 0,0.3333 0,0.6667 0,1 -4.2824,-0.4549 -5.9491,-2.6216 -5,-6.5 -1.2433,-1.1545 -2.2433,-2.4878 -3,-4 -2.0767,-0.1922 -4.0767,-0.6922 -6,-1.5 0.6667,-0.6667 1.3333,-1.3333 2,-2 -2.8877,-0.5599 -5.221,0.6068 -7,3.5 0.9158,0.2784 1.5825,0.7784 2,1.5 -2.3098,0.2583 -4.3098,0.2583 -6,0 -0.3417,-0.8382 -1.0084,-1.1716 -2,-1 1.3146,-1.3946 0.9812,-2.3946 -1,-3 1.8885,-0.822 3.8885,-1.6553 6,-2.5 7.714,-0.2319 15.3807,-0.7319 23,-1.5 z"
       id="path12" />
  </g>
  <g
     id="g13"
     transform="translate(0.5,-5.4817074)">
    <path
       style="opacity:1"
       fill="#034201"
       d="m 62.5,47.5 c -2.3061,1.6394 -4.3061,3.6394 -6,6 -2.4092,2.4024 -4.4092,5.0691 -6,8 -0.7223,1.0511 -1.7223,1.7178 -3,2 -5.0266,-4.3533 -10.36,-8.3533 -16,-12 0.8938,-3.4566 2.5605,-6.4566 5,-9 5.0047,0.3212 9.5047,-0.0121 13.5,-1 0.8753,2.0127 2.2087,2.0127 4,0 1.016,1.1341 1.6827,0.8008 2,-1 1.9928,0.6468 3.6594,2.3134 5,5 0.3333,-0.6667 0.6667,-1.3333 1,-2 0.49,1.2932 0.6567,2.6266 0.5,4 z"
       id="path13" />
  </g>
  <g
     id="g14"
     transform="translate(0.5,-5.4817074)">
    <path
       style="opacity:1"
       fill="#c1fa5a"
       d="m 77.5,46.5 c 1.9812,0.6054 2.3146,1.6054 1,3 -0.6174,-0.1107 -1.1174,-0.444 -1.5,-1 -1.0975,1.4675 -2.5975,2.3008 -4.5,2.5 3.5718,0.8864 3.4052,2.053 -0.5,3.5 -1.7618,-0.4444 -1.5951,-0.9444 0.5,-1.5 -0.5465,-0.9246 -1.2132,-1.7579 -2,-2.5 -2.0316,1.319 -4.0316,1.319 -6,0 0.7114,-1.7014 2.0447,-2.7014 4,-3 0.9959,-0.0858 1.8292,0.2476 2.5,1 1.9711,-2.053 4.1378,-2.7196 6.5,-2 z"
       id="path14" />
  </g>
  <g
     id="g15"
     transform="translate(0.5,-5.4817074)">
    <path
       style="opacity:1"
       fill="#b9f957"
       d="m 78.5,49.5 c 0.9916,-0.1716 1.6583,0.1618 2,1 -0.6641,1.148 -0.8308,2.4813 -0.5,4 -2.324,-1.2753 -2.824,-2.942 -1.5,-5 z"
       id="path15" />
  </g>
  <g
     id="g16"
     transform="translate(0.5,-5.4817074)">
    <path
       style="opacity:1"
       fill="#167001"
       d="m 155.5,45.5 c -2.147,6.4437 -4.48,12.777 -7,19 -0.789,-0.2828 -1.456,-0.7828 -2,-1.5 -4.655,-0.4992 -9.321,-0.6658 -14,-0.5 -1.542,-0.8007 -3.208,-1.134 -5,-1 -1,0 -2,0 -3,0 -7.007,-0.6008 -14.007,-1.2674 -21,-2 0,-0.3333 0,-0.6667 0,-1 3.204,-0.8833 5.871,-2.5499 8,-5 0.333,0 0.667,0 1,0 0.667,-0.3333 1.333,-0.6667 2,-1 0.722,-0.4175 1.222,-1.0842 1.5,-2 0.333,0.3333 0.667,0.6667 1,1 1.194,-0.9303 2.527,-1.5969 4,-2 2.598,-0.8024 5.431,-0.8024 8.5,0 1.307,-1.3155 2.807,-2.3155 4.5,-3 3.515,-0.5906 6.849,-0.5906 10,0 0.691,-2.3912 1.691,-2.3912 3,0 1.204,-0.9706 1.704,-1.9706 1.5,-3 1.299,0.59 2.132,1.59 2.5,3 1.356,-0.8802 2.856,-1.2135 4.5,-1 z"
       id="path16" />
  </g>
  <g
     id="g17"
     transform="translate(0.5,-5.4817074)">
    <path
       style="opacity:1"
       fill="#fbfef3"
       d="m 78.5,49.5 c -1.324,2.058 -0.824,3.7247 1.5,5 -0.3308,-1.5187 -0.1641,-2.852 0.5,-4 1.6902,0.2583 3.6902,0.2583 6,0 2.5689,0.9619 4.9023,2.4619 7,4.5 -1,0.3333 -2,0.6667 -3,1 0.3333,0.3333 0.6667,0.6667 1,1 -2.4712,0.7063 -4.8046,0.373 -7,-1 4.064,-1.5754 3.8973,-2.742 -0.5,-3.5 -2.1469,1.0964 -2.6469,2.5964 -1.5,4.5 -1.3989,0.5946 -2.7322,0.4279 -4,-0.5 -3.2843,0.5703 -4.2843,2.2369 -3,5 2.1088,1.1504 4.1088,2.4837 6,4 1.6713,-2.0098 2.338,-4.3431 2,-7 2.3211,-0.2711 4.3211,0.3955 6,2 0.586,-0.2093 1.086,-0.5426 1.5,-1 1.3878,2.2024 2.8878,4.2024 4.5,6 -3.1646,-0.5365 -5.8312,0.2969 -8,2.5 1.256,0.4169 1.9226,1.2502 2,2.5 -3.6992,2.0409 -6.6992,4.7076 -9,8 -1.1477,-1.395 -2.1477,-1.2284 -3,0.5 -2.0213,0.1402 -3.8547,0.3068 -5.5,0.5 -0.6667,-2.6667 -1.3333,-2.6667 -2,0 -3.2246,-1.5389 -6.2246,-3.5389 -9,-6 -1.3681,-1.4931 -1.5348,-2.9931 -0.5,-4.5 -1.4389,-0.9906 -2.4389,-2.324 -3,-4 1.3333,-2 1.3333,-4 0,-6 0.6667,-1.3333 1.3333,-2.6667 2,-4 2,-0.3333 4,-0.6667 6,-1 -0.5442,-0.7172 -1.2109,-1.2172 -2,-1.5 -3.639,-0.7675 -3.3057,-1.4342 1,-2 1.9684,1.319 3.9684,1.319 6,0 0.7868,0.7421 1.4535,1.5754 2,2.5 -2.0951,0.5556 -2.2618,1.0556 -0.5,1.5 3.9052,-1.447 4.0718,-2.6136 0.5,-3.5 1.9025,-0.1992 3.4025,-1.0325 4.5,-2.5 0.3826,0.556 0.8826,0.8893 1.5,1 z"
       id="path17" />
  </g>
  <g
     id="g18"
     transform="translate(0.5,-5.4817074)">
    <path
       style="opacity:1"
       fill="#8ae81b"
       d="m 111.5,53.5 c -2.129,2.4501 -4.796,4.1167 -8,5 1.931,-2.7644 4.598,-4.4311 8,-5 z"
       id="path18" />
  </g>
  <g
     id="g19"
     transform="translate(0.5,-5.4817074)">
    <path
       style="opacity:1"
       fill="#0b6601"
       d="m 171.5,62.5 c 0,0.6667 0,1.3333 0,2 -0.951,7.2333 -0.951,14.7333 0,22.5 -0.667,1.6667 -1.333,3.3333 -2,5 0.139,8.911 0.472,17.578 1,26 -2.667,0.667 -2.667,1.333 0,2 -0.88,1.356 -1.214,2.856 -1,4.5 -1.333,0.333 -2.667,0.667 -4,1 0.169,-5.077 -0.164,-10.244 -1,-15.5 1.659,-15.4572 2.325,-29.7905 2,-43 -0.336,-1.0299 -1.003,-1.5299 -2,-1.5 2.104,-1.4117 4.437,-2.4117 7,-3 z"
       id="path19" />
  </g>
  <g
     id="g20"
     transform="translate(0.5,-5.4817074)">
    <path
       style="opacity:1"
       fill="#075700"
       d="m 164.5,65.5 c 0.997,-0.0299 1.664,0.4701 2,1.5 0.325,13.2095 -0.341,27.5428 -2,43 0.836,5.256 1.169,10.423 1,15.5 -1.935,0.65 -3.935,0.983 -6,1 0.526,-17.228 0.526,-34.0613 0,-50.5 0.808,-0.3076 1.475,-0.8076 2,-1.5 -1.333,-1 -1.333,-2 0,-3 -0.577,-2.0499 -1.91,-3.0499 -4,-3 1.926,-1.7927 4.259,-2.7927 7,-3 z"
       id="path20" />
  </g>
  <g
     id="g21"
     transform="translate(0.5,-5.4817074)">
    <path
       style="opacity:1"
       fill="#dcf8b2"
       d="m 95.5,65.5 c 2.8486,3.6514 2.1819,4.4847 -2,2.5 0.3333,-0.3333 0.6667,-0.6667 1,-1 -1,-0.6667 -2,-0.6667 -3,0 -0.4121,1.5639 -0.7454,3.0639 -1,4.5 -0.6667,0 -1,-0.3333 -1,-1 -0.0774,-1.2498 -0.744,-2.0831 -2,-2.5 2.1688,-2.2031 4.8354,-3.0365 8,-2.5 z"
       id="path21" />
  </g>
  <g
     id="g22"
     transform="translate(0.5,-5.4817074)">
    <path
       style="opacity:1"
       fill="#7ee40f"
       d="m 103.5,59.5 c 6.993,0.7326 13.993,1.3992 21,2 -0.039,1.0832 -0.373,2.0832 -1,3 1.131,1.1039 1.965,0.7705 2.5,-1 0.483,0.948 0.649,1.948 0.5,3 1.175,0.219 2.175,-0.1143 3,-1 -1.13,-1.1223 -1.797,-2.4557 -2,-4 1.792,-0.134 3.458,0.1993 5,1 1.333,1 1.333,2 0,3 -1.638,1.157 -3.304,2.3236 -5,3.5 1.473,0.7096 2.14,1.8762 2,3.5 -1.333,0 -2.667,0 -4,0 0,1 0,2 0,3 -0.658,-0.8984 -1.324,-1.8984 -2,-3 -1.601,0.6654 -3.101,0.9988 -4.5,1 -0.667,-0.6667 -1.333,-1.3333 -2,-2 -1,1.3333 -2,1.3333 -3,0 -0.667,0.6667 -1.333,1.3333 -2,2 -6.084,-0.1678 -12.4171,-0.1678 -19,0 -0.9947,-0.5659 -1.828,-1.2326 -2.5,-2 0.2546,-1.4361 0.5879,-2.9361 1,-4.5 1,-0.6667 2,-0.6667 3,0 -0.3333,0.3333 -0.6667,0.6667 -1,1 4.1819,1.9847 4.8486,1.1514 2,-2.5 -1.6122,-1.7976 -3.1122,-3.7976 -4.5,-6 -0.414,0.4574 -0.914,0.7907 -1.5,1 -1.6789,-1.6045 -3.6789,-2.2711 -6,-2 0.338,2.6569 -0.3287,4.9902 -2,7 -1.8912,-1.5163 -3.8912,-2.8496 -6,-4 -1.2843,-2.7631 -0.2843,-4.4297 3,-5 1.2678,0.9279 2.6011,1.0946 4,0.5 -1.1469,-1.9036 -0.6469,-3.4036 1.5,-4.5 4.3973,0.758 4.564,1.9246 0.5,3.5 2.1954,1.373 4.5288,1.7063 7,1 -0.3333,-0.3333 -0.6667,-0.6667 -1,-1 1,-0.3333 2,-0.6667 3,-1 -2.0977,-2.0381 -4.4311,-3.5381 -7,-4.5 -0.4175,-0.7216 -1.0842,-1.2216 -2,-1.5 1.779,-2.8932 4.1123,-4.0599 7,-3.5 -0.6667,0.6667 -1.3333,1.3333 -2,2 1.9233,0.8078 3.9233,1.3078 6,1.5 0.7567,1.5122 1.7567,2.8455 3,4 -0.9491,3.8784 0.7176,6.0451 5,6.5 z"
       id="path22" />
  </g>
  <g
     id="g23"
     transform="translate(0.5,-5.4817074)">
    <path
       style="opacity:1"
       fill="#c8fb68"
       d="m 124.5,61.5 c 1,0 2,0 3,0 0.203,1.5443 0.87,2.8777 2,4 -0.825,0.8857 -1.825,1.219 -3,1 0.149,-1.052 -0.017,-2.052 -0.5,-3 -0.535,1.7705 -1.369,2.1039 -2.5,1 0.627,-0.9168 0.961,-1.9168 1,-3 z"
       id="path23" />
  </g>
  <g
     id="g24"
     transform="translate(0.5,-5.4817074)">
    <path
       style="opacity:1"
       fill="#8cec20"
       d="m 171.5,62.5 c 0.996,-0.0858 1.829,0.2476 2.5,1 5.327,9.9643 10.661,19.9643 16,30 1.775,5.6297 1.942,11.296 0.5,17 -0.667,0.333 -1.333,0.667 -2,1 0.172,-0.992 -0.162,-1.658 -1,-2 1.758,-3.472 2.258,-7.138 1.5,-11 -2.956,-6.2511 -6.122,-12.2511 -9.5,-18 -0.826,-2.9848 -2.159,-5.6515 -4,-8 -0.396,-3.221 -1.729,-5.8877 -4,-8 0,-0.6667 0,-1.3333 0,-2 z"
       id="path24" />
  </g>
  <g
     id="g25"
     transform="translate(0.5,-5.4817074)">
    <path
       style="opacity:1"
       fill="#054c01"
       d="m 157.5,68.5 c 2.09,-0.0499 3.423,0.9501 4,3 -1.333,1 -1.333,2 0,3 -0.525,0.6924 -1.192,1.1924 -2,1.5 0.526,16.4387 0.526,33.272 0,50.5 -1.333,0 -2.667,0 -4,0 -1.188,-2.222 -2.188,-4.555 -3,-7 0.37,-3.733 1.037,-7.399 2,-11 0.905,-5.126 1.572,-10.2931 2,-15.5 -0.004,-2.3608 -0.337,-4.5274 -1,-6.5 -0.051,-5.5338 -1.051,-10.8671 -3,-16 1.291,0.2373 2.291,-0.096 3,-1 0.667,-0.3333 1.333,-0.6667 2,-1 z"
       id="path25" />
  </g>
  <g
     id="g26"
     transform="translate(0.5,-5.4817074)">
    <path
       style="opacity:1"
       fill="#b8fa37"
       d="m 132.5,62.5 c 4.679,-0.1658 9.345,8e-4 14,0.5 0.544,0.7172 1.211,1.2172 2,1.5 2.032,4.9206 3.532,9.9206 4.5,15 -2.903,-0.5686 -4.903,-2.2352 -6,-5 -0.147,4.9788 -1.313,5.3121 -3.5,1 -1.062,-2.2565 -2.728,-3.4232 -5,-3.5 1.46,0.8113 1.793,1.6446 1,2.5 -1.022,-0.3555 -1.689,-1.0222 -2,-2 1.657,-2.2408 2.323,-4.5741 2,-7 -2.218,-0.5574 -4.551,-0.5574 -7,0 1.333,-1 1.333,-2 0,-3 z"
       id="path26" />
  </g>
  <g
     id="g27"
     transform="translate(0.5,-5.4817074)">
    <path
       style="opacity:1"
       fill="#065800"
       d="m 24.5,73.5 c 4,0 8,0 12,0 -2.4686,0.8171 -5.1353,1.3171 -8,1.5 -0.5522,3.2935 -0.5522,7.2935 0,12 2.8895,1.8918 2.5562,2.7251 -1,2.5 -0.3633,2.4115 0.6367,3.9115 3,4.5 -1.0448,1.6158 -2.0448,3.2825 -3,5 0.6667,0.6667 1.3333,1.333 2,2 -1.8939,1.101 -2.5606,2.434 -2,4 0.4278,2.629 1.4278,4.962 3,7 -0.864,1.137 -1.864,2.47 -3,4 3.2423,0.283 3.5756,1.117 1,2.5 1.3333,1 1.3333,2 0,3 0.5253,0.692 1.1919,1.192 2,1.5 -1.5557,0.72 -2.5557,1.887 -3,3.5 -3.3221,-0.723 -6.6555,-1.557 -10,-2.5 -1.4423,-0.377 -2.4423,-1.21 -3,-2.5 1.0352,-3.703 1.0352,-7.369 0,-11 2.528,-1.017 2.528,-2.184 0,-3.5 1.1868,-6.773 1.1868,-13.6059 0,-20.5 2.4734,-1.5981 2.4734,-3.0981 0,-4.5 0.0433,-2.4997 0.3766,-4.9997 1,-7.5 3.2131,0.31 6.2131,-0.0233 9,-1 z"
       id="path27" />
  </g>
  <g
     id="g28"
     transform="translate(0.5,-5.4817074)">
    <path
       style="opacity:1"
       fill="#024600"
       d="m 36.5,73.5 c 2.3333,0 4.6667,0 7,0 -2.5562,7.4153 -3.5562,15.0819 -3,23 0.0222,6.083 0.6889,12.083 2,18 -1.9065,2.656 -2.4065,5.656 -1.5,9 1.6516,0.899 3.1516,1.899 4.5,3 -5.3333,0 -10.6667,0 -16,0 -0.6667,0 -1.3333,0 -2,0 0.4443,-1.613 1.4443,-2.78 3,-3.5 -0.8081,-0.308 -1.4747,-0.808 -2,-1.5 1.3333,-1 1.3333,-2 0,-3 2.5756,-1.383 2.2423,-2.217 -1,-2.5 1.136,-1.53 2.136,-2.863 3,-4 -1.5722,-2.038 -2.5722,-4.371 -3,-7 -0.5606,-1.566 0.1061,-2.899 2,-4 -0.6667,-0.667 -1.3333,-1.3333 -2,-2 0.9552,-1.7175 1.9552,-3.3842 3,-5 -2.3633,-0.5885 -3.3633,-2.0885 -3,-4.5 3.5562,0.2251 3.8895,-0.6082 1,-2.5 -0.5522,-4.7065 -0.5522,-8.7065 0,-12 2.8647,-0.1829 5.5314,-0.6829 8,-1.5 z"
       id="path28" />
  </g>
  <g
     id="g29"
     transform="translate(0.5,-5.4817074)">
    <path
       style="opacity:1"
       fill="#78db0f"
       d="m 137.5,72.5 c 0.311,0.9778 0.978,1.6445 2,2 0.793,-0.8554 0.46,-1.6887 -1,-2.5 2.272,0.0768 3.938,1.2435 5,3.5 -0.961,1.7646 -1.295,3.7646 -1,6 -0.333,0 -0.667,0 -1,0 -2.032,-0.5478 -3.032,-1.8812 -3,-4 -1,0 -2,0 -3,0 -2.369,0.3511 -4.703,0.5178 -7,0.5 2.165,-1.4916 3.998,-3.325 5.5,-5.5 1.261,-1.1579 2.427,-1.1579 3.5,0 z"
       id="path29" />
  </g>
  <g
     id="g30"
     transform="translate(0.5,-5.4817074)">
    <path
       style="opacity:1"
       fill="#eefdd2"
       d="m 63.5,52.5 c 0.7891,0.2828 1.4558,0.7828 2,1.5 -2,0.3333 -4,0.6667 -6,1 -0.6667,1.3333 -1.3333,2.6667 -2,4 1.3333,2 1.3333,4 0,6 0.5611,1.676 1.5611,3.0094 3,4 -1.0348,1.5069 -0.8681,3.0069 0.5,4.5 2.7754,2.4611 5.7754,4.4611 9,6 0.6667,-2.6667 1.3333,-2.6667 2,0 1.6453,-0.1932 3.4787,-0.3598 5.5,-0.5 0.8523,-1.7284 1.8523,-1.895 3,-0.5 -1.4418,1.3195 -2.1085,2.9862 -2,5 0.131,0.7389 -0.0357,1.4056 -0.5,2 -0.406,-2.2794 -1.7393,-3.6127 -4,-4 -3.7444,0.0254 -6.2444,1.6921 -7.5,5 -0.8149,0.9293 -1.6482,1.9293 -2.5,3 -0.7475,-2.251 -2.2475,-3.5844 -4.5,-4 -1.5931,-2.7638 -3.7598,-5.0971 -6.5,-7 -2.1261,-3.124 -1.9594,-6.124 0.5,-9 -1.7866,-2.3584 -2.7866,-5.025 -3,-8 1.5908,-2.9309 3.5908,-5.5976 6,-8 2.5593,0.3016 4.8926,-0.0318 7,-1 z"
       id="path30" />
  </g>
  <g
     id="g31"
     transform="translate(0.5,-5.4817074)">
    <path
       style="opacity:1"
       fill="#4db00d"
       d="m 148.5,64.5 c 1.465,0.9057 2.465,2.239 3,4 1.189,0.9287 2.522,1.262 4,1 -0.709,0.904 -1.709,1.2373 -3,1 1.949,5.1329 2.949,10.4662 3,16 -0.934,-1.0676 -1.268,-2.401 -1,-4 -4.202,-0.7565 -8.202,-1.0899 -12,-1 -0.295,-2.2354 0.039,-4.2354 1,-6 2.187,4.3121 3.353,3.9788 3.5,-1 1.097,2.7648 3.097,4.4314 6,5 -0.968,-5.0794 -2.468,-10.0794 -4.5,-15 z"
       id="path31" />
  </g>
  <g
     id="g32"
     transform="translate(0.5,-5.4817074)">
    <path
       style="opacity:1"
       fill="#1c8600"
       d="m 175.5,72.5 c 1.841,2.3485 3.174,5.0152 4,8 -0.044,12.8817 -0.377,25.882 -1,39 -1,0.667 -2,1.333 -3,2 -1.111,-15.777 -1.111,-32.1107 0,-49 z"
       id="path32" />
  </g>
  <g
     id="g33"
     transform="translate(0.5,-5.4817074)">
    <path
       style="opacity:1"
       fill="#64ce01"
       d="m 89.5,70.5 c 0,0.6667 0.3333,1 1,1 0.672,0.7674 1.5053,1.4341 2.5,2 6.5829,-0.1678 12.916,-0.1678 19,0 0.667,-0.6667 1.333,-1.3333 2,-2 1,1.3333 2,1.3333 3,0 0.667,0.6667 1.333,1.3333 2,2 1.399,-0.0012 2.899,-0.3346 4.5,-1 0.676,1.1016 1.342,2.1016 2,3 0.221,1.2348 0.888,2.2348 2,3 -1.726,3.2564 -3.726,6.2564 -6,9 -0.47,-1.1935 -1.47,-1.8601 -3,-2 -4.23,0.2201 -8.396,0.2201 -12.5,0 -0.667,0.6667 -1.333,1.3333 -2,2 -2.933,-0.929 -6.2664,-1.5957 -10,-2 -2.1667,0.1667 -4.3333,0.3333 -6.5,0.5 -0.5,0.5 -1,1 -1.5,1.5 -2.5695,-1.2711 -5.0695,-2.6045 -7.5,-4 -0.1085,-2.0138 0.5582,-3.6805 2,-5 2.3008,-3.2924 5.3008,-5.9591 9,-8 z"
       id="path33" />
  </g>
  <g
     id="g34"
     transform="translate(0.5,-5.4817074)">
    <path
       style="opacity:1"
       fill="#cbfe63"
       d="m 137.5,72.5 c -1.073,-1.1579 -2.239,-1.1579 -3.5,0 -1.502,2.175 -3.335,4.0084 -5.5,5.5 2.297,0.0178 4.631,-0.1489 7,-0.5 -1.809,7.8581 -5.475,15.5248 -11,23 -1.684,-1.5171 -3.017,-3.3504 -4,-5.5 0.806,-2.6415 1.139,-5.1415 1,-7.5 2.274,-2.7436 4.274,-5.7436 6,-9 -1.112,-0.7652 -1.779,-1.7652 -2,-3 0,-1 0,-2 0,-3 1.333,0 2.667,0 4,0 0.14,-1.6238 -0.527,-2.7904 -2,-3.5 1.696,-1.1764 3.362,-2.343 5,-3.5 2.449,-0.5574 4.782,-0.5574 7,0 0.323,2.4259 -0.343,4.7592 -2,7 z"
       id="path34" />
  </g>
  <g
     id="g35"
     transform="translate(0.5,-5.4817074)">
    <path
       style="opacity:1"
       fill="#187209"
       d="m 24.5,73.5 c -2.7869,0.9767 -5.7869,1.31 -9,1 -0.6234,2.5003 -0.9567,5.0003 -1,7.5 2.4734,1.4019 2.4734,2.9019 0,4.5 1.1868,6.8941 1.1868,13.727 0,20.5 2.528,1.316 2.528,2.483 0,3.5 1.0352,3.631 1.0352,7.297 0,11 -5.62843,-2.471 -8.7951,-6.805 -9.5,-13 -1.53869,-9.8472 0.96131,-18.5139 7.5,-26 -1.2658,-0.8624 -2.59918,-1.5291 -4,-2 -2.79906,-1.9025 -5.79906,-3.5692 -9,-5 0,-0.3333 0,-0.6667 0,-1 8.30479,-0.8318 16.6381,-1.1652 25,-1 z"
       id="path35" />
  </g>
  <g
     id="g36"
     transform="translate(0.5,-5.4817074)">
    <path
       style="opacity:1"
       fill="#3ca600"
       d="m 179.5,80.5 c 3.378,5.7489 6.544,11.7489 9.5,18 0.758,3.862 0.258,7.528 -1.5,11 -2.288,3.956 -5.288,7.289 -9,10 0.623,-13.118 0.956,-26.1183 1,-39 z"
       id="path36" />
  </g>
  <g
     id="g37"
     transform="translate(0.5,-5.4817074)">
    <path
       style="opacity:1"
       fill="#c2fd48"
       d="m 135.5,77.5 c 1,0 2,0 3,0 -0.032,2.1188 0.968,3.4522 3,4 -1.623,6.4409 -4.29,12.4409 -8,18 0.363,0.683 0.696,1.35 1,2 -3.385,1.128 -6.719,1.128 -10,0 0,-0.333 0,-0.667 0,-1 5.525,-7.4752 9.191,-15.1419 11,-23 z"
       id="path37" />
  </g>
  <g
     id="g38"
     transform="translate(0.5,-5.4817074)">
    <path
       style="opacity:1"
       fill="#0b7200"
       d="m 171.5,64.5 c 2.271,2.1123 3.604,4.779 4,8 -1.111,16.8893 -1.111,33.223 0,49 -1.789,1.377 -3.789,2.377 -6,3 -0.214,-1.644 0.12,-3.144 1,-4.5 -2.667,-0.667 -2.667,-1.333 0,-2 -0.528,-8.422 -0.861,-17.089 -1,-26 0.667,-1.6667 1.333,-3.3333 2,-5 -0.951,-7.7667 -0.951,-15.2667 0,-22.5 z"
       id="path38" />
  </g>
  <g
     id="g39"
     transform="translate(0.5,-5.4817074)">
    <path
       style="opacity:1"
       fill="#43ac04"
       d="m 50.5,61.5 c 0.2134,2.975 1.2134,5.6416 3,8 -2.4594,2.876 -2.6261,5.876 -0.5,9 2.7402,1.9029 4.9069,4.2362 6.5,7 0.5668,1.5295 1.2334,3.0295 2,4.5 5.5192,1.8857 10.1859,4.8857 14,9 1.0768,0.4696 2.0768,0.3029 3,-0.5 -1.1441,3.86 -1.8107,7.86 -2,12 -0.6614,-1.218 -1.3281,-2.551 -2,-4 -2.8704,-0.622 -5.7037,-1.289 -8.5,-2 -1.7913,2.013 -3.1247,2.013 -4,0 -0.7412,1.141 -1.5745,1.141 -2.5,0 -1.1825,2.145 -2.6825,2.145 -4.5,0 -2.1203,2.58 -4.287,2.58 -6.5,0 -0.586,0.209 -1.086,0.543 -1.5,1 -1.5272,-1.721 -2.5272,-3.721 -3,-6 -1.0391,-1.2101 -2.2058,-2.2101 -3.5,-3 -0.5562,-7.9181 0.4438,-15.5847 3,-23 0.8872,-3.5396 2.2205,-6.8729 4,-10 1.2777,-0.2822 2.2777,-0.9489 3,-2 z"
       id="path39" />
  </g>
  <g
     id="g40"
     transform="translate(0.5,-5.4817074)">
    <path
       style="opacity:1"
       fill="#d9f8a9"
       d="m 59.5,85.5 c 2.2525,0.4156 3.7525,1.749 4.5,4 0.8518,-1.0707 1.6851,-2.0707 2.5,-3 0.5898,4.4195 2.5898,5.0862 6,2 1.0896,0.8914 1.0896,1.8914 0,3 0.825,0.8857 1.825,1.219 3,1 0,1.6667 0,3.3333 0,5 1.291,-0.2373 2.291,0.096 3,1 -0.9232,0.8029 -1.9232,0.9696 -3,0.5 -3.8141,-4.1143 -8.4808,-7.1143 -14,-9 -0.7666,-1.4705 -1.4332,-2.9705 -2,-4.5 z"
       id="path40" />
  </g>
  <g
     id="g41"
     transform="translate(0.5,-5.4817074)">
    <path
       style="opacity:1"
       fill="#51b904"
       d="m 78.5,83.5 c 2.4305,1.3955 4.9305,2.7289 7.5,4 0.5,-0.5 1,-1 1.5,-1.5 2.1667,-0.1667 4.3333,-0.3333 6.5,-0.5 3.7336,0.4043 7.067,1.071 10,2 0.667,-0.6667 1.333,-1.3333 2,-2 4.104,0.2201 8.27,0.2201 12.5,0 1.53,0.1399 2.53,0.8065 3,2 0.139,2.3585 -0.194,4.8585 -1,7.5 0.983,2.1496 2.316,3.9829 4,5.5 0,0.333 0,0.667 0,1 -5.642,-0.154 -11.309,-0.487 -17,-1 -1.147,0.318 -1.981,0.984 -2.5,2 -0.333,-0.667 -0.667,-1.333 -1,-2 -1.667,0 -3.333,0 -5,0 -0.7172,0.544 -1.2172,1.211 -1.5,2 -4.308,-3.1091 -9.1414,-5.1091 -14.5,-6 -1.6067,0.5735 -3.1067,1.2402 -4.5,2 -0.709,-0.904 -1.709,-1.2373 -3,-1 0,-1.6667 0,-3.3333 0,-5 -1.175,0.219 -2.175,-0.1143 -3,-1 1.0896,-1.1086 1.0896,-2.1086 0,-3 -3.4102,3.0862 -5.4102,2.4195 -6,-2 1.2556,-3.3079 3.7556,-4.9746 7.5,-5 2.2607,0.3873 3.594,1.7206 4,4 0.4643,-0.5944 0.631,-1.2611 0.5,-2 z"
       id="path41" />
  </g>
  <g
     id="g42"
     transform="translate(0.5,-5.4817074)">
    <path
       style="opacity:1"
       fill="#a4f211"
       d="m 8.5,80.5 c 1.40082,0.4709 2.7342,1.1376 4,2 -6.53869,7.4861 -9.03869,16.1528 -7.5,26 0.7049,6.195 3.87157,10.529 9.5,13 0.5577,1.29 1.5577,2.123 3,2.5 3.3445,0.943 6.6779,1.777 10,2.5 0.6667,0 1.3333,0 2,0 5.1509,0.827 10.4842,1.327 16,1.5 -6.9921,0.5 -13.9921,0.666 -21,0.5 -5.7558,-0.878 -11.0891,-2.878 -16,-6 -6.65853,-7.719 -8.825199,-16.719 -6.5,-27 2.20232,-5.0626 4.36899,-10.0626 6.5,-15 z"
       id="path42" />
  </g>
  <g
     id="g43"
     transform="translate(0.5,-5.4817074)">
    <path
       style="opacity:1"
       fill="#d7fd89"
       d="m 97.5,102.5 c -0.0674,1.459 0.2659,2.792 1,4 -2.7461,2.705 -5.9127,3.705 -9.5,3 -0.8333,1 -1.6667,2 -2.5,3 -2.9539,-0.414 -5.9539,-0.414 -9,0 0.1716,-0.992 -0.1618,-1.658 -1,-2 0.1893,-4.14 0.8559,-8.14 2,-12 1.3933,-0.7598 2.8933,-1.4265 4.5,-2 5.3586,0.8909 10.192,2.8909 14.5,6 z"
       id="path43" />
  </g>
  <g
     id="g44"
     transform="translate(0.5,-5.4817074)">
    <path
       style="opacity:1"
       fill="#3da601"
       d="m 124.5,101.5 c 3.281,1.128 6.615,1.128 10,0 2.653,2.249 3.986,5.249 4,9 -10.448,0.753 -20.782,1.086 -31,1 0.131,-0.876 -0.202,-1.543 -1,-2 -2.84,-0.703 -5.507,-1.703 -8,-3 -0.7341,-1.208 -1.0674,-2.541 -1,-4 0.2828,-0.789 0.7828,-1.456 1.5,-2 1.667,0 3.333,0 5,0 0.333,0.667 0.667,1.333 1,2 0.519,-1.016 1.353,-1.682 2.5,-2 5.691,0.513 11.358,0.846 17,1 z"
       id="path44" />
  </g>
  <g
     id="g45"
     transform="translate(0.5,-5.4817074)">
    <path
       style="opacity:1"
       fill="#2d9700"
       d="m 138.5,110.5 c -2.151,5.023 -3.151,10.357 -3,16 -3,0 -6,0 -9,0 0.165,-3.682 -0.001,-7.348 -0.5,-11 -2.188,3.067 -4.355,6.067 -6.5,9 -0.041,-2.245 -0.875,-2.912 -2.5,-2 -1,-0.667 -2,-1.333 -3,-2 -3.623,1.037 -7.457,1.037 -11.5,0 0.446,-3.14 1.779,-5.807 4,-8 0.667,0 1,-0.333 1,-1 10.218,0.086 20.552,-0.247 31,-1 z"
       id="path45" />
  </g>
  <g
     id="g46"
     transform="translate(0.5,-5.4817074)">
    <path
       style="opacity:1"
       fill="#cdfd6c"
       d="m 98.5,106.5 c 2.493,1.297 5.16,2.297 8,3 0.798,0.457 1.131,1.124 1,2 0,0.667 -0.333,1 -1,1 -5.647,1.739 -11.4802,4.073 -17.5,7 -2.0094,-0.495 -4.1761,-0.495 -6.5,0 -2.1991,-1.868 -3.8658,-4.201 -5,-7 3.0461,-0.414 6.0461,-0.414 9,0 0.8333,-1 1.6667,-2 2.5,-3 3.5873,0.705 6.7539,-0.295 9.5,-3 z"
       id="path46" />
  </g>
  <g
     id="g47"
     transform="translate(0.5,-5.4817074)">
    <path
       style="opacity:1"
       fill="#f0f7ee"
       d="m 42.5,114.5 c 2.2979,3.978 4.6312,7.978 7,12 -1.3333,0 -2.6667,0 -4,0 -1.3484,-1.101 -2.8484,-2.101 -4.5,-3 -0.9065,-3.344 -0.4065,-6.344 1.5,-9 z"
       id="path47" />
  </g>
  <g
     id="g48"
     transform="translate(0.5,-5.4817074)">
    <path
       style="opacity:1"
       fill="#c6fd55"
       d="m 106.5,112.5 c -2.221,2.193 -3.554,4.86 -4,8 -4.1116,3.527 -7.7782,7.527 -11,12 0.2845,-1.915 -0.0489,-3.581 -1,-5 -2.4479,-0.973 -5.1146,-1.306 -8,-1 0,-2.333 0,-4.667 0,-7 2.3239,-0.495 4.4906,-0.495 6.5,0 6.0198,-2.927 11.853,-5.261 17.5,-7 z"
       id="path48" />
  </g>
  <g
     id="g49"
     transform="translate(0.5,-5.4817074)">
    <path
       style="opacity:1"
       fill="#2a9401"
       d="m 40.5,96.5 c 1.2942,0.7899 2.4609,1.7899 3.5,3 0.4728,2.279 1.4728,4.279 3,6 0.414,-0.457 0.914,-0.791 1.5,-1 2.213,2.58 4.3797,2.58 6.5,0 1.8175,2.145 3.3175,2.145 4.5,0 0.9255,1.141 1.7588,1.141 2.5,0 0.8753,2.013 2.2087,2.013 4,0 2.7963,0.711 5.6296,1.378 8.5,2 0.6719,1.449 1.3386,2.782 2,4 0.8382,0.342 1.1716,1.008 1,2 1.1342,2.799 2.8009,5.132 5,7 0,2.333 0,4.667 0,7 -11,0 -22,0 -33,0 -2.3688,-4.022 -4.7021,-8.022 -7,-12 -1.3111,-5.917 -1.9778,-11.917 -2,-18 z"
       id="path49" />
  </g>
  <g
     id="g50"
     transform="translate(0.5,-5.4817074)">
    <path
       style="opacity:1"
       fill="#429d20"
       d="m 154.5,108.5 c -0.963,3.601 -1.63,7.267 -2,11 -2.202,1.911 -3.869,4.245 -5,7 -0.739,0.131 -1.406,-0.036 -2,-0.5 3.699,-5.566 6.699,-11.399 9,-17.5 z"
       id="path50" />
  </g>
  <g
     id="g51"
     transform="translate(0.5,-5.4817074)">
    <path
       style="opacity:1"
       fill="#a9f70f"
       d="m 141.5,81.5 c 0.333,0 0.667,0 1,0 3.798,-0.0899 7.798,0.2435 12,1 -0.268,1.599 0.066,2.9324 1,4 0.663,1.9726 0.996,4.1392 1,6.5 -0.428,5.2069 -1.095,10.374 -2,15.5 -2.301,6.101 -5.301,11.934 -9,17.5 0.594,0.464 1.261,0.631 2,0.5 2.667,0 5.333,0 8,0 1.333,0 2.667,0 4,0 2.065,-0.017 4.065,-0.35 6,-1 1.333,-0.333 2.667,-0.667 4,-1 2.211,-0.623 4.211,-1.623 6,-3 1,-0.667 2,-1.333 3,-2 3.712,-2.711 6.712,-6.044 9,-10 0.838,0.342 1.172,1.008 1,2 -5.39,9.871 -13.724,15.538 -25,17 -12.671,-0.167 -25.338,0 -38,0.5 -2.655,3.575 -6.155,5.742 -10.5,6.5 -0.483,-0.948 -0.649,-1.948 -0.5,-3 1.166,-3.003 2.833,-5.67 5,-8 2.145,-2.933 4.312,-5.933 6.5,-9 0.499,3.652 0.665,7.318 0.5,11 3,0 6,0 9,0 -0.151,-5.643 0.849,-10.977 3,-16 -0.014,-3.751 -1.347,-6.751 -4,-9 -0.304,-0.65 -0.637,-1.317 -1,-2 3.71,-5.5591 6.377,-11.5591 8,-18 z"
       id="path51" />
  </g>
  <g
     id="g52"
     transform="translate(0.5,-5.4817074)">
    <path
       style="opacity:1"
       fill="#fafdf8"
       d="m 152.5,119.5 c 0.812,2.445 1.812,4.778 3,7 -2.667,0 -5.333,0 -8,0 1.131,-2.755 2.798,-5.089 5,-7 z"
       id="path52" />
  </g>
  <g
     id="g53"
     transform="translate(0.5,-5.4817074)">
    <path
       style="opacity:1"
       fill="#218b00"
       d="m 102.5,120.5 c 4.043,1.037 7.877,1.037 11.5,0 1,0.667 2,1.333 3,2 1.625,-0.912 2.459,-0.245 2.5,2 -2.167,2.33 -3.834,4.997 -5,8 -1.228,0.806 -2.228,1.806 -3,3 0.131,-0.739 -0.036,-1.406 -0.5,-2 -6.239,0.15 -12.739,0.483 -19.5,1 0,-0.667 0,-1.333 0,-2 3.2218,-4.473 6.8884,-8.473 11,-12 z"
       id="path53" />
  </g>
  <g
     id="g54"
     transform="translate(0.5,-5.4817074)">
    <path
       style="opacity:1"
       fill="#228a05"
       d="m 8.5,122.5 c 4.9109,3.122 10.2442,5.122 16,6 1.4187,0.951 3.0853,1.284 5,1 0.3266,9.182 -0.0067,18.182 -1,27 -7.663,-10.646 -14.3297,-21.979 -20,-34 z"
       id="path54" />
  </g>
  <g
     id="g55"
     transform="translate(0.5,-5.4817074)">
    <path
       style="opacity:1"
       fill="#40a415"
       d="m 29.5,129.5 c 5.3333,0 10.6667,0 16,0 -0.973,3.177 -0.973,6.511 0,10 -0.3178,1.147 -0.9844,1.981 -2,2.5 0.928,0.388 1.5946,1.055 2,2 -0.4586,6.646 -0.4586,13.146 0,19.5 -0.2092,1.494 -0.8759,2.661 -2,3.5 0.8081,0.308 1.4747,0.808 2,1.5 -0.223,1.467 -0.5563,2.967 -1,4.5 3.6516,0.499 7.3183,0.665 11,0.5 2.6667,0 5.3333,0 8,0 2.6667,0 5.3333,0 8,0 2.6667,0 5.3333,0 8,0 4,0 8,0 12,0 -16.1615,1.162 -32.4948,1.328 -49,0.5 -1,-0.333 -2,-0.667 -3,-1 -4.5555,-4.955 -8.2222,-10.455 -11,-16.5 0.9933,-8.818 1.3266,-17.818 1,-27 z"
       id="path55" />
  </g>
  <g
     id="g56"
     transform="translate(0.5,-5.4817074)">
    <path
       style="opacity:1"
       fill="#46b000"
       d="m 45.5,129.5 c 3.6667,0 7.3333,0 11,0 0.0709,14.543 -0.2624,29.209 -1,44 -3.6817,0.165 -7.3484,-0.001 -11,-0.5 0.4437,-1.533 0.777,-3.033 1,-4.5 -0.5253,-0.692 -1.1919,-1.192 -2,-1.5 1.1241,-0.839 1.7908,-2.006 2,-3.5 -0.4586,-6.354 -0.4586,-12.854 0,-19.5 -0.4054,-0.945 -1.072,-1.612 -2,-2 1.0156,-0.519 1.6822,-1.353 2,-2.5 -0.973,-3.489 -0.973,-6.823 0,-10 z"
       id="path56" />
  </g>
  <g
     id="g57"
     transform="translate(0.5,-5.4817074)">
    <path
       style="opacity:1"
       fill="#a4f100"
       d="m 90.5,127.5 c 0.9511,1.419 1.2845,3.085 1,5 0,0.667 0,1.333 0,2 0,6 0,12 0,18 0,7 0,14 0,21 -4,0 -8,0 -12,0 0.7012,-14.544 1.0346,-29.21 1,-44 3.5109,-0.399 6.8443,-1.066 10,-2 z"
       id="path57" />
  </g>
  <g
     id="g58"
     transform="translate(0.5,-5.4817074)">
    <path
       style="opacity:1"
       fill="#47b102"
       d="m 160.5,129.5 c -16.405,12.837 -33.071,25.504 -50,38 -2.353,-2.36 -4.353,-5.027 -6,-8 1.163,-2.482 3.163,-3.816 6,-4 0,-1 0,-2 0,-3 3.138,-0.626 5.638,-2.292 7.5,-5 8.102,-4.313 15.602,-9.98 22.5,-17 6.634,-0.997 13.3,-1.33 20,-1 z"
       id="path58" />
  </g>
  <g
     id="g59"
     transform="translate(0.5,-5.4817074)">
    <path
       style="opacity:1"
       fill="#75d101"
       d="m 163.5,128.5 c -0.709,0.904 -1.709,1.237 -3,1 -6.7,-0.33 -13.366,0.003 -20,1 -6.898,7.02 -14.398,12.687 -22.5,17 -1.862,2.708 -4.362,4.374 -7.5,5 0,1 0,2 0,3 -2.837,0.184 -4.837,1.518 -6,4 -2.4,-1.796 -4.067,-4.13 -5,-7 4.246,-5.491 8.246,-11.158 12,-17 0.772,-1.194 1.772,-2.194 3,-3 -0.149,1.052 0.017,2.052 0.5,3 4.345,-0.758 7.845,-2.925 10.5,-6.5 12.662,-0.5 25.329,-0.667 38,-0.5 z"
       id="path59" />
  </g>
  <g
     id="g60"
     transform="translate(0.5,-5.4817074)">
    <path
       style="opacity:1"
       fill="#147e00"
       d="m 111.5,135.5 c -3.754,5.842 -7.754,11.509 -12,17 -2.6667,0 -5.3333,0 -8,0 0,-6 0,-12 0,-18 6.761,-0.517 13.261,-0.85 19.5,-1 0.464,0.594 0.631,1.261 0.5,2 z"
       id="path60" />
  </g>
  <g
     id="g61"
     transform="translate(0.5,-5.4817074)">
    <path
       style="opacity:1"
       fill="#37a103"
       d="m 190.5,110.5 c -2.511,5.697 -5.511,11.03 -9,16 -0.221,-2.597 -0.721,-2.597 -1.5,0 -0.333,-0.333 -0.667,-0.667 -1,-1 -21.106,16.796 -42.273,33.462 -63.5,50 -1.332,-2.973 -2.999,-5.64 -5,-8 16.929,-12.496 33.595,-25.163 50,-38 1.291,0.237 2.291,-0.096 3,-1 11.276,-1.462 19.61,-7.129 25,-17 0.667,-0.333 1.333,-0.667 2,-1 z"
       id="path61" />
  </g>
  <g
     id="g62"
     transform="translate(0.5,-5.4817074)">
    <path
       style="opacity:1"
       fill="#5abf00"
       d="m 56.5,129.5 c 2.6873,-0.164 5.354,0.003 8,0.5 -0.5966,1.628 -0.2633,3.295 1,5 -0.6667,0.667 -1.3333,1.333 -2,2 -0.5112,6.005 0.1555,12.505 2,19.5 -0.1667,2 -0.3333,4 -0.5,6 -0.5,0.5 -1,1 -1.5,1.5 0.6771,3.008 0.6771,6.175 0,9.5 -2.6667,0 -5.3333,0 -8,0 0.7376,-14.791 1.0709,-29.457 1,-44 z"
       id="path62" />
  </g>
  <g
     id="g63"
     transform="translate(0.5,-5.4817074)">
    <path
       style="opacity:1"
       fill="#75ce00"
       d="m 29.5,126.5 c 5.3333,0 10.6667,0 16,0 1.3333,0 2.6667,0 4,0 11,0 22,0 33,0 2.8854,-0.306 5.5521,0.027 8,1 -3.1557,0.934 -6.4891,1.601 -10,2 -3.3499,-0.165 -6.6832,0.002 -10,0.5 0.6667,1.333 1.3333,2.667 2,4 -0.6667,0.333 -1.3333,0.667 -2,1 0.9021,8.834 0.9021,18.5 0,29 0.6667,2.667 1.3333,5.333 2,8 -0.556,0.383 -0.8893,0.883 -1,1.5 -2.6667,0 -5.3333,0 -8,0 0.6771,-3.325 0.6771,-6.492 0,-9.5 0.5,-0.5 1,-1 1.5,-1.5 0.1667,-2 0.3333,-4 0.5,-6 -1.8445,-6.995 -2.5112,-13.495 -2,-19.5 0.6667,-0.667 1.3333,-1.333 2,-2 -1.2633,-1.705 -1.5966,-3.372 -1,-5 -2.646,-0.497 -5.3127,-0.664 -8,-0.5 -3.6667,0 -7.3333,0 -11,0 -5.3333,0 -10.6667,0 -16,0 -1.9147,0.284 -3.5813,-0.049 -5,-1 7.0079,0.166 14.0079,0 21,-0.5 -5.5158,-0.173 -10.8491,-0.673 -16,-1.5 z"
       id="path63" />
  </g>
  <g
     id="g64"
     transform="translate(0.5,-5.4817074)">
    <path
       style="opacity:1"
       fill="#8ae000"
       d="m 80.5,129.5 c 0.0346,14.79 -0.2988,29.456 -1,44 -2.6667,0 -5.3333,0 -8,0 0.1107,-0.617 0.444,-1.117 1,-1.5 -0.6667,-2.667 -1.3333,-5.333 -2,-8 0.9021,-10.5 0.9021,-20.166 0,-29 0.6667,-0.333 1.3333,-0.667 2,-1 -0.6667,-1.333 -1.3333,-2.667 -2,-4 3.3168,-0.498 6.6501,-0.665 10,-0.5 z"
       id="path64" />
  </g>
  <g
     id="g65"
     transform="translate(0.5,-5.4817074)">
    <path
       style="opacity:1"
       fill="#268c0b"
       d="m 181.5,126.5 c -7.997,15.487 -16.663,30.654 -26,45.5 -3.461,0.994 -6.961,1.827 -10.5,2.5 -6.281,-0.24 -12.447,-0.24 -18.5,0 0.327,4.714 -0.007,9.38 -1,14 -3.388,-4.376 -6.722,-8.709 -10,-13 21.227,-16.538 42.394,-33.204 63.5,-50 0.333,0.333 0.667,0.667 1,1 0.779,-2.597 1.279,-2.597 1.5,0 z"
       id="path65" />
  </g>
</svg>
